M48
; DRILL file {KiCad (6.0.1-0)} date 2022 May 02, Monday 12:36:34
; FORMAT={-:-/ absolute / inch / decimal}
; #@! TF.CreationDate,2022-05-02T12:36:34+02:00
; #@! TF.GenerationSoftware,Kicad,Pcbnew,(6.0.1-0)
; #@! TF.FileFunction,Plated,1,2,PTH
FMAT,2
INCH
; #@! TA.AperFunction,Plated,PTH,ViaDrill
T1C0.0157
; #@! TA.AperFunction,Plated,PTH,ComponentDrill
T2C0.0217
; #@! TA.AperFunction,Plated,PTH,ComponentDrill
T3C0.0394
%
G90
G05
T1
X4.813Y-0.6357
X4.8642Y-0.7425
X4.8823Y-1.4413
X4.9331Y-0.851
X5.003Y-0.7087
X5.0039Y-0.7756
X5.0116Y-1.0994
X5.1442Y-1.4444
X5.1518Y-1.4892
X5.1762Y-1.3327
X5.19Y-1.4104
X5.2094Y-0.8148
X5.2874Y-1.3337
X5.3357Y-1.1872
X5.3484Y-1.3307
X5.376Y-1.1821
X5.3789Y-1.1398
X5.3986Y-1.1043
X5.4163Y-1.1526
X5.4455Y-1.0466
X5.4636Y-0.9665
X5.5236Y-1.3455
X5.6358Y-1.065
X5.6528Y-1.3146
X5.6978Y-1.063
X5.7047Y-0.9577
X5.7142Y-0.8327
X5.7482Y-0.97
X5.7593Y-1.1991
X5.8852Y-1.0955
X5.9341Y-1.3681
X5.9567Y-0.9823
X6.0325Y-0.999
T3
X5.25Y-0.675
X5.25Y-1.475
X5.35Y-0.675
X5.35Y-1.475
X5.45Y-0.675
X5.45Y-1.475
X5.55Y-0.675
X5.55Y-1.475
X5.65Y-0.675
X5.65Y-1.475
X5.75Y-0.675
X5.75Y-1.475
X5.85Y-0.675
X5.85Y-1.475
T2
G00X6.127Y-0.6622
M15
G01X6.0699Y-0.6622
M16
G05
G00X6.127Y-0.9683
M15
G01X6.0699Y-0.9683
M16
G05
T0
M30
