%TF.GenerationSoftware,KiCad,Pcbnew,(6.0.1-0)*%
%TF.CreationDate,2022-05-02T12:36:28+02:00*%
%TF.ProjectId,SAMD_QTPY_MIDI,53414d44-5f51-4545-9059-5f4d4944492e,1*%
%TF.SameCoordinates,Original*%
%TF.FileFunction,Legend,Top*%
%TF.FilePolarity,Positive*%
%FSLAX46Y46*%
G04 Gerber Fmt 4.6, Leading zero omitted, Abs format (unit mm)*
G04 Created by KiCad (PCBNEW (6.0.1-0)) date 2022-05-02 12:36:28*
%MOMM*%
%LPD*%
G01*
G04 APERTURE LIST*
%ADD10C,0.300000*%
%ADD11C,0.150000*%
%ADD12C,0.100000*%
%ADD13C,0.120000*%
G04 APERTURE END LIST*
D10*
X131025000Y-20928571D02*
X131025000Y-21285714D01*
X130667857Y-21142857D02*
X131025000Y-21285714D01*
X131382142Y-21142857D01*
X130810714Y-21571428D02*
X131025000Y-21285714D01*
X131239285Y-21571428D01*
D11*
X142309523Y-35202380D02*
X142928571Y-35202380D01*
X142595238Y-35583333D01*
X142738095Y-35583333D01*
X142833333Y-35630952D01*
X142880952Y-35678571D01*
X142928571Y-35773809D01*
X142928571Y-36011904D01*
X142880952Y-36107142D01*
X142833333Y-36154761D01*
X142738095Y-36202380D01*
X142452380Y-36202380D01*
X142357142Y-36154761D01*
X142309523Y-36107142D01*
X143261904Y-35535714D02*
X143500000Y-36202380D01*
X143738095Y-35535714D01*
X144023809Y-35202380D02*
X144642857Y-35202380D01*
X144309523Y-35583333D01*
X144452380Y-35583333D01*
X144547619Y-35630952D01*
X144595238Y-35678571D01*
X144642857Y-35773809D01*
X144642857Y-36011904D01*
X144595238Y-36107142D01*
X144547619Y-36154761D01*
X144452380Y-36202380D01*
X144166666Y-36202380D01*
X144071428Y-36154761D01*
X144023809Y-36107142D01*
X136654761Y-18595238D02*
X136559523Y-18547619D01*
X136369047Y-18547619D01*
X136273809Y-18595238D01*
X136226190Y-18690476D01*
X136226190Y-18738095D01*
X136273809Y-18833333D01*
X136369047Y-18880952D01*
X136511904Y-18880952D01*
X136607142Y-18928571D01*
X136654761Y-19023809D01*
X136654761Y-19071428D01*
X136607142Y-19166666D01*
X136511904Y-19214285D01*
X136369047Y-19214285D01*
X136273809Y-19166666D01*
X135369047Y-18595238D02*
X135464285Y-18547619D01*
X135654761Y-18547619D01*
X135750000Y-18595238D01*
X135797619Y-18642857D01*
X135845238Y-18738095D01*
X135845238Y-19023809D01*
X135797619Y-19119047D01*
X135750000Y-19166666D01*
X135654761Y-19214285D01*
X135464285Y-19214285D01*
X135369047Y-19166666D01*
X134797619Y-18547619D02*
X134892857Y-18595238D01*
X134940476Y-18690476D01*
X134940476Y-19547619D01*
X145559523Y-35285714D02*
X145559523Y-36095238D01*
X145511904Y-36190476D01*
X145464285Y-36238095D01*
X145369047Y-36285714D01*
X145226190Y-36285714D01*
X145130952Y-36238095D01*
X145559523Y-35904761D02*
X145464285Y-35952380D01*
X145273809Y-35952380D01*
X145178571Y-35904761D01*
X145130952Y-35857142D01*
X145083333Y-35761904D01*
X145083333Y-35476190D01*
X145130952Y-35380952D01*
X145178571Y-35333333D01*
X145273809Y-35285714D01*
X145464285Y-35285714D01*
X145559523Y-35333333D01*
X146035714Y-35285714D02*
X146035714Y-35952380D01*
X146035714Y-35380952D02*
X146083333Y-35333333D01*
X146178571Y-35285714D01*
X146321428Y-35285714D01*
X146416666Y-35333333D01*
X146464285Y-35428571D01*
X146464285Y-35952380D01*
X147369047Y-35952380D02*
X147369047Y-34952380D01*
X147369047Y-35904761D02*
X147273809Y-35952380D01*
X147083333Y-35952380D01*
X146988095Y-35904761D01*
X146940476Y-35857142D01*
X146892857Y-35761904D01*
X146892857Y-35476190D01*
X146940476Y-35380952D01*
X146988095Y-35333333D01*
X147083333Y-35285714D01*
X147273809Y-35285714D01*
X147369047Y-35333333D01*
X146261904Y-18547619D02*
X146261904Y-19071428D01*
X146309523Y-19166666D01*
X146404761Y-19214285D01*
X146595238Y-19214285D01*
X146690476Y-19166666D01*
X146261904Y-18595238D02*
X146357142Y-18547619D01*
X146595238Y-18547619D01*
X146690476Y-18595238D01*
X146738095Y-18690476D01*
X146738095Y-18785714D01*
X146690476Y-18880952D01*
X146595238Y-18928571D01*
X146357142Y-18928571D01*
X146261904Y-18976190D01*
X145261904Y-18547619D02*
X145833333Y-18547619D01*
X145547619Y-18547619D02*
X145547619Y-19547619D01*
X145642857Y-19404761D01*
X145738095Y-19309523D01*
X145833333Y-19261904D01*
X143761904Y-18547619D02*
X143761904Y-19071428D01*
X143809523Y-19166666D01*
X143904761Y-19214285D01*
X144095238Y-19214285D01*
X144190476Y-19166666D01*
X143761904Y-18595238D02*
X143857142Y-18547619D01*
X144095238Y-18547619D01*
X144190476Y-18595238D01*
X144238095Y-18690476D01*
X144238095Y-18785714D01*
X144190476Y-18880952D01*
X144095238Y-18928571D01*
X143857142Y-18928571D01*
X143761904Y-18976190D01*
X143333333Y-19452380D02*
X143285714Y-19500000D01*
X143190476Y-19547619D01*
X142952380Y-19547619D01*
X142857142Y-19500000D01*
X142809523Y-19452380D01*
X142761904Y-19357142D01*
X142761904Y-19261904D01*
X142809523Y-19119047D01*
X143380952Y-18547619D01*
X142761904Y-18547619D01*
X134952380Y-35904761D02*
X135047619Y-35952380D01*
X135238095Y-35952380D01*
X135333333Y-35904761D01*
X135380952Y-35809523D01*
X135380952Y-35761904D01*
X135333333Y-35666666D01*
X135238095Y-35619047D01*
X135095238Y-35619047D01*
X135000000Y-35571428D01*
X134952380Y-35476190D01*
X134952380Y-35428571D01*
X135000000Y-35333333D01*
X135095238Y-35285714D01*
X135238095Y-35285714D01*
X135333333Y-35333333D01*
X136238095Y-35904761D02*
X136142857Y-35952380D01*
X135952380Y-35952380D01*
X135857142Y-35904761D01*
X135809523Y-35857142D01*
X135761904Y-35761904D01*
X135761904Y-35476190D01*
X135809523Y-35380952D01*
X135857142Y-35333333D01*
X135952380Y-35285714D01*
X136142857Y-35285714D01*
X136238095Y-35333333D01*
X136666666Y-35952380D02*
X136666666Y-34952380D01*
X136761904Y-35571428D02*
X137047619Y-35952380D01*
X137047619Y-35285714D02*
X136666666Y-35666666D01*
X133845238Y-19214285D02*
X133464285Y-19214285D01*
X133702380Y-19547619D02*
X133702380Y-18690476D01*
X133654761Y-18595238D01*
X133559523Y-18547619D01*
X133464285Y-18547619D01*
X133226190Y-18547619D02*
X132702380Y-19214285D01*
X133226190Y-19214285D02*
X132702380Y-18547619D01*
X149011904Y-18547619D02*
X149011904Y-19071428D01*
X149059523Y-19166666D01*
X149154761Y-19214285D01*
X149345238Y-19214285D01*
X149440476Y-19166666D01*
X149011904Y-18595238D02*
X149107142Y-18547619D01*
X149345238Y-18547619D01*
X149440476Y-18595238D01*
X149488095Y-18690476D01*
X149488095Y-18785714D01*
X149440476Y-18880952D01*
X149345238Y-18928571D01*
X149107142Y-18928571D01*
X149011904Y-18976190D01*
X148345238Y-19547619D02*
X148250000Y-19547619D01*
X148154761Y-19500000D01*
X148107142Y-19452380D01*
X148059523Y-19357142D01*
X148011904Y-19166666D01*
X148011904Y-18928571D01*
X148059523Y-18738095D01*
X148107142Y-18642857D01*
X148154761Y-18595238D01*
X148250000Y-18547619D01*
X148345238Y-18547619D01*
X148440476Y-18595238D01*
X148488095Y-18642857D01*
X148535714Y-18738095D01*
X148583333Y-18928571D01*
X148583333Y-19166666D01*
X148535714Y-19357142D01*
X148488095Y-19452380D01*
X148440476Y-19500000D01*
X148345238Y-19547619D01*
X137833333Y-35952380D02*
X137833333Y-35285714D01*
X137833333Y-35380952D02*
X137880952Y-35333333D01*
X137976190Y-35285714D01*
X138119047Y-35285714D01*
X138214285Y-35333333D01*
X138261904Y-35428571D01*
X138261904Y-35952380D01*
X138261904Y-35428571D02*
X138309523Y-35333333D01*
X138404761Y-35285714D01*
X138547619Y-35285714D01*
X138642857Y-35333333D01*
X138690476Y-35428571D01*
X138690476Y-35952380D01*
X139166666Y-35952380D02*
X139166666Y-35285714D01*
X139166666Y-34952380D02*
X139119047Y-35000000D01*
X139166666Y-35047619D01*
X139214285Y-35000000D01*
X139166666Y-34952380D01*
X139166666Y-35047619D01*
X139619047Y-18595238D02*
X139523809Y-18547619D01*
X139333333Y-18547619D01*
X139238095Y-18595238D01*
X139190476Y-18690476D01*
X139190476Y-18738095D01*
X139238095Y-18833333D01*
X139333333Y-18880952D01*
X139476190Y-18880952D01*
X139571428Y-18928571D01*
X139619047Y-19023809D01*
X139619047Y-19071428D01*
X139571428Y-19166666D01*
X139476190Y-19214285D01*
X139333333Y-19214285D01*
X139238095Y-19166666D01*
X138333333Y-18547619D02*
X138333333Y-19547619D01*
X138333333Y-18595238D02*
X138428571Y-18547619D01*
X138619047Y-18547619D01*
X138714285Y-18595238D01*
X138761904Y-18642857D01*
X138809523Y-18738095D01*
X138809523Y-19023809D01*
X138761904Y-19119047D01*
X138714285Y-19166666D01*
X138619047Y-19214285D01*
X138428571Y-19214285D01*
X138333333Y-19166666D01*
X137428571Y-18547619D02*
X137428571Y-19071428D01*
X137476190Y-19166666D01*
X137571428Y-19214285D01*
X137761904Y-19214285D01*
X137857142Y-19166666D01*
X137428571Y-18595238D02*
X137523809Y-18547619D01*
X137761904Y-18547619D01*
X137857142Y-18595238D01*
X137904761Y-18690476D01*
X137904761Y-18785714D01*
X137857142Y-18880952D01*
X137761904Y-18928571D01*
X137523809Y-18928571D01*
X137428571Y-18976190D01*
X140119047Y-35952380D02*
X140119047Y-35285714D01*
X140119047Y-35380952D02*
X140166666Y-35333333D01*
X140261904Y-35285714D01*
X140404761Y-35285714D01*
X140500000Y-35333333D01*
X140547619Y-35428571D01*
X140547619Y-35952380D01*
X140547619Y-35428571D02*
X140595238Y-35333333D01*
X140690476Y-35285714D01*
X140833333Y-35285714D01*
X140928571Y-35333333D01*
X140976190Y-35428571D01*
X140976190Y-35952380D01*
X141595238Y-35952380D02*
X141500000Y-35904761D01*
X141452380Y-35857142D01*
X141404761Y-35761904D01*
X141404761Y-35476190D01*
X141452380Y-35380952D01*
X141500000Y-35333333D01*
X141595238Y-35285714D01*
X141738095Y-35285714D01*
X141833333Y-35333333D01*
X141880952Y-35380952D01*
X141928571Y-35476190D01*
X141928571Y-35761904D01*
X141880952Y-35857142D01*
X141833333Y-35904761D01*
X141738095Y-35952380D01*
X141595238Y-35952380D01*
X147821428Y-35285714D02*
X148059523Y-35952380D01*
X148297619Y-35285714D01*
X148678571Y-35952380D02*
X148678571Y-35285714D01*
X148678571Y-34952380D02*
X148630952Y-35000000D01*
X148678571Y-35047619D01*
X148726190Y-35000000D01*
X148678571Y-34952380D01*
X148678571Y-35047619D01*
X149154761Y-35285714D02*
X149154761Y-35952380D01*
X149154761Y-35380952D02*
X149202380Y-35333333D01*
X149297619Y-35285714D01*
X149440476Y-35285714D01*
X149535714Y-35333333D01*
X149583333Y-35428571D01*
X149583333Y-35952380D01*
X133023809Y-35952380D02*
X133023809Y-35285714D01*
X133023809Y-35476190D02*
X133071428Y-35380952D01*
X133119047Y-35333333D01*
X133214285Y-35285714D01*
X133309523Y-35285714D01*
X133547619Y-35952380D02*
X134071428Y-35285714D01*
X133547619Y-35285714D02*
X134071428Y-35952380D01*
D10*
X140400000Y-22378571D02*
X140400000Y-22735714D01*
X140042857Y-22592857D02*
X140400000Y-22735714D01*
X140757142Y-22592857D01*
X140185714Y-23021428D02*
X140400000Y-22735714D01*
X140614285Y-23021428D01*
D11*
X141261904Y-18547619D02*
X141261904Y-19071428D01*
X141309523Y-19166666D01*
X141404761Y-19214285D01*
X141595238Y-19214285D01*
X141690476Y-19166666D01*
X141261904Y-18595238D02*
X141357142Y-18547619D01*
X141595238Y-18547619D01*
X141690476Y-18595238D01*
X141738095Y-18690476D01*
X141738095Y-18785714D01*
X141690476Y-18880952D01*
X141595238Y-18928571D01*
X141357142Y-18928571D01*
X141261904Y-18976190D01*
X140880952Y-19547619D02*
X140261904Y-19547619D01*
X140595238Y-19166666D01*
X140452380Y-19166666D01*
X140357142Y-19119047D01*
X140309523Y-19071428D01*
X140261904Y-18976190D01*
X140261904Y-18738095D01*
X140309523Y-18642857D01*
X140357142Y-18595238D01*
X140452380Y-18547619D01*
X140738095Y-18547619D01*
X140833333Y-18595238D01*
X140880952Y-18642857D01*
D12*
%TO.C,R2*%
X148246428Y-25305952D02*
X148017857Y-25305952D01*
X148132142Y-25305952D02*
X148132142Y-24905952D01*
X148094047Y-24963095D01*
X148055952Y-25001190D01*
X148017857Y-25020238D01*
X148494047Y-24905952D02*
X148532142Y-24905952D01*
X148570238Y-24925000D01*
X148589285Y-24944047D01*
X148608333Y-24982142D01*
X148627380Y-25058333D01*
X148627380Y-25153571D01*
X148608333Y-25229761D01*
X148589285Y-25267857D01*
X148570238Y-25286904D01*
X148532142Y-25305952D01*
X148494047Y-25305952D01*
X148455952Y-25286904D01*
X148436904Y-25267857D01*
X148417857Y-25229761D01*
X148398809Y-25153571D01*
X148398809Y-25058333D01*
X148417857Y-24982142D01*
X148436904Y-24944047D01*
X148455952Y-24925000D01*
X148494047Y-24905952D01*
X148875000Y-24905952D02*
X148913095Y-24905952D01*
X148951190Y-24925000D01*
X148970238Y-24944047D01*
X148989285Y-24982142D01*
X149008333Y-25058333D01*
X149008333Y-25153571D01*
X148989285Y-25229761D01*
X148970238Y-25267857D01*
X148951190Y-25286904D01*
X148913095Y-25305952D01*
X148875000Y-25305952D01*
X148836904Y-25286904D01*
X148817857Y-25267857D01*
X148798809Y-25229761D01*
X148779761Y-25153571D01*
X148779761Y-25058333D01*
X148798809Y-24982142D01*
X148817857Y-24944047D01*
X148836904Y-24925000D01*
X148875000Y-24905952D01*
X149179761Y-25305952D02*
X149179761Y-24905952D01*
X149217857Y-25153571D02*
X149332142Y-25305952D01*
X149332142Y-25039285D02*
X149179761Y-25191666D01*
%TO.C,R1*%
X145039285Y-24626190D02*
X145305952Y-24626190D01*
X144886904Y-24721428D02*
X145172619Y-24816666D01*
X145172619Y-24569047D01*
X144905952Y-24454761D02*
X144905952Y-24188095D01*
X145305952Y-24359523D01*
X145305952Y-24035714D02*
X144905952Y-24035714D01*
X145153571Y-23997619D02*
X145305952Y-23883333D01*
X145039285Y-23883333D02*
X145191666Y-24035714D01*
%TO.C,U2*%
X148565952Y-22249761D02*
X148889761Y-22249761D01*
X148927857Y-22230714D01*
X148946904Y-22211666D01*
X148965952Y-22173571D01*
X148965952Y-22097380D01*
X148946904Y-22059285D01*
X148927857Y-22040238D01*
X148889761Y-22021190D01*
X148565952Y-22021190D01*
X148604047Y-21849761D02*
X148585000Y-21830714D01*
X148565952Y-21792619D01*
X148565952Y-21697380D01*
X148585000Y-21659285D01*
X148604047Y-21640238D01*
X148642142Y-21621190D01*
X148680238Y-21621190D01*
X148737380Y-21640238D01*
X148965952Y-21868809D01*
X148965952Y-21621190D01*
%TO.C,R3*%
X143510714Y-28355952D02*
X143758333Y-28355952D01*
X143625000Y-28508333D01*
X143682142Y-28508333D01*
X143720238Y-28527380D01*
X143739285Y-28546428D01*
X143758333Y-28584523D01*
X143758333Y-28679761D01*
X143739285Y-28717857D01*
X143720238Y-28736904D01*
X143682142Y-28755952D01*
X143567857Y-28755952D01*
X143529761Y-28736904D01*
X143510714Y-28717857D01*
X143891666Y-28355952D02*
X144139285Y-28355952D01*
X144005952Y-28508333D01*
X144063095Y-28508333D01*
X144101190Y-28527380D01*
X144120238Y-28546428D01*
X144139285Y-28584523D01*
X144139285Y-28679761D01*
X144120238Y-28717857D01*
X144101190Y-28736904D01*
X144063095Y-28755952D01*
X143948809Y-28755952D01*
X143910714Y-28736904D01*
X143891666Y-28717857D01*
X144386904Y-28355952D02*
X144425000Y-28355952D01*
X144463095Y-28375000D01*
X144482142Y-28394047D01*
X144501190Y-28432142D01*
X144520238Y-28508333D01*
X144520238Y-28603571D01*
X144501190Y-28679761D01*
X144482142Y-28717857D01*
X144463095Y-28736904D01*
X144425000Y-28755952D01*
X144386904Y-28755952D01*
X144348809Y-28736904D01*
X144329761Y-28717857D01*
X144310714Y-28679761D01*
X144291666Y-28603571D01*
X144291666Y-28508333D01*
X144310714Y-28432142D01*
X144329761Y-28394047D01*
X144348809Y-28375000D01*
X144386904Y-28355952D01*
%TO.C,C3*%
X153326190Y-26905952D02*
X153097619Y-26905952D01*
X153211904Y-26905952D02*
X153211904Y-26505952D01*
X153173809Y-26563095D01*
X153135714Y-26601190D01*
X153097619Y-26620238D01*
X153497619Y-26867857D02*
X153516666Y-26886904D01*
X153497619Y-26905952D01*
X153478571Y-26886904D01*
X153497619Y-26867857D01*
X153497619Y-26905952D01*
X153764285Y-26505952D02*
X153802380Y-26505952D01*
X153840476Y-26525000D01*
X153859523Y-26544047D01*
X153878571Y-26582142D01*
X153897619Y-26658333D01*
X153897619Y-26753571D01*
X153878571Y-26829761D01*
X153859523Y-26867857D01*
X153840476Y-26886904D01*
X153802380Y-26905952D01*
X153764285Y-26905952D01*
X153726190Y-26886904D01*
X153707142Y-26867857D01*
X153688095Y-26829761D01*
X153669047Y-26753571D01*
X153669047Y-26658333D01*
X153688095Y-26582142D01*
X153707142Y-26544047D01*
X153726190Y-26525000D01*
X153764285Y-26505952D01*
X154240476Y-26639285D02*
X154240476Y-26905952D01*
X154069047Y-26639285D02*
X154069047Y-26848809D01*
X154088095Y-26886904D01*
X154126190Y-26905952D01*
X154183333Y-26905952D01*
X154221428Y-26886904D01*
X154240476Y-26867857D01*
X154564285Y-26696428D02*
X154430952Y-26696428D01*
X154430952Y-26905952D02*
X154430952Y-26505952D01*
X154621428Y-26505952D01*
%TO.C,C2*%
X142654988Y-33694047D02*
X142676416Y-33675000D01*
X142716892Y-33655952D01*
X142812130Y-33655952D01*
X142847845Y-33675000D01*
X142864511Y-33694047D01*
X142878797Y-33732142D01*
X142874035Y-33770238D01*
X142847845Y-33827380D01*
X142590702Y-34055952D01*
X142838321Y-34055952D01*
X143014511Y-34017857D02*
X143031178Y-34036904D01*
X143009750Y-34055952D01*
X142993083Y-34036904D01*
X143014511Y-34017857D01*
X143009750Y-34055952D01*
X143226416Y-33694047D02*
X143247845Y-33675000D01*
X143288321Y-33655952D01*
X143383559Y-33655952D01*
X143419273Y-33675000D01*
X143435940Y-33694047D01*
X143450226Y-33732142D01*
X143445464Y-33770238D01*
X143419273Y-33827380D01*
X143162130Y-34055952D01*
X143409750Y-34055952D01*
X143785940Y-33789285D02*
X143752607Y-34055952D01*
X143614511Y-33789285D02*
X143588321Y-33998809D01*
X143602607Y-34036904D01*
X143638321Y-34055952D01*
X143695464Y-34055952D01*
X143735940Y-34036904D01*
X143757369Y-34017857D01*
X144102607Y-33846428D02*
X143969273Y-33846428D01*
X143943083Y-34055952D02*
X143993083Y-33655952D01*
X144183559Y-33655952D01*
%TO.C,Q1*%
X149186904Y-30119047D02*
X149148809Y-30100000D01*
X149110714Y-30061904D01*
X149053571Y-30004761D01*
X149015476Y-29985714D01*
X148977380Y-29985714D01*
X148996428Y-30080952D02*
X148958333Y-30061904D01*
X148920238Y-30023809D01*
X148901190Y-29947619D01*
X148901190Y-29814285D01*
X148920238Y-29738095D01*
X148958333Y-29700000D01*
X148996428Y-29680952D01*
X149072619Y-29680952D01*
X149110714Y-29700000D01*
X149148809Y-29738095D01*
X149167857Y-29814285D01*
X149167857Y-29947619D01*
X149148809Y-30023809D01*
X149110714Y-30061904D01*
X149072619Y-30080952D01*
X148996428Y-30080952D01*
X149548809Y-30080952D02*
X149320238Y-30080952D01*
X149434523Y-30080952D02*
X149434523Y-29680952D01*
X149396428Y-29738095D01*
X149358333Y-29776190D01*
X149320238Y-29795238D01*
%TO.C,C4*%
X153222619Y-22369047D02*
X153241666Y-22350000D01*
X153279761Y-22330952D01*
X153375000Y-22330952D01*
X153413095Y-22350000D01*
X153432142Y-22369047D01*
X153451190Y-22407142D01*
X153451190Y-22445238D01*
X153432142Y-22502380D01*
X153203571Y-22730952D01*
X153451190Y-22730952D01*
X153622619Y-22692857D02*
X153641666Y-22711904D01*
X153622619Y-22730952D01*
X153603571Y-22711904D01*
X153622619Y-22692857D01*
X153622619Y-22730952D01*
X153794047Y-22369047D02*
X153813095Y-22350000D01*
X153851190Y-22330952D01*
X153946428Y-22330952D01*
X153984523Y-22350000D01*
X154003571Y-22369047D01*
X154022619Y-22407142D01*
X154022619Y-22445238D01*
X154003571Y-22502380D01*
X153775000Y-22730952D01*
X154022619Y-22730952D01*
X154365476Y-22464285D02*
X154365476Y-22730952D01*
X154194047Y-22464285D02*
X154194047Y-22673809D01*
X154213095Y-22711904D01*
X154251190Y-22730952D01*
X154308333Y-22730952D01*
X154346428Y-22711904D01*
X154365476Y-22692857D01*
X154689285Y-22521428D02*
X154555952Y-22521428D01*
X154555952Y-22730952D02*
X154555952Y-22330952D01*
X154746428Y-22330952D01*
D11*
%TO.C,D1*%
X124135714Y-16852380D02*
X123564285Y-16852380D01*
X123850000Y-16852380D02*
X123850000Y-15852380D01*
X123754761Y-15995238D01*
X123659523Y-16090476D01*
X123564285Y-16138095D01*
D12*
%TO.C,C1*%
X142494047Y-25102380D02*
X142475000Y-25083333D01*
X142455952Y-25045238D01*
X142455952Y-24950000D01*
X142475000Y-24911904D01*
X142494047Y-24892857D01*
X142532142Y-24873809D01*
X142570238Y-24873809D01*
X142627380Y-24892857D01*
X142855952Y-25121428D01*
X142855952Y-24873809D01*
X142817857Y-24702380D02*
X142836904Y-24683333D01*
X142855952Y-24702380D01*
X142836904Y-24721428D01*
X142817857Y-24702380D01*
X142855952Y-24702380D01*
X142494047Y-24530952D02*
X142475000Y-24511904D01*
X142455952Y-24473809D01*
X142455952Y-24378571D01*
X142475000Y-24340476D01*
X142494047Y-24321428D01*
X142532142Y-24302380D01*
X142570238Y-24302380D01*
X142627380Y-24321428D01*
X142855952Y-24550000D01*
X142855952Y-24302380D01*
X142589285Y-23959523D02*
X142855952Y-23959523D01*
X142589285Y-24130952D02*
X142798809Y-24130952D01*
X142836904Y-24111904D01*
X142855952Y-24073809D01*
X142855952Y-24016666D01*
X142836904Y-23978571D01*
X142817857Y-23959523D01*
X142646428Y-23635714D02*
X142646428Y-23769047D01*
X142855952Y-23769047D02*
X142455952Y-23769047D01*
X142455952Y-23578571D01*
D11*
%TO.C,F1*%
X147816666Y-33750000D02*
X147583333Y-33750000D01*
X147583333Y-34116666D02*
X147583333Y-33416666D01*
X147916666Y-33416666D01*
X148550000Y-34116666D02*
X148150000Y-34116666D01*
X148350000Y-34116666D02*
X148350000Y-33416666D01*
X148283333Y-33516666D01*
X148216666Y-33583333D01*
X148150000Y-33616666D01*
D12*
%TO.C,U1*%
X153120238Y-19455952D02*
X153120238Y-19779761D01*
X153139285Y-19817857D01*
X153158333Y-19836904D01*
X153196428Y-19855952D01*
X153272619Y-19855952D01*
X153310714Y-19836904D01*
X153329761Y-19817857D01*
X153348809Y-19779761D01*
X153348809Y-19455952D01*
X153748809Y-19855952D02*
X153520238Y-19855952D01*
X153634523Y-19855952D02*
X153634523Y-19455952D01*
X153596428Y-19513095D01*
X153558333Y-19551190D01*
X153520238Y-19570238D01*
D11*
%TO.C,U4*%
X133413095Y-26752380D02*
X133413095Y-27561904D01*
X133460714Y-27657142D01*
X133508333Y-27704761D01*
X133603571Y-27752380D01*
X133794047Y-27752380D01*
X133889285Y-27704761D01*
X133936904Y-27657142D01*
X133984523Y-27561904D01*
X133984523Y-26752380D01*
X134889285Y-27085714D02*
X134889285Y-27752380D01*
X134651190Y-26704761D02*
X134413095Y-27419047D01*
X135032142Y-27419047D01*
D12*
%TO.C,R7*%
X127986904Y-35655952D02*
X127758333Y-35655952D01*
X127872619Y-35655952D02*
X127872619Y-35255952D01*
X127834523Y-35313095D01*
X127796428Y-35351190D01*
X127758333Y-35370238D01*
X128234523Y-35255952D02*
X128272619Y-35255952D01*
X128310714Y-35275000D01*
X128329761Y-35294047D01*
X128348809Y-35332142D01*
X128367857Y-35408333D01*
X128367857Y-35503571D01*
X128348809Y-35579761D01*
X128329761Y-35617857D01*
X128310714Y-35636904D01*
X128272619Y-35655952D01*
X128234523Y-35655952D01*
X128196428Y-35636904D01*
X128177380Y-35617857D01*
X128158333Y-35579761D01*
X128139285Y-35503571D01*
X128139285Y-35408333D01*
X128158333Y-35332142D01*
X128177380Y-35294047D01*
X128196428Y-35275000D01*
X128234523Y-35255952D01*
X128539285Y-35655952D02*
X128539285Y-35255952D01*
X128577380Y-35503571D02*
X128691666Y-35655952D01*
X128691666Y-35389285D02*
X128539285Y-35541666D01*
%TO.C,R4*%
X126676190Y-28205952D02*
X126923809Y-28205952D01*
X126790476Y-28358333D01*
X126847619Y-28358333D01*
X126885714Y-28377380D01*
X126904761Y-28396428D01*
X126923809Y-28434523D01*
X126923809Y-28529761D01*
X126904761Y-28567857D01*
X126885714Y-28586904D01*
X126847619Y-28605952D01*
X126733333Y-28605952D01*
X126695238Y-28586904D01*
X126676190Y-28567857D01*
X127171428Y-28205952D02*
X127209523Y-28205952D01*
X127247619Y-28225000D01*
X127266666Y-28244047D01*
X127285714Y-28282142D01*
X127304761Y-28358333D01*
X127304761Y-28453571D01*
X127285714Y-28529761D01*
X127266666Y-28567857D01*
X127247619Y-28586904D01*
X127209523Y-28605952D01*
X127171428Y-28605952D01*
X127133333Y-28586904D01*
X127114285Y-28567857D01*
X127095238Y-28529761D01*
X127076190Y-28453571D01*
X127076190Y-28358333D01*
X127095238Y-28282142D01*
X127114285Y-28244047D01*
X127133333Y-28225000D01*
X127171428Y-28205952D01*
D11*
%TO.C,D3*%
X121025000Y-36716666D02*
X120625000Y-36716666D01*
X120825000Y-36716666D02*
X120825000Y-36016666D01*
X120758333Y-36116666D01*
X120691666Y-36183333D01*
X120625000Y-36216666D01*
X121325000Y-36716666D02*
X121325000Y-36016666D01*
X121725000Y-36716666D01*
X121725000Y-36016666D01*
X122358333Y-36250000D02*
X122358333Y-36716666D01*
X122191666Y-35983333D02*
X122025000Y-36483333D01*
X122458333Y-36483333D01*
X123091666Y-36716666D02*
X122691666Y-36716666D01*
X122891666Y-36716666D02*
X122891666Y-36016666D01*
X122825000Y-36116666D01*
X122758333Y-36183333D01*
X122691666Y-36216666D01*
X123691666Y-36250000D02*
X123691666Y-36716666D01*
X123525000Y-35983333D02*
X123358333Y-36483333D01*
X123791666Y-36483333D01*
X124158333Y-36316666D02*
X124091666Y-36283333D01*
X124058333Y-36250000D01*
X124025000Y-36183333D01*
X124025000Y-36150000D01*
X124058333Y-36083333D01*
X124091666Y-36050000D01*
X124158333Y-36016666D01*
X124291666Y-36016666D01*
X124358333Y-36050000D01*
X124391666Y-36083333D01*
X124425000Y-36150000D01*
X124425000Y-36183333D01*
X124391666Y-36250000D01*
X124358333Y-36283333D01*
X124291666Y-36316666D01*
X124158333Y-36316666D01*
X124091666Y-36350000D01*
X124058333Y-36383333D01*
X124025000Y-36450000D01*
X124025000Y-36583333D01*
X124058333Y-36650000D01*
X124091666Y-36683333D01*
X124158333Y-36716666D01*
X124291666Y-36716666D01*
X124358333Y-36683333D01*
X124391666Y-36650000D01*
X124425000Y-36583333D01*
X124425000Y-36450000D01*
X124391666Y-36383333D01*
X124358333Y-36350000D01*
X124291666Y-36316666D01*
D12*
%TO.C,R6*%
X126948809Y-23280952D02*
X126720238Y-23280952D01*
X126834523Y-23280952D02*
X126834523Y-22880952D01*
X126796428Y-22938095D01*
X126758333Y-22976190D01*
X126720238Y-22995238D01*
X127196428Y-22880952D02*
X127234523Y-22880952D01*
X127272619Y-22900000D01*
X127291666Y-22919047D01*
X127310714Y-22957142D01*
X127329761Y-23033333D01*
X127329761Y-23128571D01*
X127310714Y-23204761D01*
X127291666Y-23242857D01*
X127272619Y-23261904D01*
X127234523Y-23280952D01*
X127196428Y-23280952D01*
X127158333Y-23261904D01*
X127139285Y-23242857D01*
X127120238Y-23204761D01*
X127101190Y-23128571D01*
X127101190Y-23033333D01*
X127120238Y-22957142D01*
X127139285Y-22919047D01*
X127158333Y-22900000D01*
X127196428Y-22880952D01*
%TO.C,R5*%
X127779761Y-37769047D02*
X127798809Y-37750000D01*
X127836904Y-37730952D01*
X127932142Y-37730952D01*
X127970238Y-37750000D01*
X127989285Y-37769047D01*
X128008333Y-37807142D01*
X128008333Y-37845238D01*
X127989285Y-37902380D01*
X127760714Y-38130952D01*
X128008333Y-38130952D01*
X128160714Y-37769047D02*
X128179761Y-37750000D01*
X128217857Y-37730952D01*
X128313095Y-37730952D01*
X128351190Y-37750000D01*
X128370238Y-37769047D01*
X128389285Y-37807142D01*
X128389285Y-37845238D01*
X128370238Y-37902380D01*
X128141666Y-38130952D01*
X128389285Y-38130952D01*
X128636904Y-37730952D02*
X128675000Y-37730952D01*
X128713095Y-37750000D01*
X128732142Y-37769047D01*
X128751190Y-37807142D01*
X128770238Y-37883333D01*
X128770238Y-37978571D01*
X128751190Y-38054761D01*
X128732142Y-38092857D01*
X128713095Y-38111904D01*
X128675000Y-38130952D01*
X128636904Y-38130952D01*
X128598809Y-38111904D01*
X128579761Y-38092857D01*
X128560714Y-38054761D01*
X128541666Y-37978571D01*
X128541666Y-37883333D01*
X128560714Y-37807142D01*
X128579761Y-37769047D01*
X128598809Y-37750000D01*
X128636904Y-37730952D01*
D11*
%TO.C,R8*%
X126850395Y-26141666D02*
X126450395Y-26141666D01*
X126650395Y-26141666D02*
X126737895Y-25441666D01*
X126658729Y-25541666D01*
X126583729Y-25608333D01*
X126512895Y-25641666D01*
X127150395Y-26141666D02*
X127237895Y-25441666D01*
X127250395Y-25875000D02*
X127417062Y-26141666D01*
X127475395Y-25675000D02*
X127175395Y-25941666D01*
D12*
%TO.C,C5*%
X126600000Y-31417857D02*
X126619047Y-31436904D01*
X126600000Y-31455952D01*
X126580952Y-31436904D01*
X126600000Y-31417857D01*
X126600000Y-31455952D01*
X127000000Y-31455952D02*
X126771428Y-31455952D01*
X126885714Y-31455952D02*
X126885714Y-31055952D01*
X126847619Y-31113095D01*
X126809523Y-31151190D01*
X126771428Y-31170238D01*
X127171428Y-31189285D02*
X127171428Y-31589285D01*
X127361904Y-31398809D02*
X127380952Y-31436904D01*
X127419047Y-31455952D01*
X127171428Y-31398809D02*
X127190476Y-31436904D01*
X127228571Y-31455952D01*
X127304761Y-31455952D01*
X127342857Y-31436904D01*
X127361904Y-31398809D01*
X127361904Y-31189285D01*
D11*
%TO.C,J7*%
X120452380Y-35205952D02*
X119452380Y-35205952D01*
X120166666Y-34872619D01*
X119452380Y-34539285D01*
X120452380Y-34539285D01*
X120452380Y-34063095D02*
X119452380Y-34063095D01*
X120452380Y-33586904D02*
X119452380Y-33586904D01*
X119452380Y-33348809D01*
X119500000Y-33205952D01*
X119595238Y-33110714D01*
X119690476Y-33063095D01*
X119880952Y-33015476D01*
X120023809Y-33015476D01*
X120214285Y-33063095D01*
X120309523Y-33110714D01*
X120404761Y-33205952D01*
X120452380Y-33348809D01*
X120452380Y-33586904D01*
X120452380Y-32586904D02*
X119452380Y-32586904D01*
X120452380Y-31348809D02*
X119785714Y-31348809D01*
X119452380Y-31348809D02*
X119500000Y-31396428D01*
X119547619Y-31348809D01*
X119500000Y-31301190D01*
X119452380Y-31348809D01*
X119547619Y-31348809D01*
X119785714Y-30872619D02*
X120452380Y-30872619D01*
X119880952Y-30872619D02*
X119833333Y-30825000D01*
X119785714Y-30729761D01*
X119785714Y-30586904D01*
X119833333Y-30491666D01*
X119928571Y-30444047D01*
X120452380Y-30444047D01*
%TO.C,J6*%
X120427380Y-24855952D02*
X119427380Y-24855952D01*
X120141666Y-24522619D01*
X119427380Y-24189285D01*
X120427380Y-24189285D01*
X120427380Y-23713095D02*
X119427380Y-23713095D01*
X120427380Y-23236904D02*
X119427380Y-23236904D01*
X119427380Y-22998809D01*
X119475000Y-22855952D01*
X119570238Y-22760714D01*
X119665476Y-22713095D01*
X119855952Y-22665476D01*
X119998809Y-22665476D01*
X120189285Y-22713095D01*
X120284523Y-22760714D01*
X120379761Y-22855952D01*
X120427380Y-22998809D01*
X120427380Y-23236904D01*
X120427380Y-22236904D02*
X119427380Y-22236904D01*
X120427380Y-20855952D02*
X120379761Y-20951190D01*
X120332142Y-20998809D01*
X120236904Y-21046428D01*
X119951190Y-21046428D01*
X119855952Y-20998809D01*
X119808333Y-20951190D01*
X119760714Y-20855952D01*
X119760714Y-20713095D01*
X119808333Y-20617857D01*
X119855952Y-20570238D01*
X119951190Y-20522619D01*
X120236904Y-20522619D01*
X120332142Y-20570238D01*
X120379761Y-20617857D01*
X120427380Y-20713095D01*
X120427380Y-20855952D01*
X119760714Y-19665476D02*
X120427380Y-19665476D01*
X119760714Y-20094047D02*
X120284523Y-20094047D01*
X120379761Y-20046428D01*
X120427380Y-19951190D01*
X120427380Y-19808333D01*
X120379761Y-19713095D01*
X120332142Y-19665476D01*
X119760714Y-19332142D02*
X119760714Y-18951190D01*
X119427380Y-19189285D02*
X120284523Y-19189285D01*
X120379761Y-19141666D01*
X120427380Y-19046428D01*
X120427380Y-18951190D01*
D13*
%TO.C,R2*%
X147922936Y-26010000D02*
X149377064Y-26010000D01*
X147922936Y-24190000D02*
X149377064Y-24190000D01*
%TO.C,R1*%
X146085000Y-25077064D02*
X146085000Y-23622936D01*
X144265000Y-25077064D02*
X144265000Y-23622936D01*
%TO.C,U2*%
X149575000Y-20365000D02*
X147775000Y-20365000D01*
X147775000Y-23585000D02*
X150225000Y-23585000D01*
%TO.C,R3*%
X144702064Y-27615000D02*
X143247936Y-27615000D01*
X144702064Y-29435000D02*
X143247936Y-29435000D01*
%TO.C,C3*%
X153138748Y-25865000D02*
X154561252Y-25865000D01*
X153138748Y-27685000D02*
X154561252Y-27685000D01*
%TO.C,C2*%
X144061252Y-32965000D02*
X142638748Y-32965000D01*
X144061252Y-34785000D02*
X142638748Y-34785000D01*
%TO.C,Q1*%
X148265000Y-28220000D02*
X148265000Y-29150000D01*
X148265000Y-28220000D02*
X149725000Y-28220000D01*
X148265000Y-31380000D02*
X150425000Y-31380000D01*
X148265000Y-31380000D02*
X148265000Y-30450000D01*
%TO.C,J4*%
X147320000Y-36135000D02*
X147320000Y-38795000D01*
X132020000Y-36135000D02*
X132020000Y-38795000D01*
X147320000Y-36135000D02*
X132020000Y-36135000D01*
X147320000Y-38795000D02*
X132020000Y-38795000D01*
X149920000Y-36135000D02*
X149920000Y-37465000D01*
X148590000Y-36135000D02*
X149920000Y-36135000D01*
%TO.C,C4*%
X153213748Y-23460000D02*
X154636252Y-23460000D01*
X153213748Y-21640000D02*
X154636252Y-21640000D01*
%TO.C,D1*%
X124350000Y-20750000D02*
X131650000Y-20750000D01*
X124350000Y-15250000D02*
X131650000Y-15250000D01*
X131650000Y-20750000D02*
X131650000Y-19600000D01*
%TO.C,C1*%
X143585000Y-25061252D02*
X143585000Y-23638748D01*
X141765000Y-25061252D02*
X141765000Y-23638748D01*
%TO.C,F1*%
X147397936Y-34735000D02*
X148602064Y-34735000D01*
X147397936Y-32915000D02*
X148602064Y-32915000D01*
%TO.C,J2*%
X152645000Y-29640000D02*
X152645000Y-31700000D01*
X152645000Y-37360000D02*
X152645000Y-35300000D01*
X154355000Y-37360000D02*
X152645000Y-37360000D01*
X158465000Y-37360000D02*
X156855000Y-37360000D01*
X158465000Y-37360000D02*
X158465000Y-29640000D01*
X152645000Y-35300000D02*
X152055000Y-35300000D01*
X158465000Y-29640000D02*
X156855000Y-29640000D01*
X154355000Y-29640000D02*
X152645000Y-29640000D01*
%TO.C,J3*%
X132020000Y-15815000D02*
X132020000Y-18475000D01*
X147320000Y-18475000D02*
X132020000Y-18475000D01*
X147320000Y-15815000D02*
X147320000Y-18475000D01*
X147320000Y-15815000D02*
X132020000Y-15815000D01*
X149920000Y-15815000D02*
X149920000Y-17145000D01*
X148590000Y-15815000D02*
X149920000Y-15815000D01*
%TO.C,U1*%
X154425000Y-17915000D02*
X152625000Y-17915000D01*
X152625000Y-21135000D02*
X155075000Y-21135000D01*
D11*
%TO.C,U4*%
X139675000Y-30950000D02*
X139350000Y-30950000D01*
X132425000Y-30950000D02*
X132750000Y-30950000D01*
X132425000Y-30950000D02*
X132425000Y-30625000D01*
X139450000Y-23700000D02*
X139450000Y-22275000D01*
X139675000Y-23700000D02*
X139675000Y-24025000D01*
X132425000Y-23700000D02*
X132750000Y-23700000D01*
X132425000Y-23700000D02*
X132425000Y-24025000D01*
X139675000Y-30950000D02*
X139675000Y-30625000D01*
X139675000Y-23700000D02*
X139450000Y-23700000D01*
D13*
%TO.C,SW2*%
X122700000Y-14800000D02*
X122700000Y-15450000D01*
X120000000Y-15450000D02*
X123500000Y-15450000D01*
X120800000Y-15450000D02*
X120800000Y-14800000D01*
X120800000Y-14800000D02*
X122700000Y-14800000D01*
X123500000Y-18550000D02*
X120000000Y-18550000D01*
%TO.C,R7*%
X128952064Y-34565000D02*
X127497936Y-34565000D01*
X128952064Y-36385000D02*
X127497936Y-36385000D01*
%TO.C,R4*%
X126272936Y-29335000D02*
X127727064Y-29335000D01*
X126272936Y-27515000D02*
X127727064Y-27515000D01*
%TO.C,D3*%
X125575000Y-36925000D02*
X121675000Y-36925000D01*
X125575000Y-38925000D02*
X121675000Y-38925000D01*
X125575000Y-38925000D02*
X125575000Y-36925000D01*
%TO.C,R6*%
X127752064Y-22190000D02*
X126297936Y-22190000D01*
X127752064Y-24010000D02*
X126297936Y-24010000D01*
%TO.C,R5*%
X127497936Y-36990000D02*
X128952064Y-36990000D01*
X127497936Y-38810000D02*
X128952064Y-38810000D01*
%TO.C,R8*%
X126272936Y-24915000D02*
X127727064Y-24915000D01*
X126272936Y-26735000D02*
X127727064Y-26735000D01*
%TO.C,C5*%
X127736252Y-32135000D02*
X126313748Y-32135000D01*
X127736252Y-30315000D02*
X126313748Y-30315000D01*
%TD*%
M02*
