%TF.GenerationSoftware,KiCad,Pcbnew,(6.0.1-0)*%
%TF.CreationDate,2022-05-02T12:36:29+02:00*%
%TF.ProjectId,SAMD_QTPY_MIDI,53414d44-5f51-4545-9059-5f4d4944492e,1*%
%TF.SameCoordinates,Original*%
%TF.FileFunction,Soldermask,Bot*%
%TF.FilePolarity,Negative*%
%FSLAX46Y46*%
G04 Gerber Fmt 4.6, Leading zero omitted, Abs format (unit mm)*
G04 Created by KiCad (PCBNEW (6.0.1-0)) date 2022-05-02 12:36:29*
%MOMM*%
%LPD*%
G01*
G04 APERTURE LIST*
%ADD10R,1.700000X1.700000*%
%ADD11O,1.700000X1.700000*%
%ADD12R,2.500000X0.450000*%
%ADD13R,1.300000X0.450000*%
%ADD14O,2.400000X1.150000*%
%ADD15C,1.500000*%
%ADD16R,1.200000X2.500000*%
%ADD17R,1.600000X1.600000*%
G04 APERTURE END LIST*
D10*
%TO.C,J4*%
X148590000Y-37465000D03*
D11*
X146050000Y-37465000D03*
X143510000Y-37465000D03*
X140970000Y-37465000D03*
X138430000Y-37465000D03*
X135890000Y-37465000D03*
X133350000Y-37465000D03*
%TD*%
D10*
%TO.C,J3*%
X148590000Y-17145000D03*
D11*
X146050000Y-17145000D03*
X143510000Y-17145000D03*
X140970000Y-17145000D03*
X138430000Y-17145000D03*
X135890000Y-17145000D03*
X133350000Y-17145000D03*
%TD*%
D12*
%TO.C,J1*%
X149500000Y-19420000D03*
D13*
X150100000Y-20070000D03*
X150100000Y-20720000D03*
X150100000Y-21370000D03*
D12*
X149500000Y-22120000D03*
D14*
X154900000Y-16820000D03*
X154900000Y-24595000D03*
%TD*%
D15*
%TO.C,J7*%
X128730000Y-33500000D03*
X122730000Y-33500000D03*
D16*
X125230000Y-36750000D03*
X125330000Y-30400000D03*
X122030000Y-36700000D03*
X122030000Y-30400000D03*
X128730000Y-30400000D03*
X128730000Y-36750000D03*
%TD*%
D17*
%TO.C,U6*%
X133840000Y-32285000D03*
X133840000Y-29745000D03*
X133840000Y-27205000D03*
X133840000Y-24665000D03*
X141460000Y-24665000D03*
X141460000Y-27205000D03*
X141460000Y-29745000D03*
X141460000Y-32285000D03*
%TD*%
D15*
%TO.C,J6*%
X122700000Y-21100000D03*
X128700000Y-21100000D03*
D16*
X125200000Y-24350000D03*
X125300000Y-18000000D03*
X122000000Y-18000000D03*
X122000000Y-24300000D03*
X128700000Y-18000000D03*
X128700000Y-24350000D03*
%TD*%
M02*
