%TF.GenerationSoftware,KiCad,Pcbnew,(6.0.1-0)*%
%TF.CreationDate,2022-05-02T12:36:28+02:00*%
%TF.ProjectId,SAMD_QTPY_MIDI,53414d44-5f51-4545-9059-5f4d4944492e,1*%
%TF.SameCoordinates,Original*%
%TF.FileFunction,Legend,Bot*%
%TF.FilePolarity,Positive*%
%FSLAX46Y46*%
G04 Gerber Fmt 4.6, Leading zero omitted, Abs format (unit mm)*
G04 Created by KiCad (PCBNEW (6.0.1-0)) date 2022-05-02 12:36:28*
%MOMM*%
%LPD*%
G01*
G04 APERTURE LIST*
%ADD10C,0.250000*%
%ADD11C,0.150000*%
%ADD12C,0.200000*%
%ADD13C,0.010000*%
%ADD14C,0.120000*%
G04 APERTURE END LIST*
D10*
X139216666Y-36077380D02*
X139216666Y-35410714D01*
X139216666Y-35505952D02*
X139169047Y-35458333D01*
X139073809Y-35410714D01*
X138930952Y-35410714D01*
X138835714Y-35458333D01*
X138788095Y-35553571D01*
X138788095Y-36077380D01*
X138788095Y-35553571D02*
X138740476Y-35458333D01*
X138645238Y-35410714D01*
X138502380Y-35410714D01*
X138407142Y-35458333D01*
X138359523Y-35553571D01*
X138359523Y-36077380D01*
X137883333Y-36077380D02*
X137883333Y-35410714D01*
X137883333Y-35077380D02*
X137930952Y-35125000D01*
X137883333Y-35172619D01*
X137835714Y-35125000D01*
X137883333Y-35077380D01*
X137883333Y-35172619D01*
D11*
X149628571Y-35385714D02*
X149390476Y-36052380D01*
X149152380Y-35385714D01*
X148771428Y-36052380D02*
X148771428Y-35385714D01*
X148771428Y-35052380D02*
X148819047Y-35100000D01*
X148771428Y-35147619D01*
X148723809Y-35100000D01*
X148771428Y-35052380D01*
X148771428Y-35147619D01*
X148295238Y-35385714D02*
X148295238Y-36052380D01*
X148295238Y-35480952D02*
X148247619Y-35433333D01*
X148152380Y-35385714D01*
X148009523Y-35385714D01*
X147914285Y-35433333D01*
X147866666Y-35528571D01*
X147866666Y-36052380D01*
X143238095Y-18797619D02*
X143238095Y-19321428D01*
X143190476Y-19416666D01*
X143095238Y-19464285D01*
X142904761Y-19464285D01*
X142809523Y-19416666D01*
X143238095Y-18845238D02*
X143142857Y-18797619D01*
X142904761Y-18797619D01*
X142809523Y-18845238D01*
X142761904Y-18940476D01*
X142761904Y-19035714D01*
X142809523Y-19130952D01*
X142904761Y-19178571D01*
X143142857Y-19178571D01*
X143238095Y-19226190D01*
X143666666Y-19702380D02*
X143714285Y-19750000D01*
X143809523Y-19797619D01*
X144047619Y-19797619D01*
X144142857Y-19750000D01*
X144190476Y-19702380D01*
X144238095Y-19607142D01*
X144238095Y-19511904D01*
X144190476Y-19369047D01*
X143619047Y-18797619D01*
X144238095Y-18797619D01*
X140738095Y-18797619D02*
X140738095Y-19321428D01*
X140690476Y-19416666D01*
X140595238Y-19464285D01*
X140404761Y-19464285D01*
X140309523Y-19416666D01*
X140738095Y-18845238D02*
X140642857Y-18797619D01*
X140404761Y-18797619D01*
X140309523Y-18845238D01*
X140261904Y-18940476D01*
X140261904Y-19035714D01*
X140309523Y-19130952D01*
X140404761Y-19178571D01*
X140642857Y-19178571D01*
X140738095Y-19226190D01*
X141119047Y-19797619D02*
X141738095Y-19797619D01*
X141404761Y-19416666D01*
X141547619Y-19416666D01*
X141642857Y-19369047D01*
X141690476Y-19321428D01*
X141738095Y-19226190D01*
X141738095Y-18988095D01*
X141690476Y-18892857D01*
X141642857Y-18845238D01*
X141547619Y-18797619D01*
X141261904Y-18797619D01*
X141166666Y-18845238D01*
X141119047Y-18892857D01*
D12*
X136997619Y-35879761D02*
X136902380Y-35927380D01*
X136711904Y-35927380D01*
X136616666Y-35879761D01*
X136569047Y-35784523D01*
X136569047Y-35736904D01*
X136616666Y-35641666D01*
X136711904Y-35594047D01*
X136854761Y-35594047D01*
X136950000Y-35546428D01*
X136997619Y-35451190D01*
X136997619Y-35403571D01*
X136950000Y-35308333D01*
X136854761Y-35260714D01*
X136711904Y-35260714D01*
X136616666Y-35308333D01*
X135711904Y-35879761D02*
X135807142Y-35927380D01*
X135997619Y-35927380D01*
X136092857Y-35879761D01*
X136140476Y-35832142D01*
X136188095Y-35736904D01*
X136188095Y-35451190D01*
X136140476Y-35355952D01*
X136092857Y-35308333D01*
X135997619Y-35260714D01*
X135807142Y-35260714D01*
X135711904Y-35308333D01*
X135283333Y-35927380D02*
X135283333Y-34927380D01*
X135188095Y-35546428D02*
X134902380Y-35927380D01*
X134902380Y-35260714D02*
X135283333Y-35641666D01*
D11*
X144715476Y-35227380D02*
X144096428Y-35227380D01*
X144429761Y-35608333D01*
X144286904Y-35608333D01*
X144191666Y-35655952D01*
X144144047Y-35703571D01*
X144096428Y-35798809D01*
X144096428Y-36036904D01*
X144144047Y-36132142D01*
X144191666Y-36179761D01*
X144286904Y-36227380D01*
X144572619Y-36227380D01*
X144667857Y-36179761D01*
X144715476Y-36132142D01*
X143763095Y-35560714D02*
X143525000Y-36227380D01*
X143286904Y-35560714D01*
X143001190Y-35227380D02*
X142382142Y-35227380D01*
X142715476Y-35608333D01*
X142572619Y-35608333D01*
X142477380Y-35655952D01*
X142429761Y-35703571D01*
X142382142Y-35798809D01*
X142382142Y-36036904D01*
X142429761Y-36132142D01*
X142477380Y-36179761D01*
X142572619Y-36227380D01*
X142858333Y-36227380D01*
X142953571Y-36179761D01*
X143001190Y-36132142D01*
X133826190Y-35927380D02*
X133826190Y-35260714D01*
X133826190Y-35451190D02*
X133778571Y-35355952D01*
X133730952Y-35308333D01*
X133635714Y-35260714D01*
X133540476Y-35260714D01*
X133302380Y-35927380D02*
X132778571Y-35260714D01*
X133302380Y-35260714D02*
X132778571Y-35927380D01*
X153907380Y-37772738D02*
X153955000Y-37867976D01*
X154050238Y-37963214D01*
X154193095Y-38106071D01*
X154240714Y-38201309D01*
X154240714Y-38296547D01*
X154002619Y-38248928D02*
X154050238Y-38344166D01*
X154145476Y-38439404D01*
X154335952Y-38487023D01*
X154669285Y-38487023D01*
X154859761Y-38439404D01*
X154955000Y-38344166D01*
X155002619Y-38248928D01*
X155002619Y-38058452D01*
X154955000Y-37963214D01*
X154859761Y-37867976D01*
X154669285Y-37820357D01*
X154335952Y-37820357D01*
X154145476Y-37867976D01*
X154050238Y-37963214D01*
X154002619Y-38058452D01*
X154002619Y-38248928D01*
X155002619Y-37534642D02*
X155002619Y-36963214D01*
X154002619Y-37248928D02*
X155002619Y-37248928D01*
X154002619Y-35867976D02*
X155002619Y-35867976D01*
X155002619Y-35487023D01*
X154955000Y-35391785D01*
X154907380Y-35344166D01*
X154812142Y-35296547D01*
X154669285Y-35296547D01*
X154574047Y-35344166D01*
X154526428Y-35391785D01*
X154478809Y-35487023D01*
X154478809Y-35867976D01*
X154669285Y-34963214D02*
X154002619Y-34725119D01*
X154669285Y-34487023D02*
X154002619Y-34725119D01*
X153764523Y-34820357D01*
X153716904Y-34867976D01*
X153669285Y-34963214D01*
X154002619Y-33344166D02*
X155002619Y-33344166D01*
X154288333Y-33010833D01*
X155002619Y-32677500D01*
X154002619Y-32677500D01*
X154002619Y-32201309D02*
X155002619Y-32201309D01*
X154002619Y-31725119D02*
X155002619Y-31725119D01*
X155002619Y-31487023D01*
X154955000Y-31344166D01*
X154859761Y-31248928D01*
X154764523Y-31201309D01*
X154574047Y-31153690D01*
X154431190Y-31153690D01*
X154240714Y-31201309D01*
X154145476Y-31248928D01*
X154050238Y-31344166D01*
X154002619Y-31487023D01*
X154002619Y-31725119D01*
X154002619Y-30725119D02*
X155002619Y-30725119D01*
X154669285Y-29582261D02*
X154002619Y-29344166D01*
X154669285Y-29106071D01*
X154002619Y-28201309D02*
X154002619Y-28772738D01*
X154002619Y-28487023D02*
X155002619Y-28487023D01*
X154859761Y-28582261D01*
X154764523Y-28677500D01*
X154716904Y-28772738D01*
X153059285Y-38010833D02*
X152392619Y-38010833D01*
X153059285Y-38439404D02*
X152535476Y-38439404D01*
X152440238Y-38391785D01*
X152392619Y-38296547D01*
X152392619Y-38153690D01*
X152440238Y-38058452D01*
X152487857Y-38010833D01*
X152440238Y-37582261D02*
X152392619Y-37487023D01*
X152392619Y-37296547D01*
X152440238Y-37201309D01*
X152535476Y-37153690D01*
X152583095Y-37153690D01*
X152678333Y-37201309D01*
X152725952Y-37296547D01*
X152725952Y-37439404D01*
X152773571Y-37534642D01*
X152868809Y-37582261D01*
X152916428Y-37582261D01*
X153011666Y-37534642D01*
X153059285Y-37439404D01*
X153059285Y-37296547D01*
X153011666Y-37201309D01*
X152440238Y-36344166D02*
X152392619Y-36439404D01*
X152392619Y-36629880D01*
X152440238Y-36725119D01*
X152535476Y-36772738D01*
X152916428Y-36772738D01*
X153011666Y-36725119D01*
X153059285Y-36629880D01*
X153059285Y-36439404D01*
X153011666Y-36344166D01*
X152916428Y-36296547D01*
X152821190Y-36296547D01*
X152725952Y-36772738D01*
X152678333Y-35153690D02*
X152678333Y-34677500D01*
X152392619Y-35248928D02*
X153392619Y-34915595D01*
X152392619Y-34582261D01*
X152392619Y-33820357D02*
X153392619Y-33820357D01*
X152440238Y-33820357D02*
X152392619Y-33915595D01*
X152392619Y-34106071D01*
X152440238Y-34201309D01*
X152487857Y-34248928D01*
X152583095Y-34296547D01*
X152868809Y-34296547D01*
X152964047Y-34248928D01*
X153011666Y-34201309D01*
X153059285Y-34106071D01*
X153059285Y-33915595D01*
X153011666Y-33820357D01*
X152392619Y-32915595D02*
X152916428Y-32915595D01*
X153011666Y-32963214D01*
X153059285Y-33058452D01*
X153059285Y-33248928D01*
X153011666Y-33344166D01*
X152440238Y-32915595D02*
X152392619Y-33010833D01*
X152392619Y-33248928D01*
X152440238Y-33344166D01*
X152535476Y-33391785D01*
X152630714Y-33391785D01*
X152725952Y-33344166D01*
X152773571Y-33248928D01*
X152773571Y-33010833D01*
X152821190Y-32915595D01*
X153059285Y-32582261D02*
X153059285Y-32201309D01*
X152392619Y-32439404D02*
X153249761Y-32439404D01*
X153345000Y-32391785D01*
X153392619Y-32296547D01*
X153392619Y-32201309D01*
X152392619Y-31867976D02*
X153059285Y-31867976D01*
X152868809Y-31867976D02*
X152964047Y-31820357D01*
X153011666Y-31772738D01*
X153059285Y-31677500D01*
X153059285Y-31582261D01*
X153059285Y-30820357D02*
X152392619Y-30820357D01*
X153059285Y-31248928D02*
X152535476Y-31248928D01*
X152440238Y-31201309D01*
X152392619Y-31106071D01*
X152392619Y-30963214D01*
X152440238Y-30867976D01*
X152487857Y-30820357D01*
X152392619Y-30344166D02*
X153059285Y-30344166D01*
X153392619Y-30344166D02*
X153345000Y-30391785D01*
X153297380Y-30344166D01*
X153345000Y-30296547D01*
X153392619Y-30344166D01*
X153297380Y-30344166D01*
X153059285Y-30010833D02*
X153059285Y-29629880D01*
X153392619Y-29867976D02*
X152535476Y-29867976D01*
X152440238Y-29820357D01*
X152392619Y-29725119D01*
X152392619Y-29629880D01*
X152297380Y-27867976D02*
X152345000Y-27963214D01*
X152440238Y-28058452D01*
X152583095Y-28201309D01*
X152630714Y-28296547D01*
X152630714Y-28391785D01*
X152392619Y-28344166D02*
X152440238Y-28439404D01*
X152535476Y-28534642D01*
X152725952Y-28582261D01*
X153059285Y-28582261D01*
X153249761Y-28534642D01*
X153345000Y-28439404D01*
X153392619Y-28344166D01*
X153392619Y-28153690D01*
X153345000Y-28058452D01*
X153249761Y-27963214D01*
X153059285Y-27915595D01*
X152725952Y-27915595D01*
X152535476Y-27963214D01*
X152440238Y-28058452D01*
X152392619Y-28153690D01*
X152392619Y-28344166D01*
X153392619Y-27629880D02*
X153392619Y-27058452D01*
X152392619Y-27344166D02*
X153392619Y-27344166D01*
X152392619Y-25963214D02*
X153392619Y-25963214D01*
X153392619Y-25582261D01*
X153345000Y-25487023D01*
X153297380Y-25439404D01*
X153202142Y-25391785D01*
X153059285Y-25391785D01*
X152964047Y-25439404D01*
X152916428Y-25487023D01*
X152868809Y-25582261D01*
X152868809Y-25963214D01*
X153059285Y-25058452D02*
X152392619Y-24820357D01*
X153059285Y-24582261D02*
X152392619Y-24820357D01*
X152154523Y-24915595D01*
X152106904Y-24963214D01*
X152059285Y-25058452D01*
X150313095Y-16622619D02*
X150313095Y-17146428D01*
X150265476Y-17241666D01*
X150170238Y-17289285D01*
X149979761Y-17289285D01*
X149884523Y-17241666D01*
X150313095Y-16670238D02*
X150217857Y-16622619D01*
X149979761Y-16622619D01*
X149884523Y-16670238D01*
X149836904Y-16765476D01*
X149836904Y-16860714D01*
X149884523Y-16955952D01*
X149979761Y-17003571D01*
X150217857Y-17003571D01*
X150313095Y-17051190D01*
X150979761Y-17622619D02*
X151075000Y-17622619D01*
X151170238Y-17575000D01*
X151217857Y-17527380D01*
X151265476Y-17432142D01*
X151313095Y-17241666D01*
X151313095Y-17003571D01*
X151265476Y-16813095D01*
X151217857Y-16717857D01*
X151170238Y-16670238D01*
X151075000Y-16622619D01*
X150979761Y-16622619D01*
X150884523Y-16670238D01*
X150836904Y-16717857D01*
X150789285Y-16813095D01*
X150741666Y-17003571D01*
X150741666Y-17241666D01*
X150789285Y-17432142D01*
X150836904Y-17527380D01*
X150884523Y-17575000D01*
X150979761Y-17622619D01*
X134845238Y-18845238D02*
X134940476Y-18797619D01*
X135130952Y-18797619D01*
X135226190Y-18845238D01*
X135273809Y-18940476D01*
X135273809Y-18988095D01*
X135226190Y-19083333D01*
X135130952Y-19130952D01*
X134988095Y-19130952D01*
X134892857Y-19178571D01*
X134845238Y-19273809D01*
X134845238Y-19321428D01*
X134892857Y-19416666D01*
X134988095Y-19464285D01*
X135130952Y-19464285D01*
X135226190Y-19416666D01*
X136130952Y-18845238D02*
X136035714Y-18797619D01*
X135845238Y-18797619D01*
X135750000Y-18845238D01*
X135702380Y-18892857D01*
X135654761Y-18988095D01*
X135654761Y-19273809D01*
X135702380Y-19369047D01*
X135750000Y-19416666D01*
X135845238Y-19464285D01*
X136035714Y-19464285D01*
X136130952Y-19416666D01*
X136702380Y-18797619D02*
X136607142Y-18845238D01*
X136559523Y-18940476D01*
X136559523Y-19797619D01*
X146940476Y-35260714D02*
X146940476Y-36070238D01*
X146988095Y-36165476D01*
X147035714Y-36213095D01*
X147130952Y-36260714D01*
X147273809Y-36260714D01*
X147369047Y-36213095D01*
X146940476Y-35879761D02*
X147035714Y-35927380D01*
X147226190Y-35927380D01*
X147321428Y-35879761D01*
X147369047Y-35832142D01*
X147416666Y-35736904D01*
X147416666Y-35451190D01*
X147369047Y-35355952D01*
X147321428Y-35308333D01*
X147226190Y-35260714D01*
X147035714Y-35260714D01*
X146940476Y-35308333D01*
X146464285Y-35260714D02*
X146464285Y-35927380D01*
X146464285Y-35355952D02*
X146416666Y-35308333D01*
X146321428Y-35260714D01*
X146178571Y-35260714D01*
X146083333Y-35308333D01*
X146035714Y-35403571D01*
X146035714Y-35927380D01*
X145130952Y-35927380D02*
X145130952Y-34927380D01*
X145130952Y-35879761D02*
X145226190Y-35927380D01*
X145416666Y-35927380D01*
X145511904Y-35879761D01*
X145559523Y-35832142D01*
X145607142Y-35736904D01*
X145607142Y-35451190D01*
X145559523Y-35355952D01*
X145511904Y-35308333D01*
X145416666Y-35260714D01*
X145226190Y-35260714D01*
X145130952Y-35308333D01*
X137380952Y-18845238D02*
X137476190Y-18797619D01*
X137666666Y-18797619D01*
X137761904Y-18845238D01*
X137809523Y-18940476D01*
X137809523Y-18988095D01*
X137761904Y-19083333D01*
X137666666Y-19130952D01*
X137523809Y-19130952D01*
X137428571Y-19178571D01*
X137380952Y-19273809D01*
X137380952Y-19321428D01*
X137428571Y-19416666D01*
X137523809Y-19464285D01*
X137666666Y-19464285D01*
X137761904Y-19416666D01*
X138666666Y-18797619D02*
X138666666Y-19797619D01*
X138666666Y-18845238D02*
X138571428Y-18797619D01*
X138380952Y-18797619D01*
X138285714Y-18845238D01*
X138238095Y-18892857D01*
X138190476Y-18988095D01*
X138190476Y-19273809D01*
X138238095Y-19369047D01*
X138285714Y-19416666D01*
X138380952Y-19464285D01*
X138571428Y-19464285D01*
X138666666Y-19416666D01*
X139571428Y-18797619D02*
X139571428Y-19321428D01*
X139523809Y-19416666D01*
X139428571Y-19464285D01*
X139238095Y-19464285D01*
X139142857Y-19416666D01*
X139571428Y-18845238D02*
X139476190Y-18797619D01*
X139238095Y-18797619D01*
X139142857Y-18845238D01*
X139095238Y-18940476D01*
X139095238Y-19035714D01*
X139142857Y-19130952D01*
X139238095Y-19178571D01*
X139476190Y-19178571D01*
X139571428Y-19226190D01*
X132654761Y-19464285D02*
X133035714Y-19464285D01*
X132797619Y-19797619D02*
X132797619Y-18940476D01*
X132845238Y-18845238D01*
X132940476Y-18797619D01*
X133035714Y-18797619D01*
X133273809Y-18797619D02*
X133797619Y-19464285D01*
X133273809Y-19464285D02*
X133797619Y-18797619D01*
X145988095Y-18797619D02*
X145988095Y-19321428D01*
X145940476Y-19416666D01*
X145845238Y-19464285D01*
X145654761Y-19464285D01*
X145559523Y-19416666D01*
X145988095Y-18845238D02*
X145892857Y-18797619D01*
X145654761Y-18797619D01*
X145559523Y-18845238D01*
X145511904Y-18940476D01*
X145511904Y-19035714D01*
X145559523Y-19130952D01*
X145654761Y-19178571D01*
X145892857Y-19178571D01*
X145988095Y-19226190D01*
X146988095Y-18797619D02*
X146416666Y-18797619D01*
X146702380Y-18797619D02*
X146702380Y-19797619D01*
X146607142Y-19654761D01*
X146511904Y-19559523D01*
X146416666Y-19511904D01*
X141880952Y-36202380D02*
X141880952Y-35535714D01*
X141880952Y-35630952D02*
X141833333Y-35583333D01*
X141738095Y-35535714D01*
X141595238Y-35535714D01*
X141500000Y-35583333D01*
X141452380Y-35678571D01*
X141452380Y-36202380D01*
X141452380Y-35678571D02*
X141404761Y-35583333D01*
X141309523Y-35535714D01*
X141166666Y-35535714D01*
X141071428Y-35583333D01*
X141023809Y-35678571D01*
X141023809Y-36202380D01*
X140404761Y-36202380D02*
X140500000Y-36154761D01*
X140547619Y-36107142D01*
X140595238Y-36011904D01*
X140595238Y-35726190D01*
X140547619Y-35630952D01*
X140500000Y-35583333D01*
X140404761Y-35535714D01*
X140261904Y-35535714D01*
X140166666Y-35583333D01*
X140119047Y-35630952D01*
X140071428Y-35726190D01*
X140071428Y-36011904D01*
X140119047Y-36107142D01*
X140166666Y-36154761D01*
X140261904Y-36202380D01*
X140404761Y-36202380D01*
%TO.C,U6*%
X136552380Y-27913095D02*
X137361904Y-27913095D01*
X137457142Y-27960714D01*
X137504761Y-28008333D01*
X137552380Y-28103571D01*
X137552380Y-28294047D01*
X137504761Y-28389285D01*
X137457142Y-28436904D01*
X137361904Y-28484523D01*
X136552380Y-28484523D01*
X136552380Y-29389285D02*
X136552380Y-29198809D01*
X136600000Y-29103571D01*
X136647619Y-29055952D01*
X136790476Y-28960714D01*
X136980952Y-28913095D01*
X137361904Y-28913095D01*
X137457142Y-28960714D01*
X137504761Y-29008333D01*
X137552380Y-29103571D01*
X137552380Y-29294047D01*
X137504761Y-29389285D01*
X137457142Y-29436904D01*
X137361904Y-29484523D01*
X137123809Y-29484523D01*
X137028571Y-29436904D01*
X136980952Y-29389285D01*
X136933333Y-29294047D01*
X136933333Y-29103571D01*
X136980952Y-29008333D01*
X137028571Y-28960714D01*
X137123809Y-28913095D01*
D13*
%TO.C,REF\u002A\u002A*%
X145991337Y-25645167D02*
X145953150Y-25642952D01*
X145953150Y-25642952D02*
X145895114Y-25641216D01*
X145895114Y-25641216D02*
X145821820Y-25640101D01*
X145821820Y-25640101D02*
X145744945Y-25639743D01*
X145744945Y-25639743D02*
X145484804Y-25639743D01*
X145484804Y-25639743D02*
X145438873Y-25685674D01*
X145438873Y-25685674D02*
X145410571Y-25717325D01*
X145410571Y-25717325D02*
X145399107Y-25745110D01*
X145399107Y-25745110D02*
X145399832Y-25783085D01*
X145399832Y-25783085D02*
X145401679Y-25798160D01*
X145401679Y-25798160D02*
X145407052Y-25845274D01*
X145407052Y-25845274D02*
X145410131Y-25884244D01*
X145410131Y-25884244D02*
X145410415Y-25893743D01*
X145410415Y-25893743D02*
X145408555Y-25925767D01*
X145408555Y-25925767D02*
X145403886Y-25971568D01*
X145403886Y-25971568D02*
X145401679Y-25989326D01*
X145401679Y-25989326D02*
X145398265Y-26032943D01*
X145398265Y-26032943D02*
X145405680Y-26062255D01*
X145405680Y-26062255D02*
X145428573Y-26091320D01*
X145428573Y-26091320D02*
X145438873Y-26101812D01*
X145438873Y-26101812D02*
X145484804Y-26147743D01*
X145484804Y-26147743D02*
X145971398Y-26147743D01*
X145971398Y-26147743D02*
X145988242Y-26110774D01*
X145988242Y-26110774D02*
X146000718Y-26078941D01*
X146000718Y-26078941D02*
X146005086Y-26060317D01*
X146005086Y-26060317D02*
X145991282Y-26055542D01*
X145991282Y-26055542D02*
X145952714Y-26051079D01*
X145952714Y-26051079D02*
X145893644Y-26047225D01*
X145893644Y-26047225D02*
X145818337Y-26044278D01*
X145818337Y-26044278D02*
X145754714Y-26042857D01*
X145754714Y-26042857D02*
X145504343Y-26038886D01*
X145504343Y-26038886D02*
X145499444Y-26004241D01*
X145499444Y-26004241D02*
X145502869Y-25972732D01*
X145502869Y-25972732D02*
X145513959Y-25957292D01*
X145513959Y-25957292D02*
X145534692Y-25952977D01*
X145534692Y-25952977D02*
X145578855Y-25949292D01*
X145578855Y-25949292D02*
X145640854Y-25946531D01*
X145640854Y-25946531D02*
X145715091Y-25944988D01*
X145715091Y-25944988D02*
X145753294Y-25944765D01*
X145753294Y-25944765D02*
X145973217Y-25944543D01*
X145973217Y-25944543D02*
X145989151Y-25898834D01*
X145989151Y-25898834D02*
X145999985Y-25866482D01*
X145999985Y-25866482D02*
X146005038Y-25848885D01*
X146005038Y-25848885D02*
X146005086Y-25848377D01*
X146005086Y-25848377D02*
X145991352Y-25846612D01*
X145991352Y-25846612D02*
X145953270Y-25844671D01*
X145953270Y-25844671D02*
X145895518Y-25842718D01*
X145895518Y-25842718D02*
X145822773Y-25840916D01*
X145822773Y-25840916D02*
X145754714Y-25839657D01*
X145754714Y-25839657D02*
X145504343Y-25835686D01*
X145504343Y-25835686D02*
X145504343Y-25748600D01*
X145504343Y-25748600D02*
X145732760Y-25744604D01*
X145732760Y-25744604D02*
X145961178Y-25740608D01*
X145961178Y-25740608D02*
X145983132Y-25698153D01*
X145983132Y-25698153D02*
X145998207Y-25666808D01*
X145998207Y-25666808D02*
X146005049Y-25648256D01*
X146005049Y-25648256D02*
X146005086Y-25647721D01*
X146005086Y-25647721D02*
X145991337Y-25645167D01*
X145991337Y-25645167D02*
X145991337Y-25645167D01*
G36*
X145821820Y-25640101D02*
G01*
X145895114Y-25641216D01*
X145953150Y-25642952D01*
X145991337Y-25645167D01*
X146005086Y-25647721D01*
X146005049Y-25648256D01*
X145998207Y-25666808D01*
X145983132Y-25698153D01*
X145961178Y-25740608D01*
X145732760Y-25744604D01*
X145504343Y-25748600D01*
X145504343Y-25835686D01*
X145754714Y-25839657D01*
X145822773Y-25840916D01*
X145895518Y-25842718D01*
X145953270Y-25844671D01*
X145991352Y-25846612D01*
X146005086Y-25848377D01*
X146005038Y-25848885D01*
X145999985Y-25866482D01*
X145989151Y-25898834D01*
X145973217Y-25944543D01*
X145753294Y-25944765D01*
X145715091Y-25944988D01*
X145640854Y-25946531D01*
X145578855Y-25949292D01*
X145534692Y-25952977D01*
X145513959Y-25957292D01*
X145502869Y-25972732D01*
X145499444Y-26004241D01*
X145504343Y-26038886D01*
X145754714Y-26042857D01*
X145818337Y-26044278D01*
X145893644Y-26047225D01*
X145952714Y-26051079D01*
X145991282Y-26055542D01*
X146005086Y-26060317D01*
X146000718Y-26078941D01*
X145988242Y-26110774D01*
X145971398Y-26147743D01*
X145484804Y-26147743D01*
X145438873Y-26101812D01*
X145428573Y-26091320D01*
X145405680Y-26062255D01*
X145398265Y-26032943D01*
X145401679Y-25989326D01*
X145403886Y-25971568D01*
X145408555Y-25925767D01*
X145410415Y-25893743D01*
X145410131Y-25884244D01*
X145407052Y-25845274D01*
X145401679Y-25798160D01*
X145399832Y-25783085D01*
X145399107Y-25745110D01*
X145410571Y-25717325D01*
X145438873Y-25685674D01*
X145484804Y-25639743D01*
X145744945Y-25639743D01*
X145821820Y-25640101D01*
G37*
X145821820Y-25640101D02*
X145895114Y-25641216D01*
X145953150Y-25642952D01*
X145991337Y-25645167D01*
X146005086Y-25647721D01*
X146005049Y-25648256D01*
X145998207Y-25666808D01*
X145983132Y-25698153D01*
X145961178Y-25740608D01*
X145732760Y-25744604D01*
X145504343Y-25748600D01*
X145504343Y-25835686D01*
X145754714Y-25839657D01*
X145822773Y-25840916D01*
X145895518Y-25842718D01*
X145953270Y-25844671D01*
X145991352Y-25846612D01*
X146005086Y-25848377D01*
X146005038Y-25848885D01*
X145999985Y-25866482D01*
X145989151Y-25898834D01*
X145973217Y-25944543D01*
X145753294Y-25944765D01*
X145715091Y-25944988D01*
X145640854Y-25946531D01*
X145578855Y-25949292D01*
X145534692Y-25952977D01*
X145513959Y-25957292D01*
X145502869Y-25972732D01*
X145499444Y-26004241D01*
X145504343Y-26038886D01*
X145754714Y-26042857D01*
X145818337Y-26044278D01*
X145893644Y-26047225D01*
X145952714Y-26051079D01*
X145991282Y-26055542D01*
X146005086Y-26060317D01*
X146000718Y-26078941D01*
X145988242Y-26110774D01*
X145971398Y-26147743D01*
X145484804Y-26147743D01*
X145438873Y-26101812D01*
X145428573Y-26091320D01*
X145405680Y-26062255D01*
X145398265Y-26032943D01*
X145401679Y-25989326D01*
X145403886Y-25971568D01*
X145408555Y-25925767D01*
X145410415Y-25893743D01*
X145410131Y-25884244D01*
X145407052Y-25845274D01*
X145401679Y-25798160D01*
X145399832Y-25783085D01*
X145399107Y-25745110D01*
X145410571Y-25717325D01*
X145438873Y-25685674D01*
X145484804Y-25639743D01*
X145744945Y-25639743D01*
X145821820Y-25640101D01*
X146028038Y-30383885D02*
X145992267Y-30315855D01*
X145992267Y-30315855D02*
X145934699Y-30265649D01*
X145934699Y-30265649D02*
X145897688Y-30247815D01*
X145897688Y-30247815D02*
X145842118Y-30233937D01*
X145842118Y-30233937D02*
X145771904Y-30226833D01*
X145771904Y-30226833D02*
X145695273Y-30226160D01*
X145695273Y-30226160D02*
X145620448Y-30231573D01*
X145620448Y-30231573D02*
X145555658Y-30242730D01*
X145555658Y-30242730D02*
X145509127Y-30259286D01*
X145509127Y-30259286D02*
X145501113Y-30264374D01*
X145501113Y-30264374D02*
X145441293Y-30324645D01*
X145441293Y-30324645D02*
X145405465Y-30396231D01*
X145405465Y-30396231D02*
X145394980Y-30473908D01*
X145394980Y-30473908D02*
X145411190Y-30552452D01*
X145411190Y-30552452D02*
X145420908Y-30574311D01*
X145420908Y-30574311D02*
X145450857Y-30616878D01*
X145450857Y-30616878D02*
X145490567Y-30654237D01*
X145490567Y-30654237D02*
X145495603Y-30657768D01*
X145495603Y-30657768D02*
X145519876Y-30672119D01*
X145519876Y-30672119D02*
X145545822Y-30681606D01*
X145545822Y-30681606D02*
X145579978Y-30687210D01*
X145579978Y-30687210D02*
X145628881Y-30689914D01*
X145628881Y-30689914D02*
X145699065Y-30690701D01*
X145699065Y-30690701D02*
X145714800Y-30690714D01*
X145714800Y-30690714D02*
X145719808Y-30690678D01*
X145719808Y-30690678D02*
X145719808Y-30545571D01*
X145719808Y-30545571D02*
X145653570Y-30544727D01*
X145653570Y-30544727D02*
X145609614Y-30541404D01*
X145609614Y-30541404D02*
X145581221Y-30534417D01*
X145581221Y-30534417D02*
X145561675Y-30522584D01*
X145561675Y-30522584D02*
X145555143Y-30516543D01*
X145555143Y-30516543D02*
X145530320Y-30481814D01*
X145530320Y-30481814D02*
X145531452Y-30448097D01*
X145531452Y-30448097D02*
X145552984Y-30414005D01*
X145552984Y-30414005D02*
X145575971Y-30393671D01*
X145575971Y-30393671D02*
X145609522Y-30381629D01*
X145609522Y-30381629D02*
X145662431Y-30374866D01*
X145662431Y-30374866D02*
X145668601Y-30374402D01*
X145668601Y-30374402D02*
X145764487Y-30373248D01*
X145764487Y-30373248D02*
X145835701Y-30385312D01*
X145835701Y-30385312D02*
X145881806Y-30410430D01*
X145881806Y-30410430D02*
X145902365Y-30448440D01*
X145902365Y-30448440D02*
X145903486Y-30462008D01*
X145903486Y-30462008D02*
X145897848Y-30497636D01*
X145897848Y-30497636D02*
X145878314Y-30522006D01*
X145878314Y-30522006D02*
X145840958Y-30536907D01*
X145840958Y-30536907D02*
X145781850Y-30544125D01*
X145781850Y-30544125D02*
X145719808Y-30545571D01*
X145719808Y-30545571D02*
X145719808Y-30690678D01*
X145719808Y-30690678D02*
X145789587Y-30690174D01*
X145789587Y-30690174D02*
X145841841Y-30687904D01*
X145841841Y-30687904D02*
X145878051Y-30682932D01*
X145878051Y-30682932D02*
X145904701Y-30674287D01*
X145904701Y-30674287D02*
X145928278Y-30660995D01*
X145928278Y-30660995D02*
X145932662Y-30658057D01*
X145932662Y-30658057D02*
X145991751Y-30608687D01*
X145991751Y-30608687D02*
X146026053Y-30554891D01*
X146026053Y-30554891D02*
X146039669Y-30489398D01*
X146039669Y-30489398D02*
X146040335Y-30467158D01*
X146040335Y-30467158D02*
X146028038Y-30383885D01*
X146028038Y-30383885D02*
X146028038Y-30383885D01*
G36*
X145714800Y-30690714D02*
G01*
X145699065Y-30690701D01*
X145628881Y-30689914D01*
X145579978Y-30687210D01*
X145545822Y-30681606D01*
X145519876Y-30672119D01*
X145495603Y-30657768D01*
X145490567Y-30654237D01*
X145450857Y-30616878D01*
X145420908Y-30574311D01*
X145411190Y-30552452D01*
X145396612Y-30481814D01*
X145530320Y-30481814D01*
X145555143Y-30516543D01*
X145561675Y-30522584D01*
X145581221Y-30534417D01*
X145609614Y-30541404D01*
X145653570Y-30544727D01*
X145719808Y-30545571D01*
X145781850Y-30544125D01*
X145840958Y-30536907D01*
X145878314Y-30522006D01*
X145897848Y-30497636D01*
X145903486Y-30462008D01*
X145902365Y-30448440D01*
X145881806Y-30410430D01*
X145835701Y-30385312D01*
X145764487Y-30373248D01*
X145668601Y-30374402D01*
X145662431Y-30374866D01*
X145609522Y-30381629D01*
X145575971Y-30393671D01*
X145552984Y-30414005D01*
X145531452Y-30448097D01*
X145530320Y-30481814D01*
X145396612Y-30481814D01*
X145394980Y-30473908D01*
X145405465Y-30396231D01*
X145441293Y-30324645D01*
X145501113Y-30264374D01*
X145509127Y-30259286D01*
X145555658Y-30242730D01*
X145620448Y-30231573D01*
X145695273Y-30226160D01*
X145771904Y-30226833D01*
X145842118Y-30233937D01*
X145897688Y-30247815D01*
X145934699Y-30265649D01*
X145992267Y-30315855D01*
X146028038Y-30383885D01*
X146040335Y-30467158D01*
X146039669Y-30489398D01*
X146026053Y-30554891D01*
X145991751Y-30608687D01*
X145932662Y-30658057D01*
X145928278Y-30660995D01*
X145904701Y-30674287D01*
X145878051Y-30682932D01*
X145841841Y-30687904D01*
X145789587Y-30690174D01*
X145719808Y-30690678D01*
X145714800Y-30690714D01*
G37*
X145714800Y-30690714D02*
X145699065Y-30690701D01*
X145628881Y-30689914D01*
X145579978Y-30687210D01*
X145545822Y-30681606D01*
X145519876Y-30672119D01*
X145495603Y-30657768D01*
X145490567Y-30654237D01*
X145450857Y-30616878D01*
X145420908Y-30574311D01*
X145411190Y-30552452D01*
X145396612Y-30481814D01*
X145530320Y-30481814D01*
X145555143Y-30516543D01*
X145561675Y-30522584D01*
X145581221Y-30534417D01*
X145609614Y-30541404D01*
X145653570Y-30544727D01*
X145719808Y-30545571D01*
X145781850Y-30544125D01*
X145840958Y-30536907D01*
X145878314Y-30522006D01*
X145897848Y-30497636D01*
X145903486Y-30462008D01*
X145902365Y-30448440D01*
X145881806Y-30410430D01*
X145835701Y-30385312D01*
X145764487Y-30373248D01*
X145668601Y-30374402D01*
X145662431Y-30374866D01*
X145609522Y-30381629D01*
X145575971Y-30393671D01*
X145552984Y-30414005D01*
X145531452Y-30448097D01*
X145530320Y-30481814D01*
X145396612Y-30481814D01*
X145394980Y-30473908D01*
X145405465Y-30396231D01*
X145441293Y-30324645D01*
X145501113Y-30264374D01*
X145509127Y-30259286D01*
X145555658Y-30242730D01*
X145620448Y-30231573D01*
X145695273Y-30226160D01*
X145771904Y-30226833D01*
X145842118Y-30233937D01*
X145897688Y-30247815D01*
X145934699Y-30265649D01*
X145992267Y-30315855D01*
X146028038Y-30383885D01*
X146040335Y-30467158D01*
X146039669Y-30489398D01*
X146026053Y-30554891D01*
X145991751Y-30608687D01*
X145932662Y-30658057D01*
X145928278Y-30660995D01*
X145904701Y-30674287D01*
X145878051Y-30682932D01*
X145841841Y-30687904D01*
X145789587Y-30690174D01*
X145719808Y-30690678D01*
X145714800Y-30690714D01*
X145983034Y-24271405D02*
X145945503Y-24213979D01*
X145945503Y-24213979D02*
X145911904Y-24186281D01*
X145911904Y-24186281D02*
X145850936Y-24164338D01*
X145850936Y-24164338D02*
X145802692Y-24162595D01*
X145802692Y-24162595D02*
X145738184Y-24166543D01*
X145738184Y-24166543D02*
X145673066Y-24315314D01*
X145673066Y-24315314D02*
X145639798Y-24387651D01*
X145639798Y-24387651D02*
X145613036Y-24434916D01*
X145613036Y-24434916D02*
X145589856Y-24459493D01*
X145589856Y-24459493D02*
X145567333Y-24463763D01*
X145567333Y-24463763D02*
X145542545Y-24450111D01*
X145542545Y-24450111D02*
X145526114Y-24435057D01*
X145526114Y-24435057D02*
X145499765Y-24391254D01*
X145499765Y-24391254D02*
X145497919Y-24343611D01*
X145497919Y-24343611D02*
X145518454Y-24299855D01*
X145518454Y-24299855D02*
X145559248Y-24267711D01*
X145559248Y-24267711D02*
X145573653Y-24261962D01*
X145573653Y-24261962D02*
X145618644Y-24234424D01*
X145618644Y-24234424D02*
X145637818Y-24202742D01*
X145637818Y-24202742D02*
X145654221Y-24159286D01*
X145654221Y-24159286D02*
X145592034Y-24159286D01*
X145592034Y-24159286D02*
X145549717Y-24163128D01*
X145549717Y-24163128D02*
X145514031Y-24178177D01*
X145514031Y-24178177D02*
X145473057Y-24209720D01*
X145473057Y-24209720D02*
X145467733Y-24214408D01*
X145467733Y-24214408D02*
X145431280Y-24249494D01*
X145431280Y-24249494D02*
X145411717Y-24279653D01*
X145411717Y-24279653D02*
X145402717Y-24317385D01*
X145402717Y-24317385D02*
X145399770Y-24348665D01*
X145399770Y-24348665D02*
X145399035Y-24404615D01*
X145399035Y-24404615D02*
X145408340Y-24444445D01*
X145408340Y-24444445D02*
X145422154Y-24469292D01*
X145422154Y-24469292D02*
X145452533Y-24508344D01*
X145452533Y-24508344D02*
X145485387Y-24535375D01*
X145485387Y-24535375D02*
X145526706Y-24552483D01*
X145526706Y-24552483D02*
X145582479Y-24561762D01*
X145582479Y-24561762D02*
X145658695Y-24565307D01*
X145658695Y-24565307D02*
X145697378Y-24565590D01*
X145697378Y-24565590D02*
X145743753Y-24564628D01*
X145743753Y-24564628D02*
X145743753Y-24476993D01*
X145743753Y-24476993D02*
X145718874Y-24475977D01*
X145718874Y-24475977D02*
X145714800Y-24473444D01*
X145714800Y-24473444D02*
X145720335Y-24456726D01*
X145720335Y-24456726D02*
X145734983Y-24420751D01*
X145734983Y-24420751D02*
X145755810Y-24372669D01*
X145755810Y-24372669D02*
X145760286Y-24362614D01*
X145760286Y-24362614D02*
X145791186Y-24301848D01*
X145791186Y-24301848D02*
X145818343Y-24268368D01*
X145818343Y-24268368D02*
X145843780Y-24261010D01*
X145843780Y-24261010D02*
X145869519Y-24278609D01*
X145869519Y-24278609D02*
X145880891Y-24293144D01*
X145880891Y-24293144D02*
X145903636Y-24345590D01*
X145903636Y-24345590D02*
X145899878Y-24394678D01*
X145899878Y-24394678D02*
X145872116Y-24435773D01*
X145872116Y-24435773D02*
X145822848Y-24464242D01*
X145822848Y-24464242D02*
X145783743Y-24473369D01*
X145783743Y-24473369D02*
X145743753Y-24476993D01*
X145743753Y-24476993D02*
X145743753Y-24564628D01*
X145743753Y-24564628D02*
X145787751Y-24563715D01*
X145787751Y-24563715D02*
X145854616Y-24556804D01*
X145854616Y-24556804D02*
X145903305Y-24543116D01*
X145903305Y-24543116D02*
X145939151Y-24520904D01*
X145939151Y-24520904D02*
X145967487Y-24488426D01*
X145967487Y-24488426D02*
X145976645Y-24474267D01*
X145976645Y-24474267D02*
X146000493Y-24409947D01*
X146000493Y-24409947D02*
X146001994Y-24339527D01*
X146001994Y-24339527D02*
X145983034Y-24271405D01*
X145983034Y-24271405D02*
X145983034Y-24271405D01*
G36*
X145697378Y-24565590D02*
G01*
X145658695Y-24565307D01*
X145582479Y-24561762D01*
X145526706Y-24552483D01*
X145485387Y-24535375D01*
X145452533Y-24508344D01*
X145425384Y-24473444D01*
X145714800Y-24473444D01*
X145718874Y-24475977D01*
X145743753Y-24476993D01*
X145783743Y-24473369D01*
X145822848Y-24464242D01*
X145872116Y-24435773D01*
X145899878Y-24394678D01*
X145903636Y-24345590D01*
X145880891Y-24293144D01*
X145869519Y-24278609D01*
X145843780Y-24261010D01*
X145818343Y-24268368D01*
X145791186Y-24301848D01*
X145760286Y-24362614D01*
X145755810Y-24372669D01*
X145734983Y-24420751D01*
X145720335Y-24456726D01*
X145714800Y-24473444D01*
X145425384Y-24473444D01*
X145422154Y-24469292D01*
X145408340Y-24444445D01*
X145399035Y-24404615D01*
X145399770Y-24348665D01*
X145402717Y-24317385D01*
X145411717Y-24279653D01*
X145431280Y-24249494D01*
X145467733Y-24214408D01*
X145473057Y-24209720D01*
X145514031Y-24178177D01*
X145549717Y-24163128D01*
X145592034Y-24159286D01*
X145654221Y-24159286D01*
X145637818Y-24202742D01*
X145618644Y-24234424D01*
X145573653Y-24261962D01*
X145559248Y-24267711D01*
X145518454Y-24299855D01*
X145497919Y-24343611D01*
X145499765Y-24391254D01*
X145526114Y-24435057D01*
X145542545Y-24450111D01*
X145567333Y-24463763D01*
X145589856Y-24459493D01*
X145613036Y-24434916D01*
X145639798Y-24387651D01*
X145673066Y-24315314D01*
X145738184Y-24166543D01*
X145802692Y-24162595D01*
X145850936Y-24164338D01*
X145911904Y-24186281D01*
X145945503Y-24213979D01*
X145983034Y-24271405D01*
X146001994Y-24339527D01*
X146000493Y-24409947D01*
X145976645Y-24474267D01*
X145967487Y-24488426D01*
X145939151Y-24520904D01*
X145903305Y-24543116D01*
X145854616Y-24556804D01*
X145787751Y-24563715D01*
X145743753Y-24564628D01*
X145697378Y-24565590D01*
G37*
X145697378Y-24565590D02*
X145658695Y-24565307D01*
X145582479Y-24561762D01*
X145526706Y-24552483D01*
X145485387Y-24535375D01*
X145452533Y-24508344D01*
X145425384Y-24473444D01*
X145714800Y-24473444D01*
X145718874Y-24475977D01*
X145743753Y-24476993D01*
X145783743Y-24473369D01*
X145822848Y-24464242D01*
X145872116Y-24435773D01*
X145899878Y-24394678D01*
X145903636Y-24345590D01*
X145880891Y-24293144D01*
X145869519Y-24278609D01*
X145843780Y-24261010D01*
X145818343Y-24268368D01*
X145791186Y-24301848D01*
X145760286Y-24362614D01*
X145755810Y-24372669D01*
X145734983Y-24420751D01*
X145720335Y-24456726D01*
X145714800Y-24473444D01*
X145425384Y-24473444D01*
X145422154Y-24469292D01*
X145408340Y-24444445D01*
X145399035Y-24404615D01*
X145399770Y-24348665D01*
X145402717Y-24317385D01*
X145411717Y-24279653D01*
X145431280Y-24249494D01*
X145467733Y-24214408D01*
X145473057Y-24209720D01*
X145514031Y-24178177D01*
X145549717Y-24163128D01*
X145592034Y-24159286D01*
X145654221Y-24159286D01*
X145637818Y-24202742D01*
X145618644Y-24234424D01*
X145573653Y-24261962D01*
X145559248Y-24267711D01*
X145518454Y-24299855D01*
X145497919Y-24343611D01*
X145499765Y-24391254D01*
X145526114Y-24435057D01*
X145542545Y-24450111D01*
X145567333Y-24463763D01*
X145589856Y-24459493D01*
X145613036Y-24434916D01*
X145639798Y-24387651D01*
X145673066Y-24315314D01*
X145738184Y-24166543D01*
X145802692Y-24162595D01*
X145850936Y-24164338D01*
X145911904Y-24186281D01*
X145945503Y-24213979D01*
X145983034Y-24271405D01*
X146001994Y-24339527D01*
X146000493Y-24409947D01*
X145976645Y-24474267D01*
X145967487Y-24488426D01*
X145939151Y-24520904D01*
X145903305Y-24543116D01*
X145854616Y-24556804D01*
X145787751Y-24563715D01*
X145743753Y-24564628D01*
X145697378Y-24565590D01*
X146022220Y-28708907D02*
X145995277Y-28662328D01*
X145995277Y-28662328D02*
X145968534Y-28629943D01*
X145968534Y-28629943D02*
X145940516Y-28606258D01*
X145940516Y-28606258D02*
X145906252Y-28589941D01*
X145906252Y-28589941D02*
X145860773Y-28579661D01*
X145860773Y-28579661D02*
X145799108Y-28574086D01*
X145799108Y-28574086D02*
X145716289Y-28571884D01*
X145716289Y-28571884D02*
X145656754Y-28571629D01*
X145656754Y-28571629D02*
X145437609Y-28571629D01*
X145437609Y-28571629D02*
X145409956Y-28633314D01*
X145409956Y-28633314D02*
X145382303Y-28695000D01*
X145382303Y-28695000D02*
X145622330Y-28702257D01*
X145622330Y-28702257D02*
X145711972Y-28705256D01*
X145711972Y-28705256D02*
X145777038Y-28708402D01*
X145777038Y-28708402D02*
X145821974Y-28712299D01*
X145821974Y-28712299D02*
X145851230Y-28717553D01*
X145851230Y-28717553D02*
X145869252Y-28724769D01*
X145869252Y-28724769D02*
X145880489Y-28734550D01*
X145880489Y-28734550D02*
X145882921Y-28737688D01*
X145882921Y-28737688D02*
X145901917Y-28785239D01*
X145901917Y-28785239D02*
X145894400Y-28833303D01*
X145894400Y-28833303D02*
X145874457Y-28861914D01*
X145874457Y-28861914D02*
X145860325Y-28873553D01*
X145860325Y-28873553D02*
X145841780Y-28881609D01*
X145841780Y-28881609D02*
X145813666Y-28886729D01*
X145813666Y-28886729D02*
X145770827Y-28889559D01*
X145770827Y-28889559D02*
X145708105Y-28890744D01*
X145708105Y-28890744D02*
X145642739Y-28890943D01*
X145642739Y-28890943D02*
X145560732Y-28890982D01*
X145560732Y-28890982D02*
X145502684Y-28892386D01*
X145502684Y-28892386D02*
X145463535Y-28897086D01*
X145463535Y-28897086D02*
X145438220Y-28907013D01*
X145438220Y-28907013D02*
X145421677Y-28924097D01*
X145421677Y-28924097D02*
X145408844Y-28950268D01*
X145408844Y-28950268D02*
X145395509Y-28985225D01*
X145395509Y-28985225D02*
X145380993Y-29023404D01*
X145380993Y-29023404D02*
X145638611Y-29018859D01*
X145638611Y-29018859D02*
X145731481Y-29017029D01*
X145731481Y-29017029D02*
X145800111Y-29014888D01*
X145800111Y-29014888D02*
X145849289Y-29011819D01*
X145849289Y-29011819D02*
X145883802Y-29007206D01*
X145883802Y-29007206D02*
X145908438Y-29000432D01*
X145908438Y-29000432D02*
X145927984Y-28990881D01*
X145927984Y-28990881D02*
X145945230Y-28979366D01*
X145945230Y-28979366D02*
X146000320Y-28923810D01*
X146000320Y-28923810D02*
X146032178Y-28856020D01*
X146032178Y-28856020D02*
X146039809Y-28782287D01*
X146039809Y-28782287D02*
X146022220Y-28708907D01*
X146022220Y-28708907D02*
X146022220Y-28708907D01*
G36*
X145716289Y-28571884D02*
G01*
X145799108Y-28574086D01*
X145860773Y-28579661D01*
X145906252Y-28589941D01*
X145940516Y-28606258D01*
X145968534Y-28629943D01*
X145995277Y-28662328D01*
X146022220Y-28708907D01*
X146039809Y-28782287D01*
X146032178Y-28856020D01*
X146000320Y-28923810D01*
X145945230Y-28979366D01*
X145927984Y-28990881D01*
X145908438Y-29000432D01*
X145883802Y-29007206D01*
X145849289Y-29011819D01*
X145800111Y-29014888D01*
X145731481Y-29017029D01*
X145638611Y-29018859D01*
X145380993Y-29023404D01*
X145395509Y-28985225D01*
X145408844Y-28950268D01*
X145421677Y-28924097D01*
X145438220Y-28907013D01*
X145463535Y-28897086D01*
X145502684Y-28892386D01*
X145560732Y-28890982D01*
X145642739Y-28890943D01*
X145708105Y-28890744D01*
X145770827Y-28889559D01*
X145813666Y-28886729D01*
X145841780Y-28881609D01*
X145860325Y-28873553D01*
X145874457Y-28861914D01*
X145894400Y-28833303D01*
X145901917Y-28785239D01*
X145882921Y-28737688D01*
X145880489Y-28734550D01*
X145869252Y-28724769D01*
X145851230Y-28717553D01*
X145821974Y-28712299D01*
X145777038Y-28708402D01*
X145711972Y-28705256D01*
X145622330Y-28702257D01*
X145382303Y-28695000D01*
X145409956Y-28633314D01*
X145437609Y-28571629D01*
X145656754Y-28571629D01*
X145716289Y-28571884D01*
G37*
X145716289Y-28571884D02*
X145799108Y-28574086D01*
X145860773Y-28579661D01*
X145906252Y-28589941D01*
X145940516Y-28606258D01*
X145968534Y-28629943D01*
X145995277Y-28662328D01*
X146022220Y-28708907D01*
X146039809Y-28782287D01*
X146032178Y-28856020D01*
X146000320Y-28923810D01*
X145945230Y-28979366D01*
X145927984Y-28990881D01*
X145908438Y-29000432D01*
X145883802Y-29007206D01*
X145849289Y-29011819D01*
X145800111Y-29014888D01*
X145731481Y-29017029D01*
X145638611Y-29018859D01*
X145380993Y-29023404D01*
X145395509Y-28985225D01*
X145408844Y-28950268D01*
X145421677Y-28924097D01*
X145438220Y-28907013D01*
X145463535Y-28897086D01*
X145502684Y-28892386D01*
X145560732Y-28890982D01*
X145642739Y-28890943D01*
X145708105Y-28890744D01*
X145770827Y-28889559D01*
X145813666Y-28886729D01*
X145841780Y-28881609D01*
X145860325Y-28873553D01*
X145874457Y-28861914D01*
X145894400Y-28833303D01*
X145901917Y-28785239D01*
X145882921Y-28737688D01*
X145880489Y-28734550D01*
X145869252Y-28724769D01*
X145851230Y-28717553D01*
X145821974Y-28712299D01*
X145777038Y-28708402D01*
X145711972Y-28705256D01*
X145622330Y-28702257D01*
X145382303Y-28695000D01*
X145409956Y-28633314D01*
X145437609Y-28571629D01*
X145656754Y-28571629D01*
X145716289Y-28571884D01*
X145991248Y-24772400D02*
X145983666Y-24755052D01*
X145983666Y-24755052D02*
X145950872Y-24713644D01*
X145950872Y-24713644D02*
X145903453Y-24678235D01*
X145903453Y-24678235D02*
X145852849Y-24656336D01*
X145852849Y-24656336D02*
X145827902Y-24652771D01*
X145827902Y-24652771D02*
X145793073Y-24664721D01*
X145793073Y-24664721D02*
X145774643Y-24690933D01*
X145774643Y-24690933D02*
X145763484Y-24719036D01*
X145763484Y-24719036D02*
X145761428Y-24731905D01*
X145761428Y-24731905D02*
X145776351Y-24738171D01*
X145776351Y-24738171D02*
X145808825Y-24750544D01*
X145808825Y-24750544D02*
X145823498Y-24755972D01*
X145823498Y-24755972D02*
X145874256Y-24786410D01*
X145874256Y-24786410D02*
X145899573Y-24830480D01*
X145899573Y-24830480D02*
X145898794Y-24886990D01*
X145898794Y-24886990D02*
X145897797Y-24891175D01*
X145897797Y-24891175D02*
X145883493Y-24921345D01*
X145883493Y-24921345D02*
X145855607Y-24943524D01*
X145855607Y-24943524D02*
X145810713Y-24958673D01*
X145810713Y-24958673D02*
X145745385Y-24967750D01*
X145745385Y-24967750D02*
X145656196Y-24971714D01*
X145656196Y-24971714D02*
X145608739Y-24972086D01*
X145608739Y-24972086D02*
X145533929Y-24972270D01*
X145533929Y-24972270D02*
X145482931Y-24973478D01*
X145482931Y-24973478D02*
X145450529Y-24976691D01*
X145450529Y-24976691D02*
X145431505Y-24982891D01*
X145431505Y-24982891D02*
X145420644Y-24993060D01*
X145420644Y-24993060D02*
X145412728Y-25008181D01*
X145412728Y-25008181D02*
X145412330Y-25009054D01*
X145412330Y-25009054D02*
X145400019Y-25038172D01*
X145400019Y-25038172D02*
X145395486Y-25052597D01*
X145395486Y-25052597D02*
X145409191Y-25054814D01*
X145409191Y-25054814D02*
X145447075Y-25056711D01*
X145447075Y-25056711D02*
X145504285Y-25058153D01*
X145504285Y-25058153D02*
X145575973Y-25059002D01*
X145575973Y-25059002D02*
X145628435Y-25059171D01*
X145628435Y-25059171D02*
X145729953Y-25058308D01*
X145729953Y-25058308D02*
X145806968Y-25054930D01*
X145806968Y-25054930D02*
X145863977Y-25047858D01*
X145863977Y-25047858D02*
X145905474Y-25035912D01*
X145905474Y-25035912D02*
X145935957Y-25017910D01*
X145935957Y-25017910D02*
X145959920Y-24992673D01*
X145959920Y-24992673D02*
X145976645Y-24967753D01*
X145976645Y-24967753D02*
X145998903Y-24907829D01*
X145998903Y-24907829D02*
X146003924Y-24838089D01*
X146003924Y-24838089D02*
X145991248Y-24772400D01*
X145991248Y-24772400D02*
X145991248Y-24772400D01*
G36*
X145852849Y-24656336D02*
G01*
X145903453Y-24678235D01*
X145950872Y-24713644D01*
X145983666Y-24755052D01*
X145991248Y-24772400D01*
X146003924Y-24838089D01*
X145998903Y-24907829D01*
X145976645Y-24967753D01*
X145959920Y-24992673D01*
X145935957Y-25017910D01*
X145905474Y-25035912D01*
X145863977Y-25047858D01*
X145806968Y-25054930D01*
X145729953Y-25058308D01*
X145628435Y-25059171D01*
X145575973Y-25059002D01*
X145504285Y-25058153D01*
X145447075Y-25056711D01*
X145409191Y-25054814D01*
X145395486Y-25052597D01*
X145400019Y-25038172D01*
X145412330Y-25009054D01*
X145412728Y-25008181D01*
X145420644Y-24993060D01*
X145431505Y-24982891D01*
X145450529Y-24976691D01*
X145482931Y-24973478D01*
X145533929Y-24972270D01*
X145608739Y-24972086D01*
X145656196Y-24971714D01*
X145745385Y-24967750D01*
X145810713Y-24958673D01*
X145855607Y-24943524D01*
X145883493Y-24921345D01*
X145897797Y-24891175D01*
X145898794Y-24886990D01*
X145899573Y-24830480D01*
X145874256Y-24786410D01*
X145823498Y-24755972D01*
X145808825Y-24750544D01*
X145776351Y-24738171D01*
X145761428Y-24731905D01*
X145763484Y-24719036D01*
X145774643Y-24690933D01*
X145793073Y-24664721D01*
X145827902Y-24652771D01*
X145852849Y-24656336D01*
G37*
X145852849Y-24656336D02*
X145903453Y-24678235D01*
X145950872Y-24713644D01*
X145983666Y-24755052D01*
X145991248Y-24772400D01*
X146003924Y-24838089D01*
X145998903Y-24907829D01*
X145976645Y-24967753D01*
X145959920Y-24992673D01*
X145935957Y-25017910D01*
X145905474Y-25035912D01*
X145863977Y-25047858D01*
X145806968Y-25054930D01*
X145729953Y-25058308D01*
X145628435Y-25059171D01*
X145575973Y-25059002D01*
X145504285Y-25058153D01*
X145447075Y-25056711D01*
X145409191Y-25054814D01*
X145395486Y-25052597D01*
X145400019Y-25038172D01*
X145412330Y-25009054D01*
X145412728Y-25008181D01*
X145420644Y-24993060D01*
X145431505Y-24982891D01*
X145450529Y-24976691D01*
X145482931Y-24973478D01*
X145533929Y-24972270D01*
X145608739Y-24972086D01*
X145656196Y-24971714D01*
X145745385Y-24967750D01*
X145810713Y-24958673D01*
X145855607Y-24943524D01*
X145883493Y-24921345D01*
X145897797Y-24891175D01*
X145898794Y-24886990D01*
X145899573Y-24830480D01*
X145874256Y-24786410D01*
X145823498Y-24755972D01*
X145808825Y-24750544D01*
X145776351Y-24738171D01*
X145761428Y-24731905D01*
X145763484Y-24719036D01*
X145774643Y-24690933D01*
X145793073Y-24664721D01*
X145827902Y-24652771D01*
X145852849Y-24656336D01*
X145884642Y-26234883D02*
X145776163Y-26235067D01*
X145776163Y-26235067D02*
X145692713Y-26235781D01*
X145692713Y-26235781D02*
X145630296Y-26237325D01*
X145630296Y-26237325D02*
X145584915Y-26239999D01*
X145584915Y-26239999D02*
X145552571Y-26244106D01*
X145552571Y-26244106D02*
X145529267Y-26249945D01*
X145529267Y-26249945D02*
X145511005Y-26257818D01*
X145511005Y-26257818D02*
X145500582Y-26263779D01*
X145500582Y-26263779D02*
X145444055Y-26313145D01*
X145444055Y-26313145D02*
X145408623Y-26375736D01*
X145408623Y-26375736D02*
X145395910Y-26444987D01*
X145395910Y-26444987D02*
X145407537Y-26514332D01*
X145407537Y-26514332D02*
X145428432Y-26555625D01*
X145428432Y-26555625D02*
X145464578Y-26598975D01*
X145464578Y-26598975D02*
X145508724Y-26628519D01*
X145508724Y-26628519D02*
X145566538Y-26646345D01*
X145566538Y-26646345D02*
X145643687Y-26654537D01*
X145643687Y-26654537D02*
X145700286Y-26655698D01*
X145700286Y-26655698D02*
X145704353Y-26655542D01*
X145704353Y-26655542D02*
X145704353Y-26554143D01*
X145704353Y-26554143D02*
X145639450Y-26553524D01*
X145639450Y-26553524D02*
X145596486Y-26550686D01*
X145596486Y-26550686D02*
X145568378Y-26544160D01*
X145568378Y-26544160D02*
X145548047Y-26532477D01*
X145548047Y-26532477D02*
X145532712Y-26518517D01*
X145532712Y-26518517D02*
X145503110Y-26471635D01*
X145503110Y-26471635D02*
X145500581Y-26421299D01*
X145500581Y-26421299D02*
X145525295Y-26373724D01*
X145525295Y-26373724D02*
X145528644Y-26370021D01*
X145528644Y-26370021D02*
X145546065Y-26354217D01*
X145546065Y-26354217D02*
X145566791Y-26344307D01*
X145566791Y-26344307D02*
X145597638Y-26338942D01*
X145597638Y-26338942D02*
X145645423Y-26336772D01*
X145645423Y-26336772D02*
X145698252Y-26336429D01*
X145698252Y-26336429D02*
X145764619Y-26337173D01*
X145764619Y-26337173D02*
X145808894Y-26340252D01*
X145808894Y-26340252D02*
X145837991Y-26346939D01*
X145837991Y-26346939D02*
X145858827Y-26358504D01*
X145858827Y-26358504D02*
X145869893Y-26367987D01*
X145869893Y-26367987D02*
X145897802Y-26412040D01*
X145897802Y-26412040D02*
X145901157Y-26462776D01*
X145901157Y-26462776D02*
X145879841Y-26511204D01*
X145879841Y-26511204D02*
X145871927Y-26520550D01*
X145871927Y-26520550D02*
X145854353Y-26536460D01*
X145854353Y-26536460D02*
X145833413Y-26546390D01*
X145833413Y-26546390D02*
X145802218Y-26551722D01*
X145802218Y-26551722D02*
X145753878Y-26553837D01*
X145753878Y-26553837D02*
X145704353Y-26554143D01*
X145704353Y-26554143D02*
X145704353Y-26655542D01*
X145704353Y-26655542D02*
X145791432Y-26652190D01*
X145791432Y-26652190D02*
X145859914Y-26640274D01*
X145859914Y-26640274D02*
X145911400Y-26617865D01*
X145911400Y-26617865D02*
X145951557Y-26582876D01*
X145951557Y-26582876D02*
X145972139Y-26555625D01*
X145972139Y-26555625D02*
X145994375Y-26506093D01*
X145994375Y-26506093D02*
X146004696Y-26448684D01*
X146004696Y-26448684D02*
X146001933Y-26395318D01*
X146001933Y-26395318D02*
X145990788Y-26365457D01*
X145990788Y-26365457D02*
X145987617Y-26353739D01*
X145987617Y-26353739D02*
X145999443Y-26345963D01*
X145999443Y-26345963D02*
X146031134Y-26340535D01*
X146031134Y-26340535D02*
X146079407Y-26336429D01*
X146079407Y-26336429D02*
X146133171Y-26331933D01*
X146133171Y-26331933D02*
X146165518Y-26325687D01*
X146165518Y-26325687D02*
X146184015Y-26314324D01*
X146184015Y-26314324D02*
X146196230Y-26294472D01*
X146196230Y-26294472D02*
X146201638Y-26282000D01*
X146201638Y-26282000D02*
X146221399Y-26234829D01*
X146221399Y-26234829D02*
X145884642Y-26234883D01*
X145884642Y-26234883D02*
X145884642Y-26234883D01*
G36*
X145700286Y-26655698D02*
G01*
X145643687Y-26654537D01*
X145566538Y-26646345D01*
X145508724Y-26628519D01*
X145464578Y-26598975D01*
X145428432Y-26555625D01*
X145407537Y-26514332D01*
X145395910Y-26444987D01*
X145400259Y-26421299D01*
X145500581Y-26421299D01*
X145503110Y-26471635D01*
X145532712Y-26518517D01*
X145548047Y-26532477D01*
X145568378Y-26544160D01*
X145596486Y-26550686D01*
X145639450Y-26553524D01*
X145704353Y-26554143D01*
X145753878Y-26553837D01*
X145802218Y-26551722D01*
X145833413Y-26546390D01*
X145854353Y-26536460D01*
X145871927Y-26520550D01*
X145879841Y-26511204D01*
X145901157Y-26462776D01*
X145897802Y-26412040D01*
X145869893Y-26367987D01*
X145858827Y-26358504D01*
X145837991Y-26346939D01*
X145808894Y-26340252D01*
X145764619Y-26337173D01*
X145698252Y-26336429D01*
X145645423Y-26336772D01*
X145597638Y-26338942D01*
X145566791Y-26344307D01*
X145546065Y-26354217D01*
X145528644Y-26370021D01*
X145525295Y-26373724D01*
X145500581Y-26421299D01*
X145400259Y-26421299D01*
X145408623Y-26375736D01*
X145444055Y-26313145D01*
X145500582Y-26263779D01*
X145511005Y-26257818D01*
X145529267Y-26249945D01*
X145552571Y-26244106D01*
X145584915Y-26239999D01*
X145630296Y-26237325D01*
X145692713Y-26235781D01*
X145776163Y-26235067D01*
X145884642Y-26234883D01*
X146221399Y-26234829D01*
X146201638Y-26282000D01*
X146196230Y-26294472D01*
X146184015Y-26314324D01*
X146165518Y-26325687D01*
X146133171Y-26331933D01*
X146079407Y-26336429D01*
X146031134Y-26340535D01*
X145999443Y-26345963D01*
X145987617Y-26353739D01*
X145990788Y-26365457D01*
X146001933Y-26395318D01*
X146004696Y-26448684D01*
X145994375Y-26506093D01*
X145972139Y-26555625D01*
X145951557Y-26582876D01*
X145911400Y-26617865D01*
X145859914Y-26640274D01*
X145791432Y-26652190D01*
X145704353Y-26655542D01*
X145700286Y-26655698D01*
G37*
X145700286Y-26655698D02*
X145643687Y-26654537D01*
X145566538Y-26646345D01*
X145508724Y-26628519D01*
X145464578Y-26598975D01*
X145428432Y-26555625D01*
X145407537Y-26514332D01*
X145395910Y-26444987D01*
X145400259Y-26421299D01*
X145500581Y-26421299D01*
X145503110Y-26471635D01*
X145532712Y-26518517D01*
X145548047Y-26532477D01*
X145568378Y-26544160D01*
X145596486Y-26550686D01*
X145639450Y-26553524D01*
X145704353Y-26554143D01*
X145753878Y-26553837D01*
X145802218Y-26551722D01*
X145833413Y-26546390D01*
X145854353Y-26536460D01*
X145871927Y-26520550D01*
X145879841Y-26511204D01*
X145901157Y-26462776D01*
X145897802Y-26412040D01*
X145869893Y-26367987D01*
X145858827Y-26358504D01*
X145837991Y-26346939D01*
X145808894Y-26340252D01*
X145764619Y-26337173D01*
X145698252Y-26336429D01*
X145645423Y-26336772D01*
X145597638Y-26338942D01*
X145566791Y-26344307D01*
X145546065Y-26354217D01*
X145528644Y-26370021D01*
X145525295Y-26373724D01*
X145500581Y-26421299D01*
X145400259Y-26421299D01*
X145408623Y-26375736D01*
X145444055Y-26313145D01*
X145500582Y-26263779D01*
X145511005Y-26257818D01*
X145529267Y-26249945D01*
X145552571Y-26244106D01*
X145584915Y-26239999D01*
X145630296Y-26237325D01*
X145692713Y-26235781D01*
X145776163Y-26235067D01*
X145884642Y-26234883D01*
X146221399Y-26234829D01*
X146201638Y-26282000D01*
X146196230Y-26294472D01*
X146184015Y-26314324D01*
X146165518Y-26325687D01*
X146133171Y-26331933D01*
X146079407Y-26336429D01*
X146031134Y-26340535D01*
X145999443Y-26345963D01*
X145987617Y-26353739D01*
X145990788Y-26365457D01*
X146001933Y-26395318D01*
X146004696Y-26448684D01*
X145994375Y-26506093D01*
X145972139Y-26555625D01*
X145951557Y-26582876D01*
X145911400Y-26617865D01*
X145859914Y-26640274D01*
X145791432Y-26652190D01*
X145704353Y-26655542D01*
X145700286Y-26655698D01*
X146098711Y-28049114D02*
X146039387Y-28044861D01*
X146039387Y-28044861D02*
X146004428Y-28039975D01*
X146004428Y-28039975D02*
X145989180Y-28033205D01*
X145989180Y-28033205D02*
X145988985Y-28023298D01*
X145988985Y-28023298D02*
X145990805Y-28020086D01*
X145990805Y-28020086D02*
X146003985Y-27977356D01*
X146003985Y-27977356D02*
X146003215Y-27921773D01*
X146003215Y-27921773D02*
X145989667Y-27865263D01*
X145989667Y-27865263D02*
X145972139Y-27829918D01*
X145972139Y-27829918D02*
X145944139Y-27793679D01*
X145944139Y-27793679D02*
X145912451Y-27767187D01*
X145912451Y-27767187D02*
X145872187Y-27749001D01*
X145872187Y-27749001D02*
X145818457Y-27737678D01*
X145818457Y-27737678D02*
X145746374Y-27731778D01*
X145746374Y-27731778D02*
X145651049Y-27729857D01*
X145651049Y-27729857D02*
X145632763Y-27729823D01*
X145632763Y-27729823D02*
X145427354Y-27729800D01*
X145427354Y-27729800D02*
X145411420Y-27775509D01*
X145411420Y-27775509D02*
X145400580Y-27807973D01*
X145400580Y-27807973D02*
X145395532Y-27825785D01*
X145395532Y-27825785D02*
X145395486Y-27826309D01*
X145395486Y-27826309D02*
X145409172Y-27828063D01*
X145409172Y-27828063D02*
X145446924Y-27829556D01*
X145446924Y-27829556D02*
X145503776Y-27830674D01*
X145503776Y-27830674D02*
X145574766Y-27831303D01*
X145574766Y-27831303D02*
X145617927Y-27831400D01*
X145617927Y-27831400D02*
X145703027Y-27831602D01*
X145703027Y-27831602D02*
X145764019Y-27832642D01*
X145764019Y-27832642D02*
X145805823Y-27835169D01*
X145805823Y-27835169D02*
X145833358Y-27839836D01*
X145833358Y-27839836D02*
X145851544Y-27847293D01*
X145851544Y-27847293D02*
X145865302Y-27858189D01*
X145865302Y-27858189D02*
X145871927Y-27864993D01*
X145871927Y-27864993D02*
X145898625Y-27911728D01*
X145898625Y-27911728D02*
X145900625Y-27962728D01*
X145900625Y-27962728D02*
X145878045Y-28008999D01*
X145878045Y-28008999D02*
X145869893Y-28017556D01*
X145869893Y-28017556D02*
X145854564Y-28030107D01*
X145854564Y-28030107D02*
X145836382Y-28038812D01*
X145836382Y-28038812D02*
X145810091Y-28044369D01*
X145810091Y-28044369D02*
X145770438Y-28047474D01*
X145770438Y-28047474D02*
X145712168Y-28048824D01*
X145712168Y-28048824D02*
X145631827Y-28049114D01*
X145631827Y-28049114D02*
X145427354Y-28049114D01*
X145427354Y-28049114D02*
X145411420Y-28094823D01*
X145411420Y-28094823D02*
X145400580Y-28127287D01*
X145400580Y-28127287D02*
X145395532Y-28145099D01*
X145395532Y-28145099D02*
X145395486Y-28145623D01*
X145395486Y-28145623D02*
X145409377Y-28146963D01*
X145409377Y-28146963D02*
X145448561Y-28148172D01*
X145448561Y-28148172D02*
X145509300Y-28149199D01*
X145509300Y-28149199D02*
X145587859Y-28149998D01*
X145587859Y-28149998D02*
X145680502Y-28150519D01*
X145680502Y-28150519D02*
X145783491Y-28150714D01*
X145783491Y-28150714D02*
X146180658Y-28150714D01*
X146180658Y-28150714D02*
X146200556Y-28103543D01*
X146200556Y-28103543D02*
X146220453Y-28056371D01*
X146220453Y-28056371D02*
X146098711Y-28049114D01*
X146098711Y-28049114D02*
X146098711Y-28049114D01*
G36*
X145632763Y-27729823D02*
G01*
X145651049Y-27729857D01*
X145746374Y-27731778D01*
X145818457Y-27737678D01*
X145872187Y-27749001D01*
X145912451Y-27767187D01*
X145944139Y-27793679D01*
X145972139Y-27829918D01*
X145989667Y-27865263D01*
X146003215Y-27921773D01*
X146003985Y-27977356D01*
X145990805Y-28020086D01*
X145988985Y-28023298D01*
X145989180Y-28033205D01*
X146004428Y-28039975D01*
X146039387Y-28044861D01*
X146098711Y-28049114D01*
X146220453Y-28056371D01*
X146200556Y-28103543D01*
X146180658Y-28150714D01*
X145783491Y-28150714D01*
X145680502Y-28150519D01*
X145587859Y-28149998D01*
X145509300Y-28149199D01*
X145448561Y-28148172D01*
X145409377Y-28146963D01*
X145395486Y-28145623D01*
X145395532Y-28145099D01*
X145400580Y-28127287D01*
X145411420Y-28094823D01*
X145427354Y-28049114D01*
X145631827Y-28049114D01*
X145712168Y-28048824D01*
X145770438Y-28047474D01*
X145810091Y-28044369D01*
X145836382Y-28038812D01*
X145854564Y-28030107D01*
X145869893Y-28017556D01*
X145878045Y-28008999D01*
X145900625Y-27962728D01*
X145898625Y-27911728D01*
X145871927Y-27864993D01*
X145865302Y-27858189D01*
X145851544Y-27847293D01*
X145833358Y-27839836D01*
X145805823Y-27835169D01*
X145764019Y-27832642D01*
X145703027Y-27831602D01*
X145617927Y-27831400D01*
X145574766Y-27831303D01*
X145503776Y-27830674D01*
X145446924Y-27829556D01*
X145409172Y-27828063D01*
X145395486Y-27826309D01*
X145395532Y-27825785D01*
X145400580Y-27807973D01*
X145411420Y-27775509D01*
X145427354Y-27729800D01*
X145632763Y-27729823D01*
G37*
X145632763Y-27729823D02*
X145651049Y-27729857D01*
X145746374Y-27731778D01*
X145818457Y-27737678D01*
X145872187Y-27749001D01*
X145912451Y-27767187D01*
X145944139Y-27793679D01*
X145972139Y-27829918D01*
X145989667Y-27865263D01*
X146003215Y-27921773D01*
X146003985Y-27977356D01*
X145990805Y-28020086D01*
X145988985Y-28023298D01*
X145989180Y-28033205D01*
X146004428Y-28039975D01*
X146039387Y-28044861D01*
X146098711Y-28049114D01*
X146220453Y-28056371D01*
X146200556Y-28103543D01*
X146180658Y-28150714D01*
X145783491Y-28150714D01*
X145680502Y-28150519D01*
X145587859Y-28149998D01*
X145509300Y-28149199D01*
X145448561Y-28148172D01*
X145409377Y-28146963D01*
X145395486Y-28145623D01*
X145395532Y-28145099D01*
X145400580Y-28127287D01*
X145411420Y-28094823D01*
X145427354Y-28049114D01*
X145631827Y-28049114D01*
X145712168Y-28048824D01*
X145770438Y-28047474D01*
X145810091Y-28044369D01*
X145836382Y-28038812D01*
X145854564Y-28030107D01*
X145869893Y-28017556D01*
X145878045Y-28008999D01*
X145900625Y-27962728D01*
X145898625Y-27911728D01*
X145871927Y-27864993D01*
X145865302Y-27858189D01*
X145851544Y-27847293D01*
X145833358Y-27839836D01*
X145805823Y-27835169D01*
X145764019Y-27832642D01*
X145703027Y-27831602D01*
X145617927Y-27831400D01*
X145574766Y-27831303D01*
X145503776Y-27830674D01*
X145446924Y-27829556D01*
X145409172Y-27828063D01*
X145395486Y-27826309D01*
X145395532Y-27825785D01*
X145400580Y-27807973D01*
X145411420Y-27775509D01*
X145427354Y-27729800D01*
X145632763Y-27729823D01*
X145999032Y-27385256D02*
X145977913Y-27328384D01*
X145977913Y-27328384D02*
X145977507Y-27327733D01*
X145977507Y-27327733D02*
X145951620Y-27292560D01*
X145951620Y-27292560D02*
X145921367Y-27266593D01*
X145921367Y-27266593D02*
X145881942Y-27248330D01*
X145881942Y-27248330D02*
X145828538Y-27236268D01*
X145828538Y-27236268D02*
X145756349Y-27228904D01*
X145756349Y-27228904D02*
X145660568Y-27224736D01*
X145660568Y-27224736D02*
X145646922Y-27224371D01*
X145646922Y-27224371D02*
X145441158Y-27219124D01*
X145441158Y-27219124D02*
X145418322Y-27263284D01*
X145418322Y-27263284D02*
X145402890Y-27295237D01*
X145402890Y-27295237D02*
X145395577Y-27314530D01*
X145395577Y-27314530D02*
X145395486Y-27315422D01*
X145395486Y-27315422D02*
X145408978Y-27318761D01*
X145408978Y-27318761D02*
X145445374Y-27321413D01*
X145445374Y-27321413D02*
X145498548Y-27323044D01*
X145498548Y-27323044D02*
X145541607Y-27323400D01*
X145541607Y-27323400D02*
X145611359Y-27323408D01*
X145611359Y-27323408D02*
X145655163Y-27326597D01*
X145655163Y-27326597D02*
X145676056Y-27337712D01*
X145676056Y-27337712D02*
X145677075Y-27361499D01*
X145677075Y-27361499D02*
X145661259Y-27402704D01*
X145661259Y-27402704D02*
X145632185Y-27464914D01*
X145632185Y-27464914D02*
X145608037Y-27510659D01*
X145608037Y-27510659D02*
X145587087Y-27534187D01*
X145587087Y-27534187D02*
X145564253Y-27541104D01*
X145564253Y-27541104D02*
X145563123Y-27541114D01*
X145563123Y-27541114D02*
X145523788Y-27529701D01*
X145523788Y-27529701D02*
X145502538Y-27495908D01*
X145502538Y-27495908D02*
X145499461Y-27444191D01*
X145499461Y-27444191D02*
X145499994Y-27406939D01*
X145499994Y-27406939D02*
X145489265Y-27387297D01*
X145489265Y-27387297D02*
X145463495Y-27375048D01*
X145463495Y-27375048D02*
X145430663Y-27367998D01*
X145430663Y-27367998D02*
X145412034Y-27378158D01*
X145412034Y-27378158D02*
X145409368Y-27381983D01*
X145409368Y-27381983D02*
X145398660Y-27417999D01*
X145398660Y-27417999D02*
X145397144Y-27468434D01*
X145397144Y-27468434D02*
X145404241Y-27520374D01*
X145404241Y-27520374D02*
X145417212Y-27557178D01*
X145417212Y-27557178D02*
X145460415Y-27608062D01*
X145460415Y-27608062D02*
X145520554Y-27636986D01*
X145520554Y-27636986D02*
X145567538Y-27642714D01*
X145567538Y-27642714D02*
X145609918Y-27638343D01*
X145609918Y-27638343D02*
X145644512Y-27622525D01*
X145644512Y-27622525D02*
X145675237Y-27591203D01*
X145675237Y-27591203D02*
X145706010Y-27540322D01*
X145706010Y-27540322D02*
X145740748Y-27465824D01*
X145740748Y-27465824D02*
X145742712Y-27461286D01*
X145742712Y-27461286D02*
X145773713Y-27394179D01*
X145773713Y-27394179D02*
X145799138Y-27352768D01*
X145799138Y-27352768D02*
X145821986Y-27335019D01*
X145821986Y-27335019D02*
X145845255Y-27338893D01*
X145845255Y-27338893D02*
X145871944Y-27362357D01*
X145871944Y-27362357D02*
X145878086Y-27369373D01*
X145878086Y-27369373D02*
X145901900Y-27416370D01*
X145901900Y-27416370D02*
X145900897Y-27465067D01*
X145900897Y-27465067D02*
X145877549Y-27507478D01*
X145877549Y-27507478D02*
X145834325Y-27535616D01*
X145834325Y-27535616D02*
X145825840Y-27538231D01*
X145825840Y-27538231D02*
X145784692Y-27563692D01*
X145784692Y-27563692D02*
X145764872Y-27595999D01*
X145764872Y-27595999D02*
X145745230Y-27642714D01*
X145745230Y-27642714D02*
X145796050Y-27642714D01*
X145796050Y-27642714D02*
X145869918Y-27628504D01*
X145869918Y-27628504D02*
X145937673Y-27586325D01*
X145937673Y-27586325D02*
X145960339Y-27564376D01*
X145960339Y-27564376D02*
X145989431Y-27514483D01*
X145989431Y-27514483D02*
X146002600Y-27451033D01*
X146002600Y-27451033D02*
X145999032Y-27385256D01*
X145999032Y-27385256D02*
X145999032Y-27385256D01*
G36*
X145646922Y-27224371D02*
G01*
X145660568Y-27224736D01*
X145756349Y-27228904D01*
X145828538Y-27236268D01*
X145881942Y-27248330D01*
X145921367Y-27266593D01*
X145951620Y-27292560D01*
X145977507Y-27327733D01*
X145977913Y-27328384D01*
X145999032Y-27385256D01*
X146002600Y-27451033D01*
X145989431Y-27514483D01*
X145960339Y-27564376D01*
X145937673Y-27586325D01*
X145869918Y-27628504D01*
X145796050Y-27642714D01*
X145745230Y-27642714D01*
X145764872Y-27595999D01*
X145784692Y-27563692D01*
X145825840Y-27538231D01*
X145834325Y-27535616D01*
X145877549Y-27507478D01*
X145900897Y-27465067D01*
X145901900Y-27416370D01*
X145878086Y-27369373D01*
X145871944Y-27362357D01*
X145845255Y-27338893D01*
X145821986Y-27335019D01*
X145799138Y-27352768D01*
X145773713Y-27394179D01*
X145742712Y-27461286D01*
X145740748Y-27465824D01*
X145706010Y-27540322D01*
X145675237Y-27591203D01*
X145644512Y-27622525D01*
X145609918Y-27638343D01*
X145567538Y-27642714D01*
X145520554Y-27636986D01*
X145460415Y-27608062D01*
X145417212Y-27557178D01*
X145404241Y-27520374D01*
X145397144Y-27468434D01*
X145398660Y-27417999D01*
X145409368Y-27381983D01*
X145412034Y-27378158D01*
X145430663Y-27367998D01*
X145463495Y-27375048D01*
X145489265Y-27387297D01*
X145499994Y-27406939D01*
X145499461Y-27444191D01*
X145502538Y-27495908D01*
X145523788Y-27529701D01*
X145563123Y-27541114D01*
X145564253Y-27541104D01*
X145587087Y-27534187D01*
X145608037Y-27510659D01*
X145632185Y-27464914D01*
X145661259Y-27402704D01*
X145677075Y-27361499D01*
X145676056Y-27337712D01*
X145655163Y-27326597D01*
X145611359Y-27323408D01*
X145541607Y-27323400D01*
X145498548Y-27323044D01*
X145445374Y-27321413D01*
X145408978Y-27318761D01*
X145395486Y-27315422D01*
X145395577Y-27314530D01*
X145402890Y-27295237D01*
X145418322Y-27263284D01*
X145441158Y-27219124D01*
X145646922Y-27224371D01*
G37*
X145646922Y-27224371D02*
X145660568Y-27224736D01*
X145756349Y-27228904D01*
X145828538Y-27236268D01*
X145881942Y-27248330D01*
X145921367Y-27266593D01*
X145951620Y-27292560D01*
X145977507Y-27327733D01*
X145977913Y-27328384D01*
X145999032Y-27385256D01*
X146002600Y-27451033D01*
X145989431Y-27514483D01*
X145960339Y-27564376D01*
X145937673Y-27586325D01*
X145869918Y-27628504D01*
X145796050Y-27642714D01*
X145745230Y-27642714D01*
X145764872Y-27595999D01*
X145784692Y-27563692D01*
X145825840Y-27538231D01*
X145834325Y-27535616D01*
X145877549Y-27507478D01*
X145900897Y-27465067D01*
X145901900Y-27416370D01*
X145878086Y-27369373D01*
X145871944Y-27362357D01*
X145845255Y-27338893D01*
X145821986Y-27335019D01*
X145799138Y-27352768D01*
X145773713Y-27394179D01*
X145742712Y-27461286D01*
X145740748Y-27465824D01*
X145706010Y-27540322D01*
X145675237Y-27591203D01*
X145644512Y-27622525D01*
X145609918Y-27638343D01*
X145567538Y-27642714D01*
X145520554Y-27636986D01*
X145460415Y-27608062D01*
X145417212Y-27557178D01*
X145404241Y-27520374D01*
X145397144Y-27468434D01*
X145398660Y-27417999D01*
X145409368Y-27381983D01*
X145412034Y-27378158D01*
X145430663Y-27367998D01*
X145463495Y-27375048D01*
X145489265Y-27387297D01*
X145499994Y-27406939D01*
X145499461Y-27444191D01*
X145502538Y-27495908D01*
X145523788Y-27529701D01*
X145563123Y-27541114D01*
X145564253Y-27541104D01*
X145587087Y-27534187D01*
X145608037Y-27510659D01*
X145632185Y-27464914D01*
X145661259Y-27402704D01*
X145677075Y-27361499D01*
X145676056Y-27337712D01*
X145655163Y-27326597D01*
X145611359Y-27323408D01*
X145541607Y-27323400D01*
X145498548Y-27323044D01*
X145445374Y-27321413D01*
X145408978Y-27318761D01*
X145395486Y-27315422D01*
X145395577Y-27314530D01*
X145402890Y-27295237D01*
X145418322Y-27263284D01*
X145441158Y-27219124D01*
X145646922Y-27224371D01*
X150707652Y-27321090D02*
X150707222Y-27242546D01*
X150707222Y-27242546D02*
X150706058Y-27185702D01*
X150706058Y-27185702D02*
X150703793Y-27146895D01*
X150703793Y-27146895D02*
X150700060Y-27122462D01*
X150700060Y-27122462D02*
X150694494Y-27108738D01*
X150694494Y-27108738D02*
X150686727Y-27102060D01*
X150686727Y-27102060D02*
X150676395Y-27098764D01*
X150676395Y-27098764D02*
X150675057Y-27098444D01*
X150675057Y-27098444D02*
X150650921Y-27093438D01*
X150650921Y-27093438D02*
X150603299Y-27084171D01*
X150603299Y-27084171D02*
X150537259Y-27071608D01*
X150537259Y-27071608D02*
X150457872Y-27056713D01*
X150457872Y-27056713D02*
X150370204Y-27040449D01*
X150370204Y-27040449D02*
X150367125Y-27039881D01*
X150367125Y-27039881D02*
X150281211Y-27023590D01*
X150281211Y-27023590D02*
X150205304Y-27008348D01*
X150205304Y-27008348D02*
X150143955Y-26995139D01*
X150143955Y-26995139D02*
X150101718Y-26984946D01*
X150101718Y-26984946D02*
X150083145Y-26978752D01*
X150083145Y-26978752D02*
X150082816Y-26978457D01*
X150082816Y-26978457D02*
X150073747Y-26960212D01*
X150073747Y-26960212D02*
X150058633Y-26922595D01*
X150058633Y-26922595D02*
X150040738Y-26873729D01*
X150040738Y-26873729D02*
X150040642Y-26873457D01*
X150040642Y-26873457D02*
X150017507Y-26811907D01*
X150017507Y-26811907D02*
X149988035Y-26739343D01*
X149988035Y-26739343D02*
X149958403Y-26670943D01*
X149958403Y-26670943D02*
X149956938Y-26667706D01*
X149956938Y-26667706D02*
X149906374Y-26556298D01*
X149906374Y-26556298D02*
X150074840Y-26309601D01*
X150074840Y-26309601D02*
X150126197Y-26233923D01*
X150126197Y-26233923D02*
X150172111Y-26165369D01*
X150172111Y-26165369D02*
X150209970Y-26107912D01*
X150209970Y-26107912D02*
X150237163Y-26065524D01*
X150237163Y-26065524D02*
X150251079Y-26042175D01*
X150251079Y-26042175D02*
X150252111Y-26039958D01*
X150252111Y-26039958D02*
X150247516Y-26022990D01*
X150247516Y-26022990D02*
X150225345Y-25991299D01*
X150225345Y-25991299D02*
X150184553Y-25943648D01*
X150184553Y-25943648D02*
X150124095Y-25878802D01*
X150124095Y-25878802D02*
X150059773Y-25812603D01*
X150059773Y-25812603D02*
X149996388Y-25748786D01*
X149996388Y-25748786D02*
X149938549Y-25691671D01*
X149938549Y-25691671D02*
X149889825Y-25644695D01*
X149889825Y-25644695D02*
X149853790Y-25611297D01*
X149853790Y-25611297D02*
X149834016Y-25594915D01*
X149834016Y-25594915D02*
X149832998Y-25594306D01*
X149832998Y-25594306D02*
X149819428Y-25592495D01*
X149819428Y-25592495D02*
X149797267Y-25599317D01*
X149797267Y-25599317D02*
X149763522Y-25616460D01*
X149763522Y-25616460D02*
X149715200Y-25645607D01*
X149715200Y-25645607D02*
X149649308Y-25688445D01*
X149649308Y-25688445D02*
X149564483Y-25745552D01*
X149564483Y-25745552D02*
X149489823Y-25796234D01*
X149489823Y-25796234D02*
X149422860Y-25841539D01*
X149422860Y-25841539D02*
X149367484Y-25878850D01*
X149367484Y-25878850D02*
X149327580Y-25905548D01*
X149327580Y-25905548D02*
X149307038Y-25919015D01*
X149307038Y-25919015D02*
X149305644Y-25919863D01*
X149305644Y-25919863D02*
X149285962Y-25918219D01*
X149285962Y-25918219D02*
X149247707Y-25905755D01*
X149247707Y-25905755D02*
X149198111Y-25884952D01*
X149198111Y-25884952D02*
X149182272Y-25877538D01*
X149182272Y-25877538D02*
X149111710Y-25845186D01*
X149111710Y-25845186D02*
X149031647Y-25810672D01*
X149031647Y-25810672D02*
X148962371Y-25782635D01*
X148962371Y-25782635D02*
X148910955Y-25762432D01*
X148910955Y-25762432D02*
X148871881Y-25746385D01*
X148871881Y-25746385D02*
X148851459Y-25737112D01*
X148851459Y-25737112D02*
X148849886Y-25735959D01*
X148849886Y-25735959D02*
X148847279Y-25718904D01*
X148847279Y-25718904D02*
X148840137Y-25678702D01*
X148840137Y-25678702D02*
X148829477Y-25620698D01*
X148829477Y-25620698D02*
X148816315Y-25550237D01*
X148816315Y-25550237D02*
X148801667Y-25472665D01*
X148801667Y-25472665D02*
X148786551Y-25393328D01*
X148786551Y-25393328D02*
X148771982Y-25317569D01*
X148771982Y-25317569D02*
X148758978Y-25250736D01*
X148758978Y-25250736D02*
X148748555Y-25198172D01*
X148748555Y-25198172D02*
X148741730Y-25165224D01*
X148741730Y-25165224D02*
X148739801Y-25157143D01*
X148739801Y-25157143D02*
X148735038Y-25148795D01*
X148735038Y-25148795D02*
X148724282Y-25142494D01*
X148724282Y-25142494D02*
X148703902Y-25137955D01*
X148703902Y-25137955D02*
X148670266Y-25134896D01*
X148670266Y-25134896D02*
X148619745Y-25133033D01*
X148619745Y-25133033D02*
X148548708Y-25132082D01*
X148548708Y-25132082D02*
X148453524Y-25131760D01*
X148453524Y-25131760D02*
X148414508Y-25131743D01*
X148414508Y-25131743D02*
X148097201Y-25131743D01*
X148097201Y-25131743D02*
X148082161Y-25207943D01*
X148082161Y-25207943D02*
X148074005Y-25250337D01*
X148074005Y-25250337D02*
X148062101Y-25313600D01*
X148062101Y-25313600D02*
X148047884Y-25390038D01*
X148047884Y-25390038D02*
X148032790Y-25471957D01*
X148032790Y-25471957D02*
X148028645Y-25494600D01*
X148028645Y-25494600D02*
X148013947Y-25570194D01*
X148013947Y-25570194D02*
X147999495Y-25636047D01*
X147999495Y-25636047D02*
X147986625Y-25686634D01*
X147986625Y-25686634D02*
X147976678Y-25716426D01*
X147976678Y-25716426D02*
X147973713Y-25721388D01*
X147973713Y-25721388D02*
X147952717Y-25733574D01*
X147952717Y-25733574D02*
X147912033Y-25751047D01*
X147912033Y-25751047D02*
X147859678Y-25770423D01*
X147859678Y-25770423D02*
X147848400Y-25774266D01*
X147848400Y-25774266D02*
X147778477Y-25799661D01*
X147778477Y-25799661D02*
X147699582Y-25831183D01*
X147699582Y-25831183D02*
X147628734Y-25862031D01*
X147628734Y-25862031D02*
X147628405Y-25862183D01*
X147628405Y-25862183D02*
X147517267Y-25913553D01*
X147517267Y-25913553D02*
X147268747Y-25744601D01*
X147268747Y-25744601D02*
X147020228Y-25575648D01*
X147020228Y-25575648D02*
X146802942Y-25792571D01*
X146802942Y-25792571D02*
X146738274Y-25858181D01*
X146738274Y-25858181D02*
X146681267Y-25918021D01*
X146681267Y-25918021D02*
X146634967Y-25968733D01*
X146634967Y-25968733D02*
X146602416Y-26006954D01*
X146602416Y-26006954D02*
X146586657Y-26029325D01*
X146586657Y-26029325D02*
X146585657Y-26032534D01*
X146585657Y-26032534D02*
X146593531Y-26051374D01*
X146593531Y-26051374D02*
X146615422Y-26089820D01*
X146615422Y-26089820D02*
X146648733Y-26143670D01*
X146648733Y-26143670D02*
X146690869Y-26208724D01*
X146690869Y-26208724D02*
X146738057Y-26279060D01*
X146738057Y-26279060D02*
X146786190Y-26350445D01*
X146786190Y-26350445D02*
X146828072Y-26414092D01*
X146828072Y-26414092D02*
X146861129Y-26465959D01*
X146861129Y-26465959D02*
X146882782Y-26502005D01*
X146882782Y-26502005D02*
X146890457Y-26518133D01*
X146890457Y-26518133D02*
X146883963Y-26537811D01*
X146883963Y-26537811D02*
X146866850Y-26575125D01*
X146866850Y-26575125D02*
X146842674Y-26622379D01*
X146842674Y-26622379D02*
X146839987Y-26627388D01*
X146839987Y-26627388D02*
X146808073Y-26691023D01*
X146808073Y-26691023D02*
X146792421Y-26734659D01*
X146792421Y-26734659D02*
X146792255Y-26761798D01*
X146792255Y-26761798D02*
X146806796Y-26775943D01*
X146806796Y-26775943D02*
X146807000Y-26776025D01*
X146807000Y-26776025D02*
X146824221Y-26783095D01*
X146824221Y-26783095D02*
X146865101Y-26799958D01*
X146865101Y-26799958D02*
X146926475Y-26825305D01*
X146926475Y-26825305D02*
X147005181Y-26857829D01*
X147005181Y-26857829D02*
X147098053Y-26896222D01*
X147098053Y-26896222D02*
X147201928Y-26939178D01*
X147201928Y-26939178D02*
X147302498Y-26980778D01*
X147302498Y-26980778D02*
X147413484Y-27026496D01*
X147413484Y-27026496D02*
X147516297Y-27068474D01*
X147516297Y-27068474D02*
X147607785Y-27105452D01*
X147607785Y-27105452D02*
X147684799Y-27136173D01*
X147684799Y-27136173D02*
X147744185Y-27159378D01*
X147744185Y-27159378D02*
X147782791Y-27173810D01*
X147782791Y-27173810D02*
X147797200Y-27178257D01*
X147797200Y-27178257D02*
X147813728Y-27167104D01*
X147813728Y-27167104D02*
X147840070Y-27137931D01*
X147840070Y-27137931D02*
X147869113Y-27099029D01*
X147869113Y-27099029D02*
X147960961Y-26988243D01*
X147960961Y-26988243D02*
X148066241Y-26901649D01*
X148066241Y-26901649D02*
X148182734Y-26840284D01*
X148182734Y-26840284D02*
X148308224Y-26805185D01*
X148308224Y-26805185D02*
X148440493Y-26797392D01*
X148440493Y-26797392D02*
X148501543Y-26803057D01*
X148501543Y-26803057D02*
X148628205Y-26833922D01*
X148628205Y-26833922D02*
X148740059Y-26887080D01*
X148740059Y-26887080D02*
X148835999Y-26959233D01*
X148835999Y-26959233D02*
X148914924Y-27047083D01*
X148914924Y-27047083D02*
X148975730Y-27147335D01*
X148975730Y-27147335D02*
X149017313Y-27256690D01*
X149017313Y-27256690D02*
X149038572Y-27371853D01*
X149038572Y-27371853D02*
X149038401Y-27489525D01*
X149038401Y-27489525D02*
X149015699Y-27606410D01*
X149015699Y-27606410D02*
X148969362Y-27719211D01*
X148969362Y-27719211D02*
X148898287Y-27824631D01*
X148898287Y-27824631D02*
X148858089Y-27868632D01*
X148858089Y-27868632D02*
X148754871Y-27953021D01*
X148754871Y-27953021D02*
X148642075Y-28011778D01*
X148642075Y-28011778D02*
X148522990Y-28045296D01*
X148522990Y-28045296D02*
X148400905Y-28053965D01*
X148400905Y-28053965D02*
X148279107Y-28038177D01*
X148279107Y-28038177D02*
X148160884Y-27998322D01*
X148160884Y-27998322D02*
X148049525Y-27934793D01*
X148049525Y-27934793D02*
X147948316Y-27847979D01*
X147948316Y-27847979D02*
X147869113Y-27750971D01*
X147869113Y-27750971D02*
X147838838Y-27710563D01*
X147838838Y-27710563D02*
X147812781Y-27682018D01*
X147812781Y-27682018D02*
X147797175Y-27671743D01*
X147797175Y-27671743D02*
X147780157Y-27677123D01*
X147780157Y-27677123D02*
X147739500Y-27692425D01*
X147739500Y-27692425D02*
X147678358Y-27716388D01*
X147678358Y-27716388D02*
X147599881Y-27747756D01*
X147599881Y-27747756D02*
X147507220Y-27785268D01*
X147507220Y-27785268D02*
X147403528Y-27827667D01*
X147403528Y-27827667D02*
X147302474Y-27869337D01*
X147302474Y-27869337D02*
X147191393Y-27915310D01*
X147191393Y-27915310D02*
X147088459Y-27957893D01*
X147088459Y-27957893D02*
X146996835Y-27995779D01*
X146996835Y-27995779D02*
X146919684Y-28027660D01*
X146919684Y-28027660D02*
X146860169Y-28052229D01*
X146860169Y-28052229D02*
X146821456Y-28068180D01*
X146821456Y-28068180D02*
X146807000Y-28074090D01*
X146807000Y-28074090D02*
X146792315Y-28088052D01*
X146792315Y-28088052D02*
X146792358Y-28115060D01*
X146792358Y-28115060D02*
X146807901Y-28158587D01*
X146807901Y-28158587D02*
X146839716Y-28222110D01*
X146839716Y-28222110D02*
X146839987Y-28222612D01*
X146839987Y-28222612D02*
X146864677Y-28270440D01*
X146864677Y-28270440D02*
X146882662Y-28309103D01*
X146882662Y-28309103D02*
X146890386Y-28330905D01*
X146890386Y-28330905D02*
X146890457Y-28331867D01*
X146890457Y-28331867D02*
X146882622Y-28348279D01*
X146882622Y-28348279D02*
X146860835Y-28384513D01*
X146860835Y-28384513D02*
X146827672Y-28436526D01*
X146827672Y-28436526D02*
X146785709Y-28500275D01*
X146785709Y-28500275D02*
X146738057Y-28570940D01*
X146738057Y-28570940D02*
X146689809Y-28642884D01*
X146689809Y-28642884D02*
X146647849Y-28707726D01*
X146647849Y-28707726D02*
X146614773Y-28761265D01*
X146614773Y-28761265D02*
X146593179Y-28799303D01*
X146593179Y-28799303D02*
X146585657Y-28817467D01*
X146585657Y-28817467D02*
X146595543Y-28834192D01*
X146595543Y-28834192D02*
X146623174Y-28867820D01*
X146623174Y-28867820D02*
X146665505Y-28914990D01*
X146665505Y-28914990D02*
X146719495Y-28972342D01*
X146719495Y-28972342D02*
X146782101Y-29036516D01*
X146782101Y-29036516D02*
X146803017Y-29057503D01*
X146803017Y-29057503D02*
X147020377Y-29274501D01*
X147020377Y-29274501D02*
X147262780Y-29109332D01*
X147262780Y-29109332D02*
X147337219Y-29059136D01*
X147337219Y-29059136D02*
X147404028Y-29015081D01*
X147404028Y-29015081D02*
X147459335Y-28979638D01*
X147459335Y-28979638D02*
X147499271Y-28955281D01*
X147499271Y-28955281D02*
X147519964Y-28944478D01*
X147519964Y-28944478D02*
X147521437Y-28944162D01*
X147521437Y-28944162D02*
X147540942Y-28949857D01*
X147540942Y-28949857D02*
X147580178Y-28965174D01*
X147580178Y-28965174D02*
X147632570Y-28987463D01*
X147632570Y-28987463D02*
X147667645Y-29003107D01*
X147667645Y-29003107D02*
X147734799Y-29032359D01*
X147734799Y-29032359D02*
X147802642Y-29059906D01*
X147802642Y-29059906D02*
X147859966Y-29081263D01*
X147859966Y-29081263D02*
X147877428Y-29087065D01*
X147877428Y-29087065D02*
X147924062Y-29103548D01*
X147924062Y-29103548D02*
X147960095Y-29119660D01*
X147960095Y-29119660D02*
X147973713Y-29128510D01*
X147973713Y-29128510D02*
X147982048Y-29148040D01*
X147982048Y-29148040D02*
X147993863Y-29190666D01*
X147993863Y-29190666D02*
X148007819Y-29250855D01*
X148007819Y-29250855D02*
X148022578Y-29323078D01*
X148022578Y-29323078D02*
X148028645Y-29355400D01*
X148028645Y-29355400D02*
X148043727Y-29437478D01*
X148043727Y-29437478D02*
X148058331Y-29516205D01*
X148058331Y-29516205D02*
X148071020Y-29583891D01*
X148071020Y-29583891D02*
X148080358Y-29632840D01*
X148080358Y-29632840D02*
X148082161Y-29642057D01*
X148082161Y-29642057D02*
X148097201Y-29718257D01*
X148097201Y-29718257D02*
X148414508Y-29718257D01*
X148414508Y-29718257D02*
X148518846Y-29718086D01*
X148518846Y-29718086D02*
X148597787Y-29717384D01*
X148597787Y-29717384D02*
X148654962Y-29715866D01*
X148654962Y-29715866D02*
X148694001Y-29713251D01*
X148694001Y-29713251D02*
X148718535Y-29709254D01*
X148718535Y-29709254D02*
X148732195Y-29703591D01*
X148732195Y-29703591D02*
X148738611Y-29695980D01*
X148738611Y-29695980D02*
X148739801Y-29692857D01*
X148739801Y-29692857D02*
X148744020Y-29674022D01*
X148744020Y-29674022D02*
X148752438Y-29632412D01*
X148752438Y-29632412D02*
X148764039Y-29573370D01*
X148764039Y-29573370D02*
X148777805Y-29502243D01*
X148777805Y-29502243D02*
X148792720Y-29424375D01*
X148792720Y-29424375D02*
X148807768Y-29345113D01*
X148807768Y-29345113D02*
X148821931Y-29269802D01*
X148821931Y-29269802D02*
X148834194Y-29203787D01*
X148834194Y-29203787D02*
X148843539Y-29152413D01*
X148843539Y-29152413D02*
X148848950Y-29121025D01*
X148848950Y-29121025D02*
X148849886Y-29114041D01*
X148849886Y-29114041D02*
X148862404Y-29107715D01*
X148862404Y-29107715D02*
X148895754Y-29093710D01*
X148895754Y-29093710D02*
X148943623Y-29074645D01*
X148943623Y-29074645D02*
X148962371Y-29067366D01*
X148962371Y-29067366D02*
X149034805Y-29038004D01*
X149034805Y-29038004D02*
X149114830Y-29003429D01*
X149114830Y-29003429D02*
X149182272Y-28972463D01*
X149182272Y-28972463D02*
X149233841Y-28949677D01*
X149233841Y-28949677D02*
X149276215Y-28934518D01*
X149276215Y-28934518D02*
X149302166Y-28929458D01*
X149302166Y-28929458D02*
X149305644Y-28930264D01*
X149305644Y-28930264D02*
X149322064Y-28940959D01*
X149322064Y-28940959D02*
X149358583Y-28965380D01*
X149358583Y-28965380D02*
X149411313Y-29000905D01*
X149411313Y-29000905D02*
X149476365Y-29044913D01*
X149476365Y-29044913D02*
X149549849Y-29094783D01*
X149549849Y-29094783D02*
X149564355Y-29104644D01*
X149564355Y-29104644D02*
X149650296Y-29162508D01*
X149650296Y-29162508D02*
X149715739Y-29205044D01*
X149715739Y-29205044D02*
X149763696Y-29233946D01*
X149763696Y-29233946D02*
X149797180Y-29250910D01*
X149797180Y-29250910D02*
X149819205Y-29257633D01*
X149819205Y-29257633D02*
X149832783Y-29255810D01*
X149832783Y-29255810D02*
X149832869Y-29255764D01*
X149832869Y-29255764D02*
X149850703Y-29241414D01*
X149850703Y-29241414D02*
X149885183Y-29209677D01*
X149885183Y-29209677D02*
X149932732Y-29163990D01*
X149932732Y-29163990D02*
X149989778Y-29107796D01*
X149989778Y-29107796D02*
X150052745Y-29044532D01*
X150052745Y-29044532D02*
X150059773Y-29037398D01*
X150059773Y-29037398D02*
X150136980Y-28957670D01*
X150136980Y-28957670D02*
X150193670Y-28896143D01*
X150193670Y-28896143D02*
X150230890Y-28851579D01*
X150230890Y-28851579D02*
X150249685Y-28822743D01*
X150249685Y-28822743D02*
X150252111Y-28810042D01*
X150252111Y-28810042D02*
X150241529Y-28791506D01*
X150241529Y-28791506D02*
X150217084Y-28753039D01*
X150217084Y-28753039D02*
X150181388Y-28698614D01*
X150181388Y-28698614D02*
X150137053Y-28632202D01*
X150137053Y-28632202D02*
X150086689Y-28557775D01*
X150086689Y-28557775D02*
X150074840Y-28540399D01*
X150074840Y-28540399D02*
X149906374Y-28293703D01*
X149906374Y-28293703D02*
X149956938Y-28182294D01*
X149956938Y-28182294D02*
X149986405Y-28114543D01*
X149986405Y-28114543D02*
X150016041Y-28041817D01*
X150016041Y-28041817D02*
X150039670Y-27979297D01*
X150039670Y-27979297D02*
X150040642Y-27976543D01*
X150040642Y-27976543D02*
X150058543Y-27927640D01*
X150058543Y-27927640D02*
X150073680Y-27889943D01*
X150073680Y-27889943D02*
X150082790Y-27871575D01*
X150082790Y-27871575D02*
X150082816Y-27871544D01*
X150082816Y-27871544D02*
X150099283Y-27865715D01*
X150099283Y-27865715D02*
X150139781Y-27855808D01*
X150139781Y-27855808D02*
X150199758Y-27842805D01*
X150199758Y-27842805D02*
X150274660Y-27827691D01*
X150274660Y-27827691D02*
X150359936Y-27811448D01*
X150359936Y-27811448D02*
X150367125Y-27810119D01*
X150367125Y-27810119D02*
X150454986Y-27793825D01*
X150454986Y-27793825D02*
X150534740Y-27778867D01*
X150534740Y-27778867D02*
X150601319Y-27766209D01*
X150601319Y-27766209D02*
X150649653Y-27756814D01*
X150649653Y-27756814D02*
X150674675Y-27751646D01*
X150674675Y-27751646D02*
X150675057Y-27751556D01*
X150675057Y-27751556D02*
X150685701Y-27748411D01*
X150685701Y-27748411D02*
X150693738Y-27742296D01*
X150693738Y-27742296D02*
X150699533Y-27729547D01*
X150699533Y-27729547D02*
X150703453Y-27706500D01*
X150703453Y-27706500D02*
X150705865Y-27669491D01*
X150705865Y-27669491D02*
X150707135Y-27614856D01*
X150707135Y-27614856D02*
X150707629Y-27538933D01*
X150707629Y-27538933D02*
X150707714Y-27438056D01*
X150707714Y-27438056D02*
X150707714Y-27425000D01*
X150707714Y-27425000D02*
X150707652Y-27321090D01*
X150707652Y-27321090D02*
X150707652Y-27321090D01*
G36*
X148453524Y-25131760D02*
G01*
X148548708Y-25132082D01*
X148619745Y-25133033D01*
X148670266Y-25134896D01*
X148703902Y-25137955D01*
X148724282Y-25142494D01*
X148735038Y-25148795D01*
X148739801Y-25157143D01*
X148741730Y-25165224D01*
X148748555Y-25198172D01*
X148758978Y-25250736D01*
X148771982Y-25317569D01*
X148786551Y-25393328D01*
X148801667Y-25472665D01*
X148816315Y-25550237D01*
X148829477Y-25620698D01*
X148840137Y-25678702D01*
X148847279Y-25718904D01*
X148849886Y-25735959D01*
X148851459Y-25737112D01*
X148871881Y-25746385D01*
X148910955Y-25762432D01*
X148962371Y-25782635D01*
X149031647Y-25810672D01*
X149111710Y-25845186D01*
X149182272Y-25877538D01*
X149198111Y-25884952D01*
X149247707Y-25905755D01*
X149285962Y-25918219D01*
X149305644Y-25919863D01*
X149307038Y-25919015D01*
X149327580Y-25905548D01*
X149367484Y-25878850D01*
X149422860Y-25841539D01*
X149489823Y-25796234D01*
X149564483Y-25745552D01*
X149649308Y-25688445D01*
X149715200Y-25645607D01*
X149763522Y-25616460D01*
X149797267Y-25599317D01*
X149819428Y-25592495D01*
X149832998Y-25594306D01*
X149834016Y-25594915D01*
X149853790Y-25611297D01*
X149889825Y-25644695D01*
X149938549Y-25691671D01*
X149996388Y-25748786D01*
X150059773Y-25812603D01*
X150124095Y-25878802D01*
X150184553Y-25943648D01*
X150225345Y-25991299D01*
X150247516Y-26022990D01*
X150252111Y-26039958D01*
X150251079Y-26042175D01*
X150237163Y-26065524D01*
X150209970Y-26107912D01*
X150172111Y-26165369D01*
X150126197Y-26233923D01*
X150074840Y-26309601D01*
X149906374Y-26556298D01*
X149956938Y-26667706D01*
X149958403Y-26670943D01*
X149988035Y-26739343D01*
X150017507Y-26811907D01*
X150040642Y-26873457D01*
X150040738Y-26873729D01*
X150058633Y-26922595D01*
X150073747Y-26960212D01*
X150082816Y-26978457D01*
X150083145Y-26978752D01*
X150101718Y-26984946D01*
X150143955Y-26995139D01*
X150205304Y-27008348D01*
X150281211Y-27023590D01*
X150367125Y-27039881D01*
X150370204Y-27040449D01*
X150457872Y-27056713D01*
X150537259Y-27071608D01*
X150603299Y-27084171D01*
X150650921Y-27093438D01*
X150675057Y-27098444D01*
X150676395Y-27098764D01*
X150686727Y-27102060D01*
X150694494Y-27108738D01*
X150700060Y-27122462D01*
X150703793Y-27146895D01*
X150706058Y-27185702D01*
X150707222Y-27242546D01*
X150707652Y-27321090D01*
X150707714Y-27425000D01*
X150707714Y-27438056D01*
X150707629Y-27538933D01*
X150707135Y-27614856D01*
X150705865Y-27669491D01*
X150703453Y-27706500D01*
X150699533Y-27729547D01*
X150693738Y-27742296D01*
X150685701Y-27748411D01*
X150675057Y-27751556D01*
X150674675Y-27751646D01*
X150649653Y-27756814D01*
X150601319Y-27766209D01*
X150534740Y-27778867D01*
X150454986Y-27793825D01*
X150367125Y-27810119D01*
X150359936Y-27811448D01*
X150274660Y-27827691D01*
X150199758Y-27842805D01*
X150139781Y-27855808D01*
X150099283Y-27865715D01*
X150082816Y-27871544D01*
X150082790Y-27871575D01*
X150073680Y-27889943D01*
X150058543Y-27927640D01*
X150040642Y-27976543D01*
X150039670Y-27979297D01*
X150016041Y-28041817D01*
X149986405Y-28114543D01*
X149956938Y-28182294D01*
X149906374Y-28293703D01*
X150074840Y-28540399D01*
X150086689Y-28557775D01*
X150137053Y-28632202D01*
X150181388Y-28698614D01*
X150217084Y-28753039D01*
X150241529Y-28791506D01*
X150252111Y-28810042D01*
X150249685Y-28822743D01*
X150230890Y-28851579D01*
X150193670Y-28896143D01*
X150136980Y-28957670D01*
X150059773Y-29037398D01*
X150052745Y-29044532D01*
X149989778Y-29107796D01*
X149932732Y-29163990D01*
X149885183Y-29209677D01*
X149850703Y-29241414D01*
X149832869Y-29255764D01*
X149832783Y-29255810D01*
X149819205Y-29257633D01*
X149797180Y-29250910D01*
X149763696Y-29233946D01*
X149715739Y-29205044D01*
X149650296Y-29162508D01*
X149564355Y-29104644D01*
X149549849Y-29094783D01*
X149476365Y-29044913D01*
X149411313Y-29000905D01*
X149358583Y-28965380D01*
X149322064Y-28940959D01*
X149305644Y-28930264D01*
X149302166Y-28929458D01*
X149276215Y-28934518D01*
X149233841Y-28949677D01*
X149182272Y-28972463D01*
X149114830Y-29003429D01*
X149034805Y-29038004D01*
X148962371Y-29067366D01*
X148943623Y-29074645D01*
X148895754Y-29093710D01*
X148862404Y-29107715D01*
X148849886Y-29114041D01*
X148848950Y-29121025D01*
X148843539Y-29152413D01*
X148834194Y-29203787D01*
X148821931Y-29269802D01*
X148807768Y-29345113D01*
X148792720Y-29424375D01*
X148777805Y-29502243D01*
X148764039Y-29573370D01*
X148752438Y-29632412D01*
X148744020Y-29674022D01*
X148739801Y-29692857D01*
X148738611Y-29695980D01*
X148732195Y-29703591D01*
X148718535Y-29709254D01*
X148694001Y-29713251D01*
X148654962Y-29715866D01*
X148597787Y-29717384D01*
X148518846Y-29718086D01*
X148414508Y-29718257D01*
X148097201Y-29718257D01*
X148082161Y-29642057D01*
X148080358Y-29632840D01*
X148071020Y-29583891D01*
X148058331Y-29516205D01*
X148043727Y-29437478D01*
X148028645Y-29355400D01*
X148022578Y-29323078D01*
X148007819Y-29250855D01*
X147993863Y-29190666D01*
X147982048Y-29148040D01*
X147973713Y-29128510D01*
X147960095Y-29119660D01*
X147924062Y-29103548D01*
X147877428Y-29087065D01*
X147859966Y-29081263D01*
X147802642Y-29059906D01*
X147734799Y-29032359D01*
X147667645Y-29003107D01*
X147632570Y-28987463D01*
X147580178Y-28965174D01*
X147540942Y-28949857D01*
X147521437Y-28944162D01*
X147519964Y-28944478D01*
X147499271Y-28955281D01*
X147459335Y-28979638D01*
X147404028Y-29015081D01*
X147337219Y-29059136D01*
X147262780Y-29109332D01*
X147020377Y-29274501D01*
X146803017Y-29057503D01*
X146782101Y-29036516D01*
X146719495Y-28972342D01*
X146665505Y-28914990D01*
X146623174Y-28867820D01*
X146595543Y-28834192D01*
X146585657Y-28817467D01*
X146593179Y-28799303D01*
X146614773Y-28761265D01*
X146647849Y-28707726D01*
X146689809Y-28642884D01*
X146738057Y-28570940D01*
X146785709Y-28500275D01*
X146827672Y-28436526D01*
X146860835Y-28384513D01*
X146882622Y-28348279D01*
X146890457Y-28331867D01*
X146890386Y-28330905D01*
X146882662Y-28309103D01*
X146864677Y-28270440D01*
X146839987Y-28222612D01*
X146839716Y-28222110D01*
X146807901Y-28158587D01*
X146792358Y-28115060D01*
X146792315Y-28088052D01*
X146807000Y-28074090D01*
X146821456Y-28068180D01*
X146860169Y-28052229D01*
X146919684Y-28027660D01*
X146996835Y-27995779D01*
X147088459Y-27957893D01*
X147191393Y-27915310D01*
X147302474Y-27869337D01*
X147403528Y-27827667D01*
X147507220Y-27785268D01*
X147599881Y-27747756D01*
X147678358Y-27716388D01*
X147739500Y-27692425D01*
X147780157Y-27677123D01*
X147797175Y-27671743D01*
X147812781Y-27682018D01*
X147838838Y-27710563D01*
X147869113Y-27750971D01*
X147948316Y-27847979D01*
X148049525Y-27934793D01*
X148160884Y-27998322D01*
X148279107Y-28038177D01*
X148400905Y-28053965D01*
X148522990Y-28045296D01*
X148642075Y-28011778D01*
X148754871Y-27953021D01*
X148858089Y-27868632D01*
X148898287Y-27824631D01*
X148969362Y-27719211D01*
X149015699Y-27606410D01*
X149038401Y-27489525D01*
X149038572Y-27371853D01*
X149017313Y-27256690D01*
X148975730Y-27147335D01*
X148914924Y-27047083D01*
X148835999Y-26959233D01*
X148740059Y-26887080D01*
X148628205Y-26833922D01*
X148501543Y-26803057D01*
X148440493Y-26797392D01*
X148308224Y-26805185D01*
X148182734Y-26840284D01*
X148066241Y-26901649D01*
X147960961Y-26988243D01*
X147869113Y-27099029D01*
X147840070Y-27137931D01*
X147813728Y-27167104D01*
X147797200Y-27178257D01*
X147782791Y-27173810D01*
X147744185Y-27159378D01*
X147684799Y-27136173D01*
X147607785Y-27105452D01*
X147516297Y-27068474D01*
X147413484Y-27026496D01*
X147302498Y-26980778D01*
X147201928Y-26939178D01*
X147098053Y-26896222D01*
X147005181Y-26857829D01*
X146926475Y-26825305D01*
X146865101Y-26799958D01*
X146824221Y-26783095D01*
X146807000Y-26776025D01*
X146806796Y-26775943D01*
X146792255Y-26761798D01*
X146792421Y-26734659D01*
X146808073Y-26691023D01*
X146839987Y-26627388D01*
X146842674Y-26622379D01*
X146866850Y-26575125D01*
X146883963Y-26537811D01*
X146890457Y-26518133D01*
X146882782Y-26502005D01*
X146861129Y-26465959D01*
X146828072Y-26414092D01*
X146786190Y-26350445D01*
X146738057Y-26279060D01*
X146690869Y-26208724D01*
X146648733Y-26143670D01*
X146615422Y-26089820D01*
X146593531Y-26051374D01*
X146585657Y-26032534D01*
X146586657Y-26029325D01*
X146602416Y-26006954D01*
X146634967Y-25968733D01*
X146681267Y-25918021D01*
X146738274Y-25858181D01*
X146802942Y-25792571D01*
X147020228Y-25575648D01*
X147268747Y-25744601D01*
X147517267Y-25913553D01*
X147628405Y-25862183D01*
X147628734Y-25862031D01*
X147699582Y-25831183D01*
X147778477Y-25799661D01*
X147848400Y-25774266D01*
X147859678Y-25770423D01*
X147912033Y-25751047D01*
X147952717Y-25733574D01*
X147973713Y-25721388D01*
X147976678Y-25716426D01*
X147986625Y-25686634D01*
X147999495Y-25636047D01*
X148013947Y-25570194D01*
X148028645Y-25494600D01*
X148032790Y-25471957D01*
X148047884Y-25390038D01*
X148062101Y-25313600D01*
X148074005Y-25250337D01*
X148082161Y-25207943D01*
X148097201Y-25131743D01*
X148414508Y-25131743D01*
X148453524Y-25131760D01*
G37*
X148453524Y-25131760D02*
X148548708Y-25132082D01*
X148619745Y-25133033D01*
X148670266Y-25134896D01*
X148703902Y-25137955D01*
X148724282Y-25142494D01*
X148735038Y-25148795D01*
X148739801Y-25157143D01*
X148741730Y-25165224D01*
X148748555Y-25198172D01*
X148758978Y-25250736D01*
X148771982Y-25317569D01*
X148786551Y-25393328D01*
X148801667Y-25472665D01*
X148816315Y-25550237D01*
X148829477Y-25620698D01*
X148840137Y-25678702D01*
X148847279Y-25718904D01*
X148849886Y-25735959D01*
X148851459Y-25737112D01*
X148871881Y-25746385D01*
X148910955Y-25762432D01*
X148962371Y-25782635D01*
X149031647Y-25810672D01*
X149111710Y-25845186D01*
X149182272Y-25877538D01*
X149198111Y-25884952D01*
X149247707Y-25905755D01*
X149285962Y-25918219D01*
X149305644Y-25919863D01*
X149307038Y-25919015D01*
X149327580Y-25905548D01*
X149367484Y-25878850D01*
X149422860Y-25841539D01*
X149489823Y-25796234D01*
X149564483Y-25745552D01*
X149649308Y-25688445D01*
X149715200Y-25645607D01*
X149763522Y-25616460D01*
X149797267Y-25599317D01*
X149819428Y-25592495D01*
X149832998Y-25594306D01*
X149834016Y-25594915D01*
X149853790Y-25611297D01*
X149889825Y-25644695D01*
X149938549Y-25691671D01*
X149996388Y-25748786D01*
X150059773Y-25812603D01*
X150124095Y-25878802D01*
X150184553Y-25943648D01*
X150225345Y-25991299D01*
X150247516Y-26022990D01*
X150252111Y-26039958D01*
X150251079Y-26042175D01*
X150237163Y-26065524D01*
X150209970Y-26107912D01*
X150172111Y-26165369D01*
X150126197Y-26233923D01*
X150074840Y-26309601D01*
X149906374Y-26556298D01*
X149956938Y-26667706D01*
X149958403Y-26670943D01*
X149988035Y-26739343D01*
X150017507Y-26811907D01*
X150040642Y-26873457D01*
X150040738Y-26873729D01*
X150058633Y-26922595D01*
X150073747Y-26960212D01*
X150082816Y-26978457D01*
X150083145Y-26978752D01*
X150101718Y-26984946D01*
X150143955Y-26995139D01*
X150205304Y-27008348D01*
X150281211Y-27023590D01*
X150367125Y-27039881D01*
X150370204Y-27040449D01*
X150457872Y-27056713D01*
X150537259Y-27071608D01*
X150603299Y-27084171D01*
X150650921Y-27093438D01*
X150675057Y-27098444D01*
X150676395Y-27098764D01*
X150686727Y-27102060D01*
X150694494Y-27108738D01*
X150700060Y-27122462D01*
X150703793Y-27146895D01*
X150706058Y-27185702D01*
X150707222Y-27242546D01*
X150707652Y-27321090D01*
X150707714Y-27425000D01*
X150707714Y-27438056D01*
X150707629Y-27538933D01*
X150707135Y-27614856D01*
X150705865Y-27669491D01*
X150703453Y-27706500D01*
X150699533Y-27729547D01*
X150693738Y-27742296D01*
X150685701Y-27748411D01*
X150675057Y-27751556D01*
X150674675Y-27751646D01*
X150649653Y-27756814D01*
X150601319Y-27766209D01*
X150534740Y-27778867D01*
X150454986Y-27793825D01*
X150367125Y-27810119D01*
X150359936Y-27811448D01*
X150274660Y-27827691D01*
X150199758Y-27842805D01*
X150139781Y-27855808D01*
X150099283Y-27865715D01*
X150082816Y-27871544D01*
X150082790Y-27871575D01*
X150073680Y-27889943D01*
X150058543Y-27927640D01*
X150040642Y-27976543D01*
X150039670Y-27979297D01*
X150016041Y-28041817D01*
X149986405Y-28114543D01*
X149956938Y-28182294D01*
X149906374Y-28293703D01*
X150074840Y-28540399D01*
X150086689Y-28557775D01*
X150137053Y-28632202D01*
X150181388Y-28698614D01*
X150217084Y-28753039D01*
X150241529Y-28791506D01*
X150252111Y-28810042D01*
X150249685Y-28822743D01*
X150230890Y-28851579D01*
X150193670Y-28896143D01*
X150136980Y-28957670D01*
X150059773Y-29037398D01*
X150052745Y-29044532D01*
X149989778Y-29107796D01*
X149932732Y-29163990D01*
X149885183Y-29209677D01*
X149850703Y-29241414D01*
X149832869Y-29255764D01*
X149832783Y-29255810D01*
X149819205Y-29257633D01*
X149797180Y-29250910D01*
X149763696Y-29233946D01*
X149715739Y-29205044D01*
X149650296Y-29162508D01*
X149564355Y-29104644D01*
X149549849Y-29094783D01*
X149476365Y-29044913D01*
X149411313Y-29000905D01*
X149358583Y-28965380D01*
X149322064Y-28940959D01*
X149305644Y-28930264D01*
X149302166Y-28929458D01*
X149276215Y-28934518D01*
X149233841Y-28949677D01*
X149182272Y-28972463D01*
X149114830Y-29003429D01*
X149034805Y-29038004D01*
X148962371Y-29067366D01*
X148943623Y-29074645D01*
X148895754Y-29093710D01*
X148862404Y-29107715D01*
X148849886Y-29114041D01*
X148848950Y-29121025D01*
X148843539Y-29152413D01*
X148834194Y-29203787D01*
X148821931Y-29269802D01*
X148807768Y-29345113D01*
X148792720Y-29424375D01*
X148777805Y-29502243D01*
X148764039Y-29573370D01*
X148752438Y-29632412D01*
X148744020Y-29674022D01*
X148739801Y-29692857D01*
X148738611Y-29695980D01*
X148732195Y-29703591D01*
X148718535Y-29709254D01*
X148694001Y-29713251D01*
X148654962Y-29715866D01*
X148597787Y-29717384D01*
X148518846Y-29718086D01*
X148414508Y-29718257D01*
X148097201Y-29718257D01*
X148082161Y-29642057D01*
X148080358Y-29632840D01*
X148071020Y-29583891D01*
X148058331Y-29516205D01*
X148043727Y-29437478D01*
X148028645Y-29355400D01*
X148022578Y-29323078D01*
X148007819Y-29250855D01*
X147993863Y-29190666D01*
X147982048Y-29148040D01*
X147973713Y-29128510D01*
X147960095Y-29119660D01*
X147924062Y-29103548D01*
X147877428Y-29087065D01*
X147859966Y-29081263D01*
X147802642Y-29059906D01*
X147734799Y-29032359D01*
X147667645Y-29003107D01*
X147632570Y-28987463D01*
X147580178Y-28965174D01*
X147540942Y-28949857D01*
X147521437Y-28944162D01*
X147519964Y-28944478D01*
X147499271Y-28955281D01*
X147459335Y-28979638D01*
X147404028Y-29015081D01*
X147337219Y-29059136D01*
X147262780Y-29109332D01*
X147020377Y-29274501D01*
X146803017Y-29057503D01*
X146782101Y-29036516D01*
X146719495Y-28972342D01*
X146665505Y-28914990D01*
X146623174Y-28867820D01*
X146595543Y-28834192D01*
X146585657Y-28817467D01*
X146593179Y-28799303D01*
X146614773Y-28761265D01*
X146647849Y-28707726D01*
X146689809Y-28642884D01*
X146738057Y-28570940D01*
X146785709Y-28500275D01*
X146827672Y-28436526D01*
X146860835Y-28384513D01*
X146882622Y-28348279D01*
X146890457Y-28331867D01*
X146890386Y-28330905D01*
X146882662Y-28309103D01*
X146864677Y-28270440D01*
X146839987Y-28222612D01*
X146839716Y-28222110D01*
X146807901Y-28158587D01*
X146792358Y-28115060D01*
X146792315Y-28088052D01*
X146807000Y-28074090D01*
X146821456Y-28068180D01*
X146860169Y-28052229D01*
X146919684Y-28027660D01*
X146996835Y-27995779D01*
X147088459Y-27957893D01*
X147191393Y-27915310D01*
X147302474Y-27869337D01*
X147403528Y-27827667D01*
X147507220Y-27785268D01*
X147599881Y-27747756D01*
X147678358Y-27716388D01*
X147739500Y-27692425D01*
X147780157Y-27677123D01*
X147797175Y-27671743D01*
X147812781Y-27682018D01*
X147838838Y-27710563D01*
X147869113Y-27750971D01*
X147948316Y-27847979D01*
X148049525Y-27934793D01*
X148160884Y-27998322D01*
X148279107Y-28038177D01*
X148400905Y-28053965D01*
X148522990Y-28045296D01*
X148642075Y-28011778D01*
X148754871Y-27953021D01*
X148858089Y-27868632D01*
X148898287Y-27824631D01*
X148969362Y-27719211D01*
X149015699Y-27606410D01*
X149038401Y-27489525D01*
X149038572Y-27371853D01*
X149017313Y-27256690D01*
X148975730Y-27147335D01*
X148914924Y-27047083D01*
X148835999Y-26959233D01*
X148740059Y-26887080D01*
X148628205Y-26833922D01*
X148501543Y-26803057D01*
X148440493Y-26797392D01*
X148308224Y-26805185D01*
X148182734Y-26840284D01*
X148066241Y-26901649D01*
X147960961Y-26988243D01*
X147869113Y-27099029D01*
X147840070Y-27137931D01*
X147813728Y-27167104D01*
X147797200Y-27178257D01*
X147782791Y-27173810D01*
X147744185Y-27159378D01*
X147684799Y-27136173D01*
X147607785Y-27105452D01*
X147516297Y-27068474D01*
X147413484Y-27026496D01*
X147302498Y-26980778D01*
X147201928Y-26939178D01*
X147098053Y-26896222D01*
X147005181Y-26857829D01*
X146926475Y-26825305D01*
X146865101Y-26799958D01*
X146824221Y-26783095D01*
X146807000Y-26776025D01*
X146806796Y-26775943D01*
X146792255Y-26761798D01*
X146792421Y-26734659D01*
X146808073Y-26691023D01*
X146839987Y-26627388D01*
X146842674Y-26622379D01*
X146866850Y-26575125D01*
X146883963Y-26537811D01*
X146890457Y-26518133D01*
X146882782Y-26502005D01*
X146861129Y-26465959D01*
X146828072Y-26414092D01*
X146786190Y-26350445D01*
X146738057Y-26279060D01*
X146690869Y-26208724D01*
X146648733Y-26143670D01*
X146615422Y-26089820D01*
X146593531Y-26051374D01*
X146585657Y-26032534D01*
X146586657Y-26029325D01*
X146602416Y-26006954D01*
X146634967Y-25968733D01*
X146681267Y-25918021D01*
X146738274Y-25858181D01*
X146802942Y-25792571D01*
X147020228Y-25575648D01*
X147268747Y-25744601D01*
X147517267Y-25913553D01*
X147628405Y-25862183D01*
X147628734Y-25862031D01*
X147699582Y-25831183D01*
X147778477Y-25799661D01*
X147848400Y-25774266D01*
X147859678Y-25770423D01*
X147912033Y-25751047D01*
X147952717Y-25733574D01*
X147973713Y-25721388D01*
X147976678Y-25716426D01*
X147986625Y-25686634D01*
X147999495Y-25636047D01*
X148013947Y-25570194D01*
X148028645Y-25494600D01*
X148032790Y-25471957D01*
X148047884Y-25390038D01*
X148062101Y-25313600D01*
X148074005Y-25250337D01*
X148082161Y-25207943D01*
X148097201Y-25131743D01*
X148414508Y-25131743D01*
X148453524Y-25131760D01*
X145993665Y-25280124D02*
X145974656Y-25238333D01*
X145974656Y-25238333D02*
X145951622Y-25205531D01*
X145951622Y-25205531D02*
X145925867Y-25181497D01*
X145925867Y-25181497D02*
X145892642Y-25164903D01*
X145892642Y-25164903D02*
X145847200Y-25154423D01*
X145847200Y-25154423D02*
X145784793Y-25148729D01*
X145784793Y-25148729D02*
X145700673Y-25146493D01*
X145700673Y-25146493D02*
X145645279Y-25146257D01*
X145645279Y-25146257D02*
X145429174Y-25146257D01*
X145429174Y-25146257D02*
X145412330Y-25183226D01*
X145412330Y-25183226D02*
X145400019Y-25212344D01*
X145400019Y-25212344D02*
X145395486Y-25226769D01*
X145395486Y-25226769D02*
X145408975Y-25229528D01*
X145408975Y-25229528D02*
X145445347Y-25231718D01*
X145445347Y-25231718D02*
X145498458Y-25233058D01*
X145498458Y-25233058D02*
X145540628Y-25233343D01*
X145540628Y-25233343D02*
X145601553Y-25234566D01*
X145601553Y-25234566D02*
X145649885Y-25237864D01*
X145649885Y-25237864D02*
X145679482Y-25242679D01*
X145679482Y-25242679D02*
X145685771Y-25246504D01*
X145685771Y-25246504D02*
X145679348Y-25272217D01*
X145679348Y-25272217D02*
X145662875Y-25312582D01*
X145662875Y-25312582D02*
X145640542Y-25359321D01*
X145640542Y-25359321D02*
X145616543Y-25404155D01*
X145616543Y-25404155D02*
X145595070Y-25438807D01*
X145595070Y-25438807D02*
X145580315Y-25454998D01*
X145580315Y-25454998D02*
X145580155Y-25455062D01*
X145580155Y-25455062D02*
X145552848Y-25453670D01*
X145552848Y-25453670D02*
X145526781Y-25441182D01*
X145526781Y-25441182D02*
X145505608Y-25419257D01*
X145505608Y-25419257D02*
X145498526Y-25387257D01*
X145498526Y-25387257D02*
X145499351Y-25359908D01*
X145499351Y-25359908D02*
X145499958Y-25321174D01*
X145499958Y-25321174D02*
X145490884Y-25300842D01*
X145490884Y-25300842D02*
X145466908Y-25288631D01*
X145466908Y-25288631D02*
X145462387Y-25287091D01*
X145462387Y-25287091D02*
X145428194Y-25281797D01*
X145428194Y-25281797D02*
X145407432Y-25295953D01*
X145407432Y-25295953D02*
X145397538Y-25332852D01*
X145397538Y-25332852D02*
X145395708Y-25372711D01*
X145395708Y-25372711D02*
X145409273Y-25444438D01*
X145409273Y-25444438D02*
X145428645Y-25481568D01*
X145428645Y-25481568D02*
X145474155Y-25527424D01*
X145474155Y-25527424D02*
X145530017Y-25551744D01*
X145530017Y-25551744D02*
X145589043Y-25553927D01*
X145589043Y-25553927D02*
X145644047Y-25533371D01*
X145644047Y-25533371D02*
X145678514Y-25502451D01*
X145678514Y-25502451D02*
X145697811Y-25471580D01*
X145697811Y-25471580D02*
X145722241Y-25423058D01*
X145722241Y-25423058D02*
X145747015Y-25366515D01*
X145747015Y-25366515D02*
X145750801Y-25357090D01*
X145750801Y-25357090D02*
X145778209Y-25294981D01*
X145778209Y-25294981D02*
X145802366Y-25259178D01*
X145802366Y-25259178D02*
X145826381Y-25247663D01*
X145826381Y-25247663D02*
X145853365Y-25258420D01*
X145853365Y-25258420D02*
X145874457Y-25276886D01*
X145874457Y-25276886D02*
X145900428Y-25320531D01*
X145900428Y-25320531D02*
X145902376Y-25368554D01*
X145902376Y-25368554D02*
X145882363Y-25412594D01*
X145882363Y-25412594D02*
X145842449Y-25444291D01*
X145842449Y-25444291D02*
X145832152Y-25448451D01*
X145832152Y-25448451D02*
X145794276Y-25472673D01*
X145794276Y-25472673D02*
X145766158Y-25508035D01*
X145766158Y-25508035D02*
X145743083Y-25552657D01*
X145743083Y-25552657D02*
X145808515Y-25552657D01*
X145808515Y-25552657D02*
X145848494Y-25550031D01*
X145848494Y-25550031D02*
X145880003Y-25538770D01*
X145880003Y-25538770D02*
X145913622Y-25513801D01*
X145913622Y-25513801D02*
X145939516Y-25489831D01*
X145939516Y-25489831D02*
X145976183Y-25452559D01*
X145976183Y-25452559D02*
X145995879Y-25423599D01*
X145995879Y-25423599D02*
X146003780Y-25392495D01*
X146003780Y-25392495D02*
X146005086Y-25357287D01*
X146005086Y-25357287D02*
X145993665Y-25280124D01*
X145993665Y-25280124D02*
X145993665Y-25280124D01*
G36*
X145700673Y-25146493D02*
G01*
X145784793Y-25148729D01*
X145847200Y-25154423D01*
X145892642Y-25164903D01*
X145925867Y-25181497D01*
X145951622Y-25205531D01*
X145974656Y-25238333D01*
X145993665Y-25280124D01*
X146005086Y-25357287D01*
X146003780Y-25392495D01*
X145995879Y-25423599D01*
X145976183Y-25452559D01*
X145939516Y-25489831D01*
X145913622Y-25513801D01*
X145880003Y-25538770D01*
X145848494Y-25550031D01*
X145808515Y-25552657D01*
X145743083Y-25552657D01*
X145766158Y-25508035D01*
X145794276Y-25472673D01*
X145832152Y-25448451D01*
X145842449Y-25444291D01*
X145882363Y-25412594D01*
X145902376Y-25368554D01*
X145900428Y-25320531D01*
X145874457Y-25276886D01*
X145853365Y-25258420D01*
X145826381Y-25247663D01*
X145802366Y-25259178D01*
X145778209Y-25294981D01*
X145750801Y-25357090D01*
X145747015Y-25366515D01*
X145722241Y-25423058D01*
X145697811Y-25471580D01*
X145678514Y-25502451D01*
X145644047Y-25533371D01*
X145589043Y-25553927D01*
X145530017Y-25551744D01*
X145474155Y-25527424D01*
X145428645Y-25481568D01*
X145409273Y-25444438D01*
X145395708Y-25372711D01*
X145397538Y-25332852D01*
X145407432Y-25295953D01*
X145428194Y-25281797D01*
X145462387Y-25287091D01*
X145466908Y-25288631D01*
X145490884Y-25300842D01*
X145499958Y-25321174D01*
X145499351Y-25359908D01*
X145498526Y-25387257D01*
X145505608Y-25419257D01*
X145526781Y-25441182D01*
X145552848Y-25453670D01*
X145580155Y-25455062D01*
X145580315Y-25454998D01*
X145595070Y-25438807D01*
X145616543Y-25404155D01*
X145640542Y-25359321D01*
X145662875Y-25312582D01*
X145679348Y-25272217D01*
X145685771Y-25246504D01*
X145679482Y-25242679D01*
X145649885Y-25237864D01*
X145601553Y-25234566D01*
X145540628Y-25233343D01*
X145498458Y-25233058D01*
X145445347Y-25231718D01*
X145408975Y-25229528D01*
X145395486Y-25226769D01*
X145400019Y-25212344D01*
X145412330Y-25183226D01*
X145429174Y-25146257D01*
X145645279Y-25146257D01*
X145700673Y-25146493D01*
G37*
X145700673Y-25146493D02*
X145784793Y-25148729D01*
X145847200Y-25154423D01*
X145892642Y-25164903D01*
X145925867Y-25181497D01*
X145951622Y-25205531D01*
X145974656Y-25238333D01*
X145993665Y-25280124D01*
X146005086Y-25357287D01*
X146003780Y-25392495D01*
X145995879Y-25423599D01*
X145976183Y-25452559D01*
X145939516Y-25489831D01*
X145913622Y-25513801D01*
X145880003Y-25538770D01*
X145848494Y-25550031D01*
X145808515Y-25552657D01*
X145743083Y-25552657D01*
X145766158Y-25508035D01*
X145794276Y-25472673D01*
X145832152Y-25448451D01*
X145842449Y-25444291D01*
X145882363Y-25412594D01*
X145902376Y-25368554D01*
X145900428Y-25320531D01*
X145874457Y-25276886D01*
X145853365Y-25258420D01*
X145826381Y-25247663D01*
X145802366Y-25259178D01*
X145778209Y-25294981D01*
X145750801Y-25357090D01*
X145747015Y-25366515D01*
X145722241Y-25423058D01*
X145697811Y-25471580D01*
X145678514Y-25502451D01*
X145644047Y-25533371D01*
X145589043Y-25553927D01*
X145530017Y-25551744D01*
X145474155Y-25527424D01*
X145428645Y-25481568D01*
X145409273Y-25444438D01*
X145395708Y-25372711D01*
X145397538Y-25332852D01*
X145407432Y-25295953D01*
X145428194Y-25281797D01*
X145462387Y-25287091D01*
X145466908Y-25288631D01*
X145490884Y-25300842D01*
X145499958Y-25321174D01*
X145499351Y-25359908D01*
X145498526Y-25387257D01*
X145505608Y-25419257D01*
X145526781Y-25441182D01*
X145552848Y-25453670D01*
X145580155Y-25455062D01*
X145580315Y-25454998D01*
X145595070Y-25438807D01*
X145616543Y-25404155D01*
X145640542Y-25359321D01*
X145662875Y-25312582D01*
X145679348Y-25272217D01*
X145685771Y-25246504D01*
X145679482Y-25242679D01*
X145649885Y-25237864D01*
X145601553Y-25234566D01*
X145540628Y-25233343D01*
X145498458Y-25233058D01*
X145445347Y-25231718D01*
X145408975Y-25229528D01*
X145395486Y-25226769D01*
X145400019Y-25212344D01*
X145412330Y-25183226D01*
X145429174Y-25146257D01*
X145645279Y-25146257D01*
X145700673Y-25146493D01*
X146018761Y-29256697D02*
X145980265Y-29199473D01*
X145980265Y-29199473D02*
X145924665Y-29155251D01*
X145924665Y-29155251D02*
X145853914Y-29128833D01*
X145853914Y-29128833D02*
X145801838Y-29123490D01*
X145801838Y-29123490D02*
X145780107Y-29124097D01*
X145780107Y-29124097D02*
X145763469Y-29129178D01*
X145763469Y-29129178D02*
X145748563Y-29143145D01*
X145748563Y-29143145D02*
X145732027Y-29170411D01*
X145732027Y-29170411D02*
X145710502Y-29215388D01*
X145710502Y-29215388D02*
X145680626Y-29282489D01*
X145680626Y-29282489D02*
X145680476Y-29282829D01*
X145680476Y-29282829D02*
X145652187Y-29344593D01*
X145652187Y-29344593D02*
X145627067Y-29395241D01*
X145627067Y-29395241D02*
X145607821Y-29429596D01*
X145607821Y-29429596D02*
X145597152Y-29442482D01*
X145597152Y-29442482D02*
X145597066Y-29442486D01*
X145597066Y-29442486D02*
X145573834Y-29431128D01*
X145573834Y-29431128D02*
X145548226Y-29404569D01*
X145548226Y-29404569D02*
X145529779Y-29374077D01*
X145529779Y-29374077D02*
X145526114Y-29358630D01*
X145526114Y-29358630D02*
X145538788Y-29316485D01*
X145538788Y-29316485D02*
X145570529Y-29280192D01*
X145570529Y-29280192D02*
X145605428Y-29262483D01*
X145605428Y-29262483D02*
X145631155Y-29245448D01*
X145631155Y-29245448D02*
X145660454Y-29212078D01*
X145660454Y-29212078D02*
X145685765Y-29172851D01*
X145685765Y-29172851D02*
X145699529Y-29138244D01*
X145699529Y-29138244D02*
X145700286Y-29131007D01*
X145700286Y-29131007D02*
X145687840Y-29122861D01*
X145687840Y-29122861D02*
X145656028Y-29122370D01*
X145656028Y-29122370D02*
X145613134Y-29128357D01*
X145613134Y-29128357D02*
X145567442Y-29139643D01*
X145567442Y-29139643D02*
X145527239Y-29155050D01*
X145527239Y-29155050D02*
X145525678Y-29155829D01*
X145525678Y-29155829D02*
X145460938Y-29202196D01*
X145460938Y-29202196D02*
X145416903Y-29262289D01*
X145416903Y-29262289D02*
X145395289Y-29330535D01*
X145395289Y-29330535D02*
X145397815Y-29401362D01*
X145397815Y-29401362D02*
X145426196Y-29469196D01*
X145426196Y-29469196D02*
X145428192Y-29472212D01*
X145428192Y-29472212D02*
X145476552Y-29525573D01*
X145476552Y-29525573D02*
X145539648Y-29560660D01*
X145539648Y-29560660D02*
X145622613Y-29580078D01*
X145622613Y-29580078D02*
X145645922Y-29582684D01*
X145645922Y-29582684D02*
X145755945Y-29587299D01*
X145755945Y-29587299D02*
X145807252Y-29581767D01*
X145807252Y-29581767D02*
X145807252Y-29442486D01*
X145807252Y-29442486D02*
X145775247Y-29440676D01*
X145775247Y-29440676D02*
X145765907Y-29430778D01*
X145765907Y-29430778D02*
X145772895Y-29406102D01*
X145772895Y-29406102D02*
X145789413Y-29367205D01*
X145789413Y-29367205D02*
X145810119Y-29323725D01*
X145810119Y-29323725D02*
X145810667Y-29322644D01*
X145810667Y-29322644D02*
X145830051Y-29285791D01*
X145830051Y-29285791D02*
X145842987Y-29271000D01*
X145842987Y-29271000D02*
X145856549Y-29274647D01*
X145856549Y-29274647D02*
X145874368Y-29290005D01*
X145874368Y-29290005D02*
X145900155Y-29329077D01*
X145900155Y-29329077D02*
X145902050Y-29371154D01*
X145902050Y-29371154D02*
X145883283Y-29408897D01*
X145883283Y-29408897D02*
X145847085Y-29434966D01*
X145847085Y-29434966D02*
X145807252Y-29442486D01*
X145807252Y-29442486D02*
X145807252Y-29581767D01*
X145807252Y-29581767D02*
X145843973Y-29577806D01*
X145843973Y-29577806D02*
X145913788Y-29553450D01*
X145913788Y-29553450D02*
X145962698Y-29519544D01*
X145962698Y-29519544D02*
X146012122Y-29458347D01*
X146012122Y-29458347D02*
X146036641Y-29390937D01*
X146036641Y-29390937D02*
X146038203Y-29322120D01*
X146038203Y-29322120D02*
X146018761Y-29256697D01*
X146018761Y-29256697D02*
X146018761Y-29256697D01*
G36*
X145755945Y-29587299D02*
G01*
X145645922Y-29582684D01*
X145622613Y-29580078D01*
X145539648Y-29560660D01*
X145476552Y-29525573D01*
X145428192Y-29472212D01*
X145426196Y-29469196D01*
X145397815Y-29401362D01*
X145395289Y-29330535D01*
X145416903Y-29262289D01*
X145460938Y-29202196D01*
X145525678Y-29155829D01*
X145527239Y-29155050D01*
X145567442Y-29139643D01*
X145613134Y-29128357D01*
X145656028Y-29122370D01*
X145687840Y-29122861D01*
X145700286Y-29131007D01*
X145699529Y-29138244D01*
X145685765Y-29172851D01*
X145660454Y-29212078D01*
X145631155Y-29245448D01*
X145605428Y-29262483D01*
X145570529Y-29280192D01*
X145538788Y-29316485D01*
X145526114Y-29358630D01*
X145529779Y-29374077D01*
X145548226Y-29404569D01*
X145573834Y-29431128D01*
X145597066Y-29442486D01*
X145597152Y-29442482D01*
X145606842Y-29430778D01*
X145765907Y-29430778D01*
X145775247Y-29440676D01*
X145807252Y-29442486D01*
X145847085Y-29434966D01*
X145883283Y-29408897D01*
X145902050Y-29371154D01*
X145900155Y-29329077D01*
X145874368Y-29290005D01*
X145856549Y-29274647D01*
X145842987Y-29271000D01*
X145830051Y-29285791D01*
X145810667Y-29322644D01*
X145810119Y-29323725D01*
X145789413Y-29367205D01*
X145772895Y-29406102D01*
X145765907Y-29430778D01*
X145606842Y-29430778D01*
X145607821Y-29429596D01*
X145627067Y-29395241D01*
X145652187Y-29344593D01*
X145680476Y-29282829D01*
X145680626Y-29282489D01*
X145710502Y-29215388D01*
X145732027Y-29170411D01*
X145748563Y-29143145D01*
X145763469Y-29129178D01*
X145780107Y-29124097D01*
X145801838Y-29123490D01*
X145853914Y-29128833D01*
X145924665Y-29155251D01*
X145980265Y-29199473D01*
X146018761Y-29256697D01*
X146038203Y-29322120D01*
X146036641Y-29390937D01*
X146012122Y-29458347D01*
X145962698Y-29519544D01*
X145913788Y-29553450D01*
X145843973Y-29577806D01*
X145807252Y-29581767D01*
X145755945Y-29587299D01*
G37*
X145755945Y-29587299D02*
X145645922Y-29582684D01*
X145622613Y-29580078D01*
X145539648Y-29560660D01*
X145476552Y-29525573D01*
X145428192Y-29472212D01*
X145426196Y-29469196D01*
X145397815Y-29401362D01*
X145395289Y-29330535D01*
X145416903Y-29262289D01*
X145460938Y-29202196D01*
X145525678Y-29155829D01*
X145527239Y-29155050D01*
X145567442Y-29139643D01*
X145613134Y-29128357D01*
X145656028Y-29122370D01*
X145687840Y-29122861D01*
X145700286Y-29131007D01*
X145699529Y-29138244D01*
X145685765Y-29172851D01*
X145660454Y-29212078D01*
X145631155Y-29245448D01*
X145605428Y-29262483D01*
X145570529Y-29280192D01*
X145538788Y-29316485D01*
X145526114Y-29358630D01*
X145529779Y-29374077D01*
X145548226Y-29404569D01*
X145573834Y-29431128D01*
X145597066Y-29442486D01*
X145597152Y-29442482D01*
X145606842Y-29430778D01*
X145765907Y-29430778D01*
X145775247Y-29440676D01*
X145807252Y-29442486D01*
X145847085Y-29434966D01*
X145883283Y-29408897D01*
X145902050Y-29371154D01*
X145900155Y-29329077D01*
X145874368Y-29290005D01*
X145856549Y-29274647D01*
X145842987Y-29271000D01*
X145830051Y-29285791D01*
X145810667Y-29322644D01*
X145810119Y-29323725D01*
X145789413Y-29367205D01*
X145772895Y-29406102D01*
X145765907Y-29430778D01*
X145606842Y-29430778D01*
X145607821Y-29429596D01*
X145627067Y-29395241D01*
X145652187Y-29344593D01*
X145680476Y-29282829D01*
X145680626Y-29282489D01*
X145710502Y-29215388D01*
X145732027Y-29170411D01*
X145748563Y-29143145D01*
X145763469Y-29129178D01*
X145780107Y-29124097D01*
X145801838Y-29123490D01*
X145853914Y-29128833D01*
X145924665Y-29155251D01*
X145980265Y-29199473D01*
X146018761Y-29256697D01*
X146038203Y-29322120D01*
X146036641Y-29390937D01*
X146012122Y-29458347D01*
X145962698Y-29519544D01*
X145913788Y-29553450D01*
X145843973Y-29577806D01*
X145807252Y-29581767D01*
X145755945Y-29587299D01*
X146000245Y-26895074D02*
X145975916Y-26829142D01*
X145975916Y-26829142D02*
X145932883Y-26775727D01*
X145932883Y-26775727D02*
X145902591Y-26754836D01*
X145902591Y-26754836D02*
X145847006Y-26732061D01*
X145847006Y-26732061D02*
X145806814Y-26732534D01*
X145806814Y-26732534D02*
X145779783Y-26756438D01*
X145779783Y-26756438D02*
X145775187Y-26765283D01*
X145775187Y-26765283D02*
X145760856Y-26803470D01*
X145760856Y-26803470D02*
X145764528Y-26822972D01*
X145764528Y-26822972D02*
X145788593Y-26829578D01*
X145788593Y-26829578D02*
X145801886Y-26829914D01*
X145801886Y-26829914D02*
X145850790Y-26842008D01*
X145850790Y-26842008D02*
X145885001Y-26873529D01*
X145885001Y-26873529D02*
X145901524Y-26917341D01*
X145901524Y-26917341D02*
X145897366Y-26966305D01*
X145897366Y-26966305D02*
X145875773Y-27006106D01*
X145875773Y-27006106D02*
X145863456Y-27019550D01*
X145863456Y-27019550D02*
X145848513Y-27029079D01*
X145848513Y-27029079D02*
X145825925Y-27035515D01*
X145825925Y-27035515D02*
X145790672Y-27039683D01*
X145790672Y-27039683D02*
X145737734Y-27042403D01*
X145737734Y-27042403D02*
X145662093Y-27044498D01*
X145662093Y-27044498D02*
X145638143Y-27045040D01*
X145638143Y-27045040D02*
X145556210Y-27047019D01*
X145556210Y-27047019D02*
X145498545Y-27049269D01*
X145498545Y-27049269D02*
X145460392Y-27052643D01*
X145460392Y-27052643D02*
X145436996Y-27057994D01*
X145436996Y-27057994D02*
X145423602Y-27066176D01*
X145423602Y-27066176D02*
X145415455Y-27078041D01*
X145415455Y-27078041D02*
X145411856Y-27085638D01*
X145411856Y-27085638D02*
X145399548Y-27117898D01*
X145399548Y-27117898D02*
X145395486Y-27136889D01*
X145395486Y-27136889D02*
X145409052Y-27143164D01*
X145409052Y-27143164D02*
X145450066Y-27146994D01*
X145450066Y-27146994D02*
X145519001Y-27148400D01*
X145519001Y-27148400D02*
X145616331Y-27147402D01*
X145616331Y-27147402D02*
X145631343Y-27147092D01*
X145631343Y-27147092D02*
X145720141Y-27144899D01*
X145720141Y-27144899D02*
X145784981Y-27142307D01*
X145784981Y-27142307D02*
X145830933Y-27138618D01*
X145830933Y-27138618D02*
X145863065Y-27133136D01*
X145863065Y-27133136D02*
X145886447Y-27125165D01*
X145886447Y-27125165D02*
X145906148Y-27114007D01*
X145906148Y-27114007D02*
X145914590Y-27108170D01*
X145914590Y-27108170D02*
X145951943Y-27074704D01*
X145951943Y-27074704D02*
X145980997Y-27037273D01*
X145980997Y-27037273D02*
X145983533Y-27032691D01*
X145983533Y-27032691D02*
X146003557Y-26965574D01*
X146003557Y-26965574D02*
X146000245Y-26895074D01*
X146000245Y-26895074D02*
X146000245Y-26895074D01*
G36*
X145902591Y-26754836D02*
G01*
X145932883Y-26775727D01*
X145975916Y-26829142D01*
X146000245Y-26895074D01*
X146003557Y-26965574D01*
X145983533Y-27032691D01*
X145980997Y-27037273D01*
X145951943Y-27074704D01*
X145914590Y-27108170D01*
X145906148Y-27114007D01*
X145886447Y-27125165D01*
X145863065Y-27133136D01*
X145830933Y-27138618D01*
X145784981Y-27142307D01*
X145720141Y-27144899D01*
X145631343Y-27147092D01*
X145616331Y-27147402D01*
X145519001Y-27148400D01*
X145450066Y-27146994D01*
X145409052Y-27143164D01*
X145395486Y-27136889D01*
X145399548Y-27117898D01*
X145411856Y-27085638D01*
X145415455Y-27078041D01*
X145423602Y-27066176D01*
X145436996Y-27057994D01*
X145460392Y-27052643D01*
X145498545Y-27049269D01*
X145556210Y-27047019D01*
X145638143Y-27045040D01*
X145662093Y-27044498D01*
X145737734Y-27042403D01*
X145790672Y-27039683D01*
X145825925Y-27035515D01*
X145848513Y-27029079D01*
X145863456Y-27019550D01*
X145875773Y-27006106D01*
X145897366Y-26966305D01*
X145901524Y-26917341D01*
X145885001Y-26873529D01*
X145850790Y-26842008D01*
X145801886Y-26829914D01*
X145788593Y-26829578D01*
X145764528Y-26822972D01*
X145760856Y-26803470D01*
X145775187Y-26765283D01*
X145779783Y-26756438D01*
X145806814Y-26732534D01*
X145847006Y-26732061D01*
X145902591Y-26754836D01*
G37*
X145902591Y-26754836D02*
X145932883Y-26775727D01*
X145975916Y-26829142D01*
X146000245Y-26895074D01*
X146003557Y-26965574D01*
X145983533Y-27032691D01*
X145980997Y-27037273D01*
X145951943Y-27074704D01*
X145914590Y-27108170D01*
X145906148Y-27114007D01*
X145886447Y-27125165D01*
X145863065Y-27133136D01*
X145830933Y-27138618D01*
X145784981Y-27142307D01*
X145720141Y-27144899D01*
X145631343Y-27147092D01*
X145616331Y-27147402D01*
X145519001Y-27148400D01*
X145450066Y-27146994D01*
X145409052Y-27143164D01*
X145395486Y-27136889D01*
X145399548Y-27117898D01*
X145411856Y-27085638D01*
X145415455Y-27078041D01*
X145423602Y-27066176D01*
X145436996Y-27057994D01*
X145460392Y-27052643D01*
X145498545Y-27049269D01*
X145556210Y-27047019D01*
X145638143Y-27045040D01*
X145662093Y-27044498D01*
X145737734Y-27042403D01*
X145790672Y-27039683D01*
X145825925Y-27035515D01*
X145848513Y-27029079D01*
X145863456Y-27019550D01*
X145875773Y-27006106D01*
X145897366Y-26966305D01*
X145901524Y-26917341D01*
X145885001Y-26873529D01*
X145850790Y-26842008D01*
X145801886Y-26829914D01*
X145788593Y-26829578D01*
X145764528Y-26822972D01*
X145760856Y-26803470D01*
X145775187Y-26765283D01*
X145779783Y-26756438D01*
X145806814Y-26732534D01*
X145847006Y-26732061D01*
X145902591Y-26754836D01*
X146030082Y-29825256D02*
X146002432Y-29769799D01*
X146002432Y-29769799D02*
X145951520Y-29720852D01*
X145951520Y-29720852D02*
X145932662Y-29707371D01*
X145932662Y-29707371D02*
X145907985Y-29692686D01*
X145907985Y-29692686D02*
X145881184Y-29683158D01*
X145881184Y-29683158D02*
X145845413Y-29677707D01*
X145845413Y-29677707D02*
X145793831Y-29675253D01*
X145793831Y-29675253D02*
X145725733Y-29674714D01*
X145725733Y-29674714D02*
X145632412Y-29677148D01*
X145632412Y-29677148D02*
X145562343Y-29685606D01*
X145562343Y-29685606D02*
X145510069Y-29701826D01*
X145510069Y-29701826D02*
X145470131Y-29727546D01*
X145470131Y-29727546D02*
X145437071Y-29764503D01*
X145437071Y-29764503D02*
X145435114Y-29767218D01*
X145435114Y-29767218D02*
X145415092Y-29803640D01*
X145415092Y-29803640D02*
X145405185Y-29847498D01*
X145405185Y-29847498D02*
X145402743Y-29903276D01*
X145402743Y-29903276D02*
X145402743Y-29993952D01*
X145402743Y-29993952D02*
X145314717Y-29993990D01*
X145314717Y-29993990D02*
X145265692Y-29994834D01*
X145265692Y-29994834D02*
X145236935Y-29999976D01*
X145236935Y-29999976D02*
X145219689Y-30013413D01*
X145219689Y-30013413D02*
X145205192Y-30039142D01*
X145205192Y-30039142D02*
X145202231Y-30045321D01*
X145202231Y-30045321D02*
X145188352Y-30074236D01*
X145188352Y-30074236D02*
X145179586Y-30096624D01*
X145179586Y-30096624D02*
X145178829Y-30113271D01*
X145178829Y-30113271D02*
X145188977Y-30124964D01*
X145188977Y-30124964D02*
X145212927Y-30132490D01*
X145212927Y-30132490D02*
X145253574Y-30136634D01*
X145253574Y-30136634D02*
X145313814Y-30138185D01*
X145313814Y-30138185D02*
X145396545Y-30137929D01*
X145396545Y-30137929D02*
X145504661Y-30136651D01*
X145504661Y-30136651D02*
X145537000Y-30136252D01*
X145537000Y-30136252D02*
X145648476Y-30134815D01*
X145648476Y-30134815D02*
X145721397Y-30133528D01*
X145721397Y-30133528D02*
X145721397Y-29994029D01*
X145721397Y-29994029D02*
X145659501Y-29993245D01*
X145659501Y-29993245D02*
X145619003Y-29989760D01*
X145619003Y-29989760D02*
X145592292Y-29981876D01*
X145592292Y-29981876D02*
X145571756Y-29967895D01*
X145571756Y-29967895D02*
X145561740Y-29958403D01*
X145561740Y-29958403D02*
X145532433Y-29919596D01*
X145532433Y-29919596D02*
X145530048Y-29885237D01*
X145530048Y-29885237D02*
X145554250Y-29849784D01*
X145554250Y-29849784D02*
X145555143Y-29848886D01*
X145555143Y-29848886D02*
X145573847Y-29834461D01*
X145573847Y-29834461D02*
X145599268Y-29825687D01*
X145599268Y-29825687D02*
X145638416Y-29821261D01*
X145638416Y-29821261D02*
X145698303Y-29819882D01*
X145698303Y-29819882D02*
X145711570Y-29819857D01*
X145711570Y-29819857D02*
X145794099Y-29823188D01*
X145794099Y-29823188D02*
X145851309Y-29834031D01*
X145851309Y-29834031D02*
X145886234Y-29853660D01*
X145886234Y-29853660D02*
X145901906Y-29883350D01*
X145901906Y-29883350D02*
X145903486Y-29900509D01*
X145903486Y-29900509D02*
X145896074Y-29941234D01*
X145896074Y-29941234D02*
X145871670Y-29969168D01*
X145871670Y-29969168D02*
X145827020Y-29985983D01*
X145827020Y-29985983D02*
X145758870Y-29993350D01*
X145758870Y-29993350D02*
X145721397Y-29994029D01*
X145721397Y-29994029D02*
X145721397Y-30133528D01*
X145721397Y-30133528D02*
X145734755Y-30133292D01*
X145734755Y-30133292D02*
X145799667Y-30131323D01*
X145799667Y-30131323D02*
X145847042Y-30128550D01*
X145847042Y-30128550D02*
X145880710Y-30124612D01*
X145880710Y-30124612D02*
X145904502Y-30119151D01*
X145904502Y-30119151D02*
X145922247Y-30111808D01*
X145922247Y-30111808D02*
X145937776Y-30102223D01*
X145937776Y-30102223D02*
X145943619Y-30098113D01*
X145943619Y-30098113D02*
X145998815Y-30043595D01*
X145998815Y-30043595D02*
X146030110Y-29974664D01*
X146030110Y-29974664D02*
X146038835Y-29894928D01*
X146038835Y-29894928D02*
X146030082Y-29825256D01*
X146030082Y-29825256D02*
X146030082Y-29825256D01*
G36*
X145648476Y-30134815D02*
G01*
X145537000Y-30136252D01*
X145504661Y-30136651D01*
X145396545Y-30137929D01*
X145313814Y-30138185D01*
X145253574Y-30136634D01*
X145212927Y-30132490D01*
X145188977Y-30124964D01*
X145178829Y-30113271D01*
X145179586Y-30096624D01*
X145188352Y-30074236D01*
X145202231Y-30045321D01*
X145205192Y-30039142D01*
X145219689Y-30013413D01*
X145236935Y-29999976D01*
X145265692Y-29994834D01*
X145314717Y-29993990D01*
X145402743Y-29993952D01*
X145402743Y-29903276D01*
X145403533Y-29885237D01*
X145530048Y-29885237D01*
X145532433Y-29919596D01*
X145561740Y-29958403D01*
X145571756Y-29967895D01*
X145592292Y-29981876D01*
X145619003Y-29989760D01*
X145659501Y-29993245D01*
X145721397Y-29994029D01*
X145758870Y-29993350D01*
X145827020Y-29985983D01*
X145871670Y-29969168D01*
X145896074Y-29941234D01*
X145903486Y-29900509D01*
X145901906Y-29883350D01*
X145886234Y-29853660D01*
X145851309Y-29834031D01*
X145794099Y-29823188D01*
X145711570Y-29819857D01*
X145698303Y-29819882D01*
X145638416Y-29821261D01*
X145599268Y-29825687D01*
X145573847Y-29834461D01*
X145555143Y-29848886D01*
X145554250Y-29849784D01*
X145530048Y-29885237D01*
X145403533Y-29885237D01*
X145405185Y-29847498D01*
X145415092Y-29803640D01*
X145435114Y-29767218D01*
X145437071Y-29764503D01*
X145470131Y-29727546D01*
X145510069Y-29701826D01*
X145562343Y-29685606D01*
X145632412Y-29677148D01*
X145725733Y-29674714D01*
X145793831Y-29675253D01*
X145845413Y-29677707D01*
X145881184Y-29683158D01*
X145907985Y-29692686D01*
X145932662Y-29707371D01*
X145951520Y-29720852D01*
X146002432Y-29769799D01*
X146030082Y-29825256D01*
X146038835Y-29894928D01*
X146030110Y-29974664D01*
X145998815Y-30043595D01*
X145943619Y-30098113D01*
X145937776Y-30102223D01*
X145922247Y-30111808D01*
X145904502Y-30119151D01*
X145880710Y-30124612D01*
X145847042Y-30128550D01*
X145799667Y-30131323D01*
X145734755Y-30133292D01*
X145721397Y-30133528D01*
X145648476Y-30134815D01*
G37*
X145648476Y-30134815D02*
X145537000Y-30136252D01*
X145504661Y-30136651D01*
X145396545Y-30137929D01*
X145313814Y-30138185D01*
X145253574Y-30136634D01*
X145212927Y-30132490D01*
X145188977Y-30124964D01*
X145178829Y-30113271D01*
X145179586Y-30096624D01*
X145188352Y-30074236D01*
X145202231Y-30045321D01*
X145205192Y-30039142D01*
X145219689Y-30013413D01*
X145236935Y-29999976D01*
X145265692Y-29994834D01*
X145314717Y-29993990D01*
X145402743Y-29993952D01*
X145402743Y-29903276D01*
X145403533Y-29885237D01*
X145530048Y-29885237D01*
X145532433Y-29919596D01*
X145561740Y-29958403D01*
X145571756Y-29967895D01*
X145592292Y-29981876D01*
X145619003Y-29989760D01*
X145659501Y-29993245D01*
X145721397Y-29994029D01*
X145758870Y-29993350D01*
X145827020Y-29985983D01*
X145871670Y-29969168D01*
X145896074Y-29941234D01*
X145903486Y-29900509D01*
X145901906Y-29883350D01*
X145886234Y-29853660D01*
X145851309Y-29834031D01*
X145794099Y-29823188D01*
X145711570Y-29819857D01*
X145698303Y-29819882D01*
X145638416Y-29821261D01*
X145599268Y-29825687D01*
X145573847Y-29834461D01*
X145555143Y-29848886D01*
X145554250Y-29849784D01*
X145530048Y-29885237D01*
X145403533Y-29885237D01*
X145405185Y-29847498D01*
X145415092Y-29803640D01*
X145435114Y-29767218D01*
X145437071Y-29764503D01*
X145470131Y-29727546D01*
X145510069Y-29701826D01*
X145562343Y-29685606D01*
X145632412Y-29677148D01*
X145725733Y-29674714D01*
X145793831Y-29675253D01*
X145845413Y-29677707D01*
X145881184Y-29683158D01*
X145907985Y-29692686D01*
X145932662Y-29707371D01*
X145951520Y-29720852D01*
X146002432Y-29769799D01*
X146030082Y-29825256D01*
X146038835Y-29894928D01*
X146030110Y-29974664D01*
X145998815Y-30043595D01*
X145943619Y-30098113D01*
X145937776Y-30102223D01*
X145922247Y-30111808D01*
X145904502Y-30119151D01*
X145880710Y-30124612D01*
X145847042Y-30128550D01*
X145799667Y-30131323D01*
X145734755Y-30133292D01*
X145721397Y-30133528D01*
X145648476Y-30134815D01*
D11*
%TO.C,J1*%
X149175000Y-18920000D02*
X149600000Y-18920000D01*
X152750000Y-24870000D02*
X151350000Y-24870000D01*
X155150000Y-16570000D02*
X155300000Y-16570000D01*
X149175000Y-19645000D02*
X149175000Y-18920000D01*
X149600000Y-18920000D02*
X149600000Y-17920000D01*
X151350000Y-16570000D02*
X152750000Y-16570000D01*
X155300000Y-24870000D02*
X155150000Y-24870000D01*
X155300000Y-24570000D02*
X155300000Y-24870000D01*
X149600000Y-22520000D02*
X149600000Y-23520000D01*
X155300000Y-16870000D02*
X155750000Y-16870000D01*
X155750000Y-24570000D02*
X155300000Y-24570000D01*
X155300000Y-16570000D02*
X155300000Y-16870000D01*
D14*
%TO.C,J7*%
X120230000Y-36600000D02*
X120230000Y-36000000D01*
X131955000Y-30400000D02*
X131955000Y-36600000D01*
X117730000Y-36000000D02*
X117730000Y-31000000D01*
X120230000Y-31000000D02*
X117730000Y-31000000D01*
X128770000Y-36600000D02*
X128770000Y-38000000D01*
X130030000Y-30400000D02*
X120230000Y-30400000D01*
X125595000Y-36600000D02*
X127995000Y-36600000D01*
X120230000Y-36000000D02*
X117730000Y-36000000D01*
X128770000Y-36600000D02*
X131955000Y-36600000D01*
X120230000Y-36600000D02*
X121230000Y-36600000D01*
X127500000Y-36600000D02*
X127500000Y-38000000D01*
X120230000Y-31000000D02*
X120230000Y-30400000D01*
X122420000Y-36600000D02*
X124325000Y-36600000D01*
%TO.C,U6*%
X142790000Y-23275000D02*
X142790000Y-33675000D01*
X136650000Y-33615000D02*
X135000000Y-33615000D01*
X140300000Y-23335000D02*
X140300000Y-33615000D01*
X132510000Y-23275000D02*
X142790000Y-23275000D01*
X142790000Y-33675000D02*
X132510000Y-33675000D01*
X135000000Y-23335000D02*
X140300000Y-23335000D01*
X135000000Y-33615000D02*
X135000000Y-23335000D01*
X140300000Y-33615000D02*
X138650000Y-33615000D01*
X132510000Y-33675000D02*
X132510000Y-23275000D01*
X138650000Y-33615000D02*
G75*
G03*
X136650000Y-33615000I-1000000J0D01*
G01*
%TO.C,J6*%
X117700000Y-23600000D02*
X117700000Y-18600000D01*
X130000000Y-18000000D02*
X120200000Y-18000000D01*
X120200000Y-24200000D02*
X121200000Y-24200000D01*
X127470000Y-24200000D02*
X127470000Y-25600000D01*
X128740000Y-24200000D02*
X128740000Y-25600000D01*
X131925000Y-18000000D02*
X131925000Y-24200000D01*
X122390000Y-24200000D02*
X124295000Y-24200000D01*
X120200000Y-18600000D02*
X120200000Y-18000000D01*
X125565000Y-24200000D02*
X127965000Y-24200000D01*
X120200000Y-24200000D02*
X120200000Y-23600000D01*
X128740000Y-24200000D02*
X131925000Y-24200000D01*
X120200000Y-23600000D02*
X117700000Y-23600000D01*
X120200000Y-18600000D02*
X117700000Y-18600000D01*
%TD*%
M02*
